<svg height="464pt" viewBox="-31 0 463 464" width="464pt" xmlns="http://www.w3.org/2000/svg"><path d="m.5 0h336v464h-248c-48.601562 0-88-39.398438-88-88zm0 0" fill="#ffd782"/><g fill="#e97424"><path d="m336.5 40h64v360c0 35.347656-28.652344 64-64 64zm0 0"/><path d="m40.5 80h80v80h-80zm0 0"/><path d="m40.5 192h80v80h-80zm0 0"/><path d="m40.5 304h80v80h-80zm0 0"/><path d="m296.5 96h-120c-4.417969 0-8-3.582031-8-8s3.582031-8 8-8h120c4.417969 0 8 3.582031 8 8s-3.582031 8-8 8zm0 0"/><path d="m296.5 128h-120c-4.417969 0-8-3.582031-8-8s3.582031-8 8-8h120c4.417969 0 8 3.582031 8 8s-3.582031 8-8 8zm0 0"/><path d="m232.5 160h-56c-4.417969 0-8-3.582031-8-8s3.582031-8 8-8h56c4.417969 0 8 3.582031 8 8s-3.582031 8-8 8zm0 0"/><path d="m296.5 208h-120c-4.417969 0-8-3.582031-8-8s3.582031-8 8-8h120c4.417969 0 8 3.582031 8 8s-3.582031 8-8 8zm0 0"/><path d="m296.5 240h-120c-4.417969 0-8-3.582031-8-8s3.582031-8 8-8h120c4.417969 0 8 3.582031 8 8s-3.582031 8-8 8zm0 0"/><path d="m272.5 272h-96c-4.417969 0-8-3.582031-8-8s3.582031-8 8-8h96c4.417969 0 8 3.582031 8 8s-3.582031 8-8 8zm0 0"/><path d="m296.5 320h-120c-4.417969 0-8-3.582031-8-8s3.582031-8 8-8h120c4.417969 0 8 3.582031 8 8s-3.582031 8-8 8zm0 0"/><path d="m296.5 352h-120c-4.417969 0-8-3.582031-8-8s3.582031-8 8-8h120c4.417969 0 8 3.582031 8 8s-3.582031 8-8 8zm0 0"/><path d="m240.5 384h-64c-4.417969 0-8-3.582031-8-8s3.582031-8 8-8h64c4.417969 0 8 3.582031 8 8s-3.582031 8-8 8zm0 0"/></g><path d="m88.5 136c-2.121094 0-4.15625-.84375-5.65625-2.34375l-16-16c-3.03125-3.140625-2.988281-8.128906.097656-11.214844 3.085938-3.085937 8.074219-3.128906 11.214844-.097656l10.769531 10.761719 50.398438-43.203125c2.152343-1.988282 5.21875-2.640625 7.992187-1.699219 2.777344.9375 4.816406 3.320313 5.320313 6.207031.5 2.886719-.617188 5.816406-2.914063 7.636719l-56 48c-1.445312 1.261719-3.304687 1.953125-5.222656 1.953125zm0 0" fill="#2d75bb"/><path d="m88.5 360c-2.121094 0-4.15625-.84375-5.65625-2.34375l-16-16c-3.03125-3.140625-2.988281-8.128906.097656-11.214844 3.085938-3.085937 8.074219-3.128906 11.214844-.097656l10.769531 10.761719 50.398438-43.203125c2.152343-1.988282 5.21875-2.640625 7.992187-1.699219 2.777344.9375 4.816406 3.320313 5.320313 6.207031.5 2.886719-.617188 5.816406-2.914063 7.636719l-56 48c-1.445312 1.261719-3.304687 1.953125-5.222656 1.953125zm0 0" fill="#2d75bb"/><path d="m360.5 40h16v368h-16zm0 0" fill="#cfdfe8"/></svg>