<?xml version="1.0" encoding="iso-8859-1"?>
<!-- Generator: Adobe Illustrator 19.0.0, SVG Export Plug-In . SVG Version: 6.00 Build 0)  -->
<svg version="1.1" id="Capa_1" xmlns="http://www.w3.org/2000/svg" xmlns:xlink="http://www.w3.org/1999/xlink" x="0px" y="0px"
	 viewBox="0 0 512 512" style="enable-background:new 0 0 512 512;" xml:space="preserve">
<path style="fill:#ED1C24;" d="M512,384h-17.067c0-131.959-106.974-238.933-238.933-238.933S17.067,252.041,17.067,384H0
	c0-141.389,114.611-256,256-256S512,242.611,512,384z"/>
<path style="fill:#FFAF46;" d="M477.867,384H460.8c0-113.109-91.691-204.8-204.8-204.8S51.2,270.891,51.2,384H34.133
	c0-122.53,99.337-221.867,221.867-221.867S477.867,261.47,477.867,384z"/>
<path style="fill:#FFDA44;" d="M443.733,384h-17.067c0-94.259-76.408-170.667-170.667-170.667S85.333,289.741,85.333,384H68.267
	c0-103.68,84.053-187.733,187.733-187.733S443.733,280.32,443.733,384z"/>
<path style="fill:#64C37D;" d="M409.6,384h-17.067c0-75.409-61.124-136.533-136.533-136.533S119.467,308.591,119.467,384H102.4
	c0-84.83,68.77-153.6,153.6-153.6S409.6,299.17,409.6,384z"/>
<path style="fill:#006DF0;" d="M375.467,384H358.4c0-56.55-45.85-102.4-102.4-102.4S153.6,327.45,153.6,384h-17.067
	c0-65.98,53.487-119.467,119.467-119.467S375.467,318.02,375.467,384z"/>
<path style="fill:#933EC5;" d="M341.333,384h-17.067c0-37.7-30.566-68.267-68.267-68.267S187.733,346.3,187.733,384h-17.067
	c0-47.13,38.204-85.333,85.333-85.333S341.333,336.87,341.333,384z"/>
<g>
</g>
<g>
</g>
<g>
</g>
<g>
</g>
<g>
</g>
<g>
</g>
<g>
</g>
<g>
</g>
<g>
</g>
<g>
</g>
<g>
</g>
<g>
</g>
<g>
</g>
<g>
</g>
<g>
</g>
</svg>
