<svg height="464pt" viewBox="-24 0 464 464" width="464pt" xmlns="http://www.w3.org/2000/svg"><path d="m288 464-73.359375-53.535156c-1.753906-1.777344-4.144531-2.777344-6.640625-2.777344s-4.886719 1-6.640625 2.777344l-73.359375 53.535156v-224h160zm0 0" fill="#dd3e46"/><path d="m176 240v188.96875l25.359375-18.503906c1.753906-1.777344 4.144531-2.777344 6.640625-2.777344s4.886719 1 6.640625 2.777344l25.359375 18.503906v-188.96875zm0 0" fill="#f98c96"/><path d="m344 136c0 75.109375-60.890625 136-136 136s-136-60.890625-136-136 60.890625-136 136-136 136 60.890625 136 136zm0 0" fill="#2d75bb"/><path d="m312 136c0 57.4375-46.5625 104-104 104s-104-46.5625-104-104 46.5625-104 104-104 104 46.5625 104 104zm0 0" fill="#f4f4e6"/><path d="m208 280v-8h8c13.199219.464844 25.84375 5.425781 35.839844 14.054688l6.105468 6.105468c8.628907 9.996094 13.589844 22.640625 14.054688 35.839844v8h-8c-13.199219-.464844-25.84375-5.425781-35.839844-14.054688l-6.105468-6.105468c-8.628907-9.996094-13.589844-22.640625-14.054688-35.839844zm0 0" fill="#b2e8f9"/><path d="m200 272h8v8c-.464844 13.199219-5.425781 25.84375-14.054688 35.839844l-6.105468 6.105468c-9.996094 8.628907-22.640625 13.589844-35.839844 14.054688h-8v-8c.464844-13.199219 5.425781-25.84375 14.054688-35.839844l6.105468-6.105468c9.996094-8.628907 22.640625-13.589844 35.839844-14.054688zm0 0" fill="#b2e8f9"/><g fill="#e97424"><path d="m40 96h-32c-4.417969 0-8-3.582031-8-8s3.582031-8 8-8h32c4.417969 0 8 3.582031 8 8s-3.582031 8-8 8zm0 0"/><path d="m408 96h-32c-4.417969 0-8-3.582031-8-8s3.582031-8 8-8h32c4.417969 0 8 3.582031 8 8s-3.582031 8-8 8zm0 0"/><path d="m40 64c-2.121094 0-4.15625-.84375-5.65625-2.34375l-16-16c-2.078125-2.007812-2.914062-4.984375-2.179688-7.78125.730469-2.796875 2.914063-4.980469 5.710938-5.710938 2.796875-.734374 5.773438.101563 7.78125 2.179688l16 16c2.285156 2.289062 2.972656 5.730469 1.734375 8.71875s-4.15625 4.9375-7.390625 4.9375zm0 0"/><path d="m376 64c-3.234375 0-6.152344-1.949219-7.390625-4.9375s-.550781-6.429688 1.734375-8.71875l16-16c2.007812-2.078125 4.984375-2.914062 7.78125-2.179688 2.796875.730469 4.980469 2.914063 5.710938 5.710938.734374 2.796875-.101563 5.773438-2.179688 7.78125l-16 16c-1.5 1.5-3.535156 2.34375-5.65625 2.34375zm0 0"/><path d="m392 144c-2.121094 0-4.15625-.84375-5.65625-2.34375l-16-16c-3.03125-3.140625-2.988281-8.128906.097656-11.214844 3.085938-3.085937 8.074219-3.128906 11.214844-.097656l16 16c2.285156 2.289062 2.972656 5.730469 1.734375 8.71875s-4.15625 4.9375-7.390625 4.9375zm0 0"/><path d="m24 144c-3.234375 0-6.152344-1.949219-7.390625-4.9375s-.550781-6.429688 1.734375-8.71875l16-16c3.140625-3.03125 8.128906-2.988281 11.214844.097656 3.085937 3.085938 3.128906 8.074219.097656 11.214844l-16 16c-1.5 1.5-3.535156 2.34375-5.65625 2.34375zm0 0"/><path d="m208 64 16 40 48 8-32 32 8 48-40-21.863281-40 21.863281 8-48-32-32 48-8zm0 0"/></g><path d="m72 224c-13.253906 0-24-10.746094-24-24 0-4.417969-3.582031-8-8-8s-8 3.582031-8 8c0 13.253906-10.746094 24-24 24-4.417969 0-8 3.582031-8 8s3.582031 8 8 8c13.253906 0 24 10.746094 24 24 0 4.417969 3.582031 8 8 8s8-3.582031 8-8c0-13.253906 10.746094-24 24-24 4.417969 0 8-3.582031 8-8s-3.582031-8-8-8zm-32 16.246094c-2.332031-3.136719-5.109375-5.914063-8.246094-8.246094 3.136719-2.332031 5.914063-5.109375 8.246094-8.246094 2.332031 3.136719 5.109375 5.914063 8.246094 8.246094-3.136719 2.332031-5.914063 5.109375-8.246094 8.246094zm0 0" fill="#7fcac9"/><path d="m408 224c-13.253906 0-24-10.746094-24-24 0-4.417969-3.582031-8-8-8s-8 3.582031-8 8c0 13.253906-10.746094 24-24 24-4.417969 0-8 3.582031-8 8s3.582031 8 8 8c13.253906 0 24 10.746094 24 24 0 4.417969 3.582031 8 8 8s8-3.582031 8-8c0-13.253906 10.746094-24 24-24 4.417969 0 8-3.582031 8-8s-3.582031-8-8-8zm-32 16.246094c-2.332031-3.136719-5.109375-5.914063-8.246094-8.246094 3.136719-2.332031 5.914063-5.109375 8.246094-8.246094 2.332031 3.136719 5.109375 5.914063 8.246094 8.246094-3.136719 2.332031-5.914063 5.109375-8.246094 8.246094zm0 0" fill="#7fcac9"/></svg>