<svg height="464pt" viewBox="-40 0 464 464" width="464pt" xmlns="http://www.w3.org/2000/svg"><path d="m0 0h384v416h-384zm0 0" fill="#ffd782"/><path d="m368 464-48-128h-48l-48 128h48l24-64 24 64zm0 0" fill="#dd3e46"/><g fill="#f2ac7c"><path d="m88 72h-16c-4.417969 0-8-3.582031-8-8s3.582031-8 8-8h16c4.417969 0 8 3.582031 8 8s-3.582031 8-8 8zm0 0"/><path d="m256 72h-128c-4.417969 0-8-3.582031-8-8s3.582031-8 8-8h128c4.417969 0 8 3.582031 8 8s-3.582031 8-8 8zm0 0"/><path d="m312 72h-24c-4.417969 0-8-3.582031-8-8s3.582031-8 8-8h24c4.417969 0 8 3.582031 8 8s-3.582031 8-8 8zm0 0"/><path d="m200 104h-128c-4.417969 0-8-3.582031-8-8s3.582031-8 8-8h128c4.417969 0 8 3.582031 8 8s-3.582031 8-8 8zm0 0"/><path d="m312 104h-80c-4.417969 0-8-3.582031-8-8s3.582031-8 8-8h80c4.417969 0 8 3.582031 8 8s-3.582031 8-8 8zm0 0"/><path d="m80 24h-48c-4.417969 0-8 3.582031-8 8v48c0 4.417969 3.582031 8 8 8s8-3.582031 8-8v-40h40c4.417969 0 8-3.582031 8-8s-3.582031-8-8-8zm0 0"/><path d="m352 88c-4.417969 0-8-3.582031-8-8v-40h-40c-4.417969 0-8-3.582031-8-8s3.582031-8 8-8h48c4.417969 0 8 3.582031 8 8v48c0 4.417969-3.582031 8-8 8zm0 0"/><path d="m312 136h-240c-4.417969 0-8-3.582031-8-8s3.582031-8 8-8h240c4.417969 0 8 3.582031 8 8s-3.582031 8-8 8zm0 0"/><path d="m144 176h-72c-4.417969 0-8-3.582031-8-8s3.582031-8 8-8h72c4.417969 0 8 3.582031 8 8s-3.582031 8-8 8zm0 0"/><path d="m312 176h-136c-4.417969 0-8-3.582031-8-8s3.582031-8 8-8h136c4.417969 0 8 3.582031 8 8s-3.582031 8-8 8zm0 0"/><path d="m184 208h-112c-4.417969 0-8-3.582031-8-8s3.582031-8 8-8h112c4.417969 0 8 3.582031 8 8s-3.582031 8-8 8zm0 0"/><path d="m312 208h-96c-4.417969 0-8-3.582031-8-8s3.582031-8 8-8h96c4.417969 0 8 3.582031 8 8s-3.582031 8-8 8zm0 0"/><path d="m112 256h-40c-4.417969 0-8-3.582031-8-8s3.582031-8 8-8h40c4.417969 0 8 3.582031 8 8s-3.582031 8-8 8zm0 0"/><path d="m216 256h-72c-4.417969 0-8-3.582031-8-8s3.582031-8 8-8h72c4.417969 0 8 3.582031 8 8s-3.582031 8-8 8zm0 0"/></g><path d="m56 376c-2.792969 0-5.386719-1.460938-6.835938-3.847656-1.449218-2.390625-1.546874-5.359375-.261718-7.839844 3.058594-5.871094 5.945312-11.816406 8.609375-17.601562l-.800781-.351563c-10.878907-5.726563-17.347657-17.335937-16.496094-29.597656.363281-15.90625 10.144531-30.074219 24.890625-36.050781 11.320312-4.800782 17.597656-1.597657 20.871093 1.953124 4.839844 5.222657 7.046876 17.480469-3.136718 45.496094 2.976562-1.835937 5.800781-3.902344 8.449218-6.183594 12.078126-10.265624 29.597657-23.007812 42.304688-15.59375 11.597656 6.800782 9.496094 24.800782 8.542969 30.3125.082031 1.839844.449219 3.652344 1.09375 5.375 5.148437-2.757812 9.628906-6.613281 13.121093-11.292968 17.871094-20.242188 24.089844-26.402344 35.847657-20.585938 2.386719 1.300782 5.085937 1.925782 7.800781 1.808594 4.417969 0 8 3.582031 8 8s-3.582031 8-8 8c-5.171875.09375-10.285156-1.117188-14.863281-3.527344l-.335938-.152344c-5.902343 5.25-11.410156 10.921876-16.480469 16.976563-7.871093 8.917969-19.65625 20.269531-30.96875 16-10.71875-4.058594-11.261718-18.457031-11.261718-21.304687 0-.515626.046875-1.03125.140625-1.535157 1.230469-4.769531.953125-9.800781-.796875-14.402343-.136719 0-5.816406-1.300782-23.824219 14.007812-7.628906 7.117188-17.019531 12.058594-27.203125 14.3125-3.199219 7.03125-6.957031 14.769531-11.375 23.28125-1.355469 2.640625-4.0625 4.3125-7.03125 4.34375zm18.335938-81.648438c-1.011719.25-2.003907.589844-2.960938 1.007813-8.957031 3.5-14.9375 12.039063-15.160156 21.65625-.597656 5.957031 2.265625 11.730469 7.371094 14.855469l.285156.128906c5.785156-11.792969 9.332031-24.558594 10.457031-37.648438zm0 0" fill="#e97424"/><path d="m352 320c0 30.929688-25.070312 56-56 56s-56-25.070312-56-56 25.070312-56 56-56 56 25.070312 56 56zm0 0" fill="#195c85"/></svg>