<svg height="472pt" viewBox="-3 0 471 472" width="472pt" xmlns="http://www.w3.org/2000/svg"><path d="m392.5 48c-26.5.027344-47.972656 21.5-48 48l.039062 272.800781c0 .320313 2.839844 32.277344-16 52.96875-10.96875 12.085938-27.527343 18.230469-49.183593 18.230469h-46.855469c-17.875 1.261719-35.421875-5.269531-48.121094-17.910156-18.710937-20.59375-16-52.675782-15.917968-53.296875.441406-4.398438-2.765626-8.320313-7.160157-8.761719-4.398437-.441406-8.320312 2.765625-8.761719 7.160156-.160156 1.601563-3.648437 39.511719 19.914063 65.542969 13.957031 15.441406 34.167969 23.265625 60.046875 23.265625h48c.097656 0 .175781-.046875.273438-.054688 22.363281 1.089844 44.117187-7.480468 59.726562-23.539062 23.574219-26.007812 20.121094-63.605469 20-64.40625v-272c0-17.671875 14.328125-32 32-32s32 14.328125 32 32v120c0 4.417969 3.582031 8 8 8s8-3.582031 8-8v-120c-.027344-26.5-21.5-47.972656-48-48zm0 0" fill="#cfdfe8"/><path d="m120.5 472c-4.417969 0-8-3.582031-8-8v-96c0-4.417969 3.582031-8 8-8s8 3.582031 8 8v96c0 4.417969-3.582031 8-8 8zm0 0" fill="#cfdfe8"/><path d="m32.5 0h224c17.671875 0 32 14.328125 32 32v272c0 17.671875-14.328125 32-32 32h-224c-17.671875 0-32-14.328125-32-32v-272c0-17.671875 14.328125-32 32-32zm0 0" fill="#ffd782"/><path d="m.5 112h288v96h-288zm0 0" fill="#e97424"/><path d="m32.5 64h224v48h-224zm0 0" fill="#dd3e46"/><path d="m32.5 208h224v96h-224zm0 0" fill="#dd3e46"/><g fill="#fff"><path d="m64.5 152h-8v-8c0-4.417969-3.582031-8-8-8s-8 3.582031-8 8v8h-8c-4.417969 0-8 3.582031-8 8s3.582031 8 8 8h8v8c0 4.417969 3.582031 8 8 8s8-3.582031 8-8v-8h8c4.417969 0 8-3.582031 8-8s-3.582031-8-8-8zm0 0"/><path d="m248.5 152h-152c-4.417969 0-8-3.582031-8-8s3.582031-8 8-8h152c4.417969 0 8 3.582031 8 8s-3.582031 8-8 8zm0 0"/><path d="m144.5 184h-48c-4.417969 0-8-3.582031-8-8s3.582031-8 8-8h48c4.417969 0 8 3.582031 8 8s-3.582031 8-8 8zm0 0"/><path d="m224.5 184h-48c-4.417969 0-8-3.582031-8-8s3.582031-8 8-8h48c4.417969 0 8 3.582031 8 8s-3.582031 8-8 8zm0 0"/></g><path d="m184.5 280h-8c-4.417969 0-8-3.582031-8-8s3.582031-8 8-8h8c4.417969 0 8 3.582031 8 8s-3.582031 8-8 8zm0 0" fill="#ffd782"/><path d="m224.5 280h-8c-4.417969 0-8-3.582031-8-8s3.582031-8 8-8h8c4.417969 0 8 3.582031 8 8s-3.582031 8-8 8zm0 0" fill="#ffd782"/><path d="m96.5 336h96v32h-96zm0 0" fill="#5a6470"/><path d="m432.5 360c-4.417969 0-8-3.582031-8-8v-48c0-4.417969 3.582031-8 8-8s8 3.582031 8 8v48c0 4.417969-3.582031 8-8 8zm0 0" fill="#cfdfe8"/><path d="m400.5 216h64v88h-64zm0 0" fill="#195c85"/></svg>