<svg height="464pt" viewBox="0 -48 464 464" width="464pt" xmlns="http://www.w3.org/2000/svg"><path d="m224 0h240v256h-240zm0 0" fill="#ffd782"/><path d="m0 112h224v256h-224zm0 0" fill="#2d75bb"/><path d="m32 144h160v144h-160zm0 0" fill="#f4f4e6"/><path d="m256 32h176v144h-176zm0 0" fill="#f4f4e6"/><path d="m112 183.503906c-11.367188-10.007812-28.402344-10.007812-39.769531 0-5.230469 4.570313-8.230469 11.175782-8.230469 18.125 0 6.945313 3 13.554688 8.230469 18.125l39.769531 36.246094 39.761719-36.246094c5.230469-4.570312 8.230469-11.179687 8.230469-18.125 0-6.949218-3-13.554687-8.230469-18.125-11.367188-10.003906-28.394531-10.003906-39.761719 0zm0 0" fill="#f98c96"/><path d="m344 71.503906c-11.367188-10.007812-28.402344-10.007812-39.769531 0-5.230469 4.570313-8.230469 11.175782-8.230469 18.125 0 6.945313 3 13.554688 8.230469 18.125l39.769531 36.246094 39.769531-36.246094c5.230469-4.570312 8.230469-11.179687 8.230469-18.125 0-6.949218-3-13.554687-8.230469-18.125-11.367187-10.007812-28.402343-10.007812-39.769531 0zm0 0" fill="#f98c96"/><g fill="#f4f4e6"><path d="m24 312h16v16h-16zm0 0"/><path d="m56 312h16v16h-16zm0 0"/><path d="m184 312h16v16h-16zm0 0"/></g><path d="m248 200h16v16h-16zm0 0" fill="#d3843d"/><path d="m424 200h16v16h-16zm0 0" fill="#d3843d"/><path d="m336 200h72v16h-72zm0 0" fill="#d3843d"/></svg>