<svg height="471pt" viewBox="0 -4 471.90169 471" width="471pt" xmlns="http://www.w3.org/2000/svg"><path d="m80 399.859375s88-112 88-288h-40c-1.503906 90.117187-26.308594 178.308594-72 256zm0 0" fill="#d3843d"/><path d="m88 359.859375h376v104h-376zm0 0" fill="#7fcac9"/><path d="m0 319.859375c87.21875 9.832031 163.011719 64.402344 200 144h-200zm0 0" fill="#ffd782"/><g fill="#55b56a"><path d="m80 63.859375c39.769531 0 72 21.488281 72 48h-152c0-26.511719 40.230469-48 80-48zm0 0"/><path d="m64 127.859375c28.121094-28.121094 69.257812-34.746094 88-16l-104 104c-18.742188-18.746094-12.121094-59.882813 16-88zm0 0"/><path d="m112 23.859375c40 32 40.265625 64.117187 24 88l-128-96c16.265625-23.882813 70.160156-19.074219 104 8zm0 0"/><path d="m216 63.859375c-39.769531 0-72 21.488281-72 48h152c0-26.511719-40.230469-48-80-48zm0 0"/><path d="m232 127.859375c-28.121094-28.121094-69.257812-34.746094-88-16l104 104c18.742188-18.746094 12.121094-59.882813-16-88zm0 0"/><path d="m184 23.859375c-40 32-40.265625 64.117187-24 88l128-96c-16.265625-23.882813-70.160156-19.074219-104 8zm0 0"/></g><path d="m304 399.859375h-72c-4.417969 0-8-3.582031-8-8s3.582031-8 8-8h72c4.417969 0 8 3.582031 8 8s-3.582031 8-8 8zm0 0" fill="#2d75bb"/><path d="m416 399.859375h-80c-4.417969 0-8-3.582031-8-8s3.582031-8 8-8h80c4.417969 0 8 3.582031 8 8s-3.582031 8-8 8zm0 0" fill="#2d75bb"/><path d="m352 431.859375h-64c-4.417969 0-8-3.582031-8-8s3.582031-8 8-8h64c4.417969 0 8 3.582031 8 8s-3.582031 8-8 8zm0 0" fill="#2d75bb"/><path d="m424 431.859375h-32c-4.417969 0-8-3.582031-8-8s3.582031-8 8-8h32c4.417969 0 8 3.582031 8 8s-3.582031 8-8 8zm0 0" fill="#2d75bb"/><path d="m248 431.859375h-32c-4.417969 0-8-3.582031-8-8s3.582031-8 8-8h32c4.417969 0 8 3.582031 8 8s-3.582031 8-8 8zm0 0" fill="#2d75bb"/><path d="m448.121094 249.042969c-.621094 43.808593-36.308594 78.996093-80.121094 78.996093s-79.5-35.1875-80.121094-78.996093c-.40625-28.894531 14.773438-55.769531 39.730469-70.335938 24.957031-14.566406 55.824219-14.566406 80.78125 0 24.957031 14.566407 40.136719 41.441407 39.730469 70.335938zm0 0" fill="#e97424"/><path d="m424 95.859375c-2.121094 0-4.15625-.84375-5.65625-2.34375l-18.34375-18.34375-10.34375 10.34375c-3.140625 3.03125-8.128906 2.988281-11.214844-.097656-3.085937-3.085938-3.128906-8.078125-.097656-11.214844l16-16c3.125-3.125 8.1875-3.125 11.3125 0l18.34375 18.34375 18.34375-18.34375c3.125-3.125 8.1875-3.125 11.3125 0l16 16c3.03125 3.136719 2.988281 8.128906-.097656 11.214844-3.085938 3.085937-8.074219 3.128906-11.214844.097656l-10.34375-10.34375-18.34375 18.34375c-1.5 1.5-3.535156 2.34375-5.65625 2.34375zm0 0" fill="#aabece"/><path d="m360 47.859375c-2.121094 0-4.15625-.84375-5.65625-2.34375l-18.34375-18.34375-10.34375 10.34375c-3.140625 3.03125-8.128906 2.988281-11.214844-.097656-3.085937-3.085938-3.128906-8.078125-.097656-11.214844l16-16c3.125-3.125 8.1875-3.125 11.3125 0l18.34375 18.34375 18.34375-18.34375c3.125-3.125 8.1875-3.125 11.3125 0l16 16c3.03125 3.136719 2.988281 8.128906-.097656 11.214844-3.085938 3.085937-8.074219 3.128906-11.214844.097656l-10.34375-10.34375-18.34375 18.34375c-1.5 1.5-3.535156 2.34375-5.65625 2.34375zm0 0" fill="#aabece"/><path d="m368 143.859375c-2.121094 0-4.15625-.84375-5.65625-2.34375l-18.34375-18.34375-10.34375 10.34375c-3.140625 3.03125-8.128906 2.988281-11.214844-.097656-3.085937-3.085938-3.128906-8.078125-.097656-11.214844l16-16c3.125-3.125 8.1875-3.125 11.3125 0l18.34375 18.34375 18.34375-18.34375c3.125-3.125 8.1875-3.125 11.3125 0l16 16c3.03125 3.136719 2.988281 8.128906-.097656 11.214844-3.085938 3.085937-8.074219 3.128906-11.214844.097656l-10.34375-10.34375-18.34375 18.34375c-1.5 1.5-3.535156 2.34375-5.65625 2.34375zm0 0" fill="#aabece"/><path d="m40 439.859375h-8c-4.417969 0-8-3.582031-8-8s3.582031-8 8-8h8c4.417969 0 8 3.582031 8 8s-3.582031 8-8 8zm0 0" fill="#d3843d"/><path d="m88 423.859375h-8c-4.417969 0-8-3.582031-8-8s3.582031-8 8-8h8c4.417969 0 8 3.582031 8 8s-3.582031 8-8 8zm0 0" fill="#d3843d"/><path d="m56 407.859375h-8c-4.417969 0-8-3.582031-8-8s3.582031-8 8-8h8c4.417969 0 8 3.582031 8 8s-3.582031 8-8 8zm0 0" fill="#d3843d"/><path d="m136 439.859375h-8c-4.417969 0-8-3.582031-8-8s3.582031-8 8-8h8c4.417969 0 8 3.582031 8 8s-3.582031 8-8 8zm0 0" fill="#d3843d"/></svg>