<svg height="456pt" viewBox="-3 0 455 456" width="456pt" xmlns="http://www.w3.org/2000/svg"><path d="m282.964844 32h11.070312c5.78125 0 10.464844 4.683594 10.464844 10.464844v293.535156h-32v-293.535156c0-5.78125 4.683594-10.464844 10.464844-10.464844zm0 0" fill="#8ec13f"/><path d="m427.15625 376c7.472656-20.976562 13.34375-80.921875 13.34375-88 0-13.253906-10.746094-24-24-24-12.925781.765625-23.234375 11.074219-24 24-4.171875-4.539062-9.867188-7.386719-16-8-3.0625.007812-6.09375.605469-8.929688 1.761719-2.789062-10.457031-12.25-17.738281-23.070312-17.761719-3.660156.019531-7.265625.886719-10.535156 2.535156 1.648437-3.269531 2.515625-6.875 2.535156-10.535156 0-13.253906-10.746094-24-24-24-12.914062.785156-23.214844 11.085938-24 24h-8c-3.363281-10.222656-13.269531-16.828125-24-16-13.253906 0-24 10.746094-24 24v8h-8c-3.195312-5.6875-9.53125-8.859375-16-8-13.253906 0-24 10.746094-24 24 0 4.800781-.40625 20.800781-.054688 37.726562 11.367188 5.480469 19.597657 8 24.054688 10.273438 16 8 40 43.800781 40 75.800781l96-16c26.933594-8.960937 54.585938-15.585937 82.65625-19.800781zm0 0" fill="#d3843d"/><path d="m248.5 320c-4.417969 0-8-3.582031-8-8-.011719-8.335938 3.675781-16.246094 10.0625-21.601562 7.320312-4.691407 16.496094-5.425782 24.464844-1.949219 4.199218 1.394531 6.46875 5.929687 5.074218 10.125-1.398437 4.199219-5.933593 6.46875-10.128906 5.074219-2.65625-.894532-7.503906-2.089844-10.058594-.257813-2.160156 2.351563-3.375 5.417969-3.414062 8.609375 0 4.417969-3.582031 8-8 8zm0 0" fill="#ffd782"/><path d="m344.5 328c-3.441406-.003906-6.496094-2.207031-7.585938-5.472656-2.03125-6.078125-4.734374-7.023438-5.597656-7.335938-5.066406-.65625-10.195312.585938-14.402344 3.480469-3.675781 2.351563-8.558593 1.320313-10.972656-2.316406-2.414062-3.636719-1.464844-8.535157 2.125-11.011719 8.300782-5.675781 18.605469-7.601562 28.394532-5.296875 7.734374 2.917969 13.566406 9.417969 15.632812 17.425781.8125 2.4375.402344 5.121094-1.101562 7.207032-1.503907 2.085937-3.921876 3.320312-6.492188 3.320312zm0 0" fill="#ffd782"/><path d="m424.5 80c-24.511719 24.511719-53.601562 42.398438-72 24s-8.511719-47.488281 16-72 80-32 80-32 .511719 55.488281-24 80zm0 0" fill="#8ec13f"/><path d="m336.5 128c-3.234375 0-6.152344-1.949219-7.390625-4.9375s-.550781-6.429688 1.734375-8.71875l40-40c3.140625-3.03125 8.128906-2.988281 11.214844.097656 3.085937 3.085938 3.128906 8.074219.097656 11.214844l-40 40c-1.5 1.5-3.535156 2.34375-5.65625 2.34375zm0 0" fill="#359b48"/><path d="m152.5 160c24.511719 24.511719 53.601562 34.398438 72 16s16.511719-47.488281-8-72-88-32-88-32-.511719 63.488281 24 88zm0 0" fill="#8ec13f"/><path d="m240.5 200c-2.121094 0-4.15625-.84375-5.65625-2.34375l-48-48c-3.03125-3.140625-2.988281-8.128906.097656-11.214844 3.085938-3.085937 8.074219-3.128906 11.214844-.097656l48 48c2.285156 2.289062 2.972656 5.730469 1.734375 8.71875s-4.15625 4.9375-7.390625 4.9375zm0 0" fill="#359b48"/><path d="m379.101562 354.054688-74.601562 21.945312h-64c0-35.347656-28.652344-64-64-64h-128v128h256l136-40c0-15.09375-7.113281-29.300781-19.199219-38.34375-12.082031-9.042969-27.722656-11.859375-42.199219-7.601562zm0 0" fill="#ffd782"/><path d="m.5 280h48v176h-48zm0 0" fill="#195c85"/><path d="m136.5 400c-2.773438 0-5.34375-1.4375-6.800781-3.796875-1.457031-2.355469-1.589844-5.300781-.351563-7.777344 5.859375-12.003906 17.8125-19.839843 31.152344-20.425781h88c4.417969 0 8 3.582031 8 8s-3.582031 8-8 8h-88c-7.261719.589844-13.660156 5-16.800781 11.574219-1.359375 2.726562-4.152344 4.441406-7.199219 4.425781zm0 0" fill="#f7bc54"/></svg>