<svg height="466pt" viewBox="0 -1 466.12059 466" width="466pt" xmlns="http://www.w3.org/2000/svg"><path d="m465.054688 24.058594v208c0 128.132812-103.871094 232-232 232-128.128907 0-232-103.867188-232-232v-208c-.007813-2.21875.316406-4.429688.960937-6.558594 1.105469-3.929688 3.199219-7.507812 6.078125-10.398438.140625-.15625.300781-.292968.480469-.402343 4.4375-4.246094 10.339843-6.6250002 16.480469-6.6406252 7.8125.9335942 14.886718 5.0820312 19.519531 11.4414062 3.042969 3.066406 5.75 6.445312 8.082031 10.082031l55.117188 84.957031c6.976562-1.636718 14.117187-2.46875 21.28125-2.480468h202.71875c7.167968.007812 14.308593.839844 21.28125 2.480468l61.679687-87.277343c1.753906-2.476563 3.734375-4.78125 5.921875-6.882813 5.324219-6.15625 12.46875-10.46875 20.398438-12.3203122 6.140624.015625 12.042968 2.3945312 16.480468 6.6406252 3.128906 2.933593 5.398438 6.671875 6.558594 10.800781.644531 2.128906.96875 4.339844.960938 6.558594zm0 0" fill="#f98c96"/><path d="m153.054688 104.058594h32v48c0 8.839844-7.164063 16-16 16-8.835938 0-16-7.160156-16-16zm0 0" fill="#dd3e46"/><path d="m217.054688 104.058594h32v64c0 8.839844-7.164063 16-16 16-8.835938 0-16-7.160156-16-16zm0 0" fill="#dd3e46"/><path d="m281.054688 104.058594h32v48c0 8.839844-7.164063 16-16 16-8.835938 0-16-7.160156-16-16zm0 0" fill="#dd3e46"/><path d="m161.054688 248.058594c0 22.09375-17.910157 40-40 40-22.089844 0-40-17.90625-40-40 0-22.089844 17.910156-40 40-40 22.089843 0 40 17.910156 40 40zm0 0" fill="#cfdfe8"/><path d="m377.054688 248.058594c0 22.09375-17.910157 40-40 40-22.089844 0-40-17.90625-40-40 0-22.089844 17.910156-40 40-40 22.089843 0 40 17.910156 40 40zm0 0" fill="#cfdfe8"/><path d="m137.054688 248.058594c0-22.089844-7.164063-40-16-40-8.835938 0-16 17.910156-16 40 0 22.09375 7.164062 40 16 40 8.835937 0 16-17.90625 16-40zm0 0" fill="#394d5c"/><path d="m353.054688 248.058594c0-22.089844-7.164063-40-16-40-8.835938 0-16 17.910156-16 40 0 22.09375 7.164062 40 16 40 8.835937 0 16-17.90625 16-40zm0 0" fill="#394d5c"/><g fill="#dd3e46"><path d="m303.734375 376.171875c-.421875.0625-43.429687 6.878906-64.28125-20.910156h-12.796875c-20.730469 27.636719-63.867188 20.984375-64.296875 20.902343l-2.625 15.785157c4.898437.71875 9.84375 1.0625 14.792969 1.023437 21.464844.824219 42.425781-6.644531 58.527344-20.863281 16.101562 14.21875 37.0625 21.6875 58.527343 20.863281 4.949219.039063 9.894531-.304687 14.792969-1.023437zm0 0"/><path d="m0 335.996094 2.113281-15.859375 120.003907 16-2.113282 15.859375zm0 0"/><path d="m0 376.140625 120-16.019531 2.117188 15.859375-120 16.019531zm0 0"/><path d="m21.691406 432.785156 104.011719-47.980468 6.703125 14.53125-104.011719 47.976562zm0 0"/><path d="m344 336.140625 120-16.023437 2.117188 15.859374-119.996094 16.023438zm0 0"/><path d="m344.003906 375.996094 2.113282-15.859375 120.003906 16-2.113282 15.859375zm0 0"/><path d="m333.703125 399.324219 6.703125-14.527344 104.003906 48-6.707031 14.527344zm0 0"/></g><path d="m257.054688 336.058594c0 13.257812-10.746094 24-24 24-13.253907 0-24-10.742188-24-24 0-13.253906 10.746093-24 24-24 13.253906 0 24 10.746094 24 24zm0 0" fill="#c12938"/></svg>