<svg height="480pt" viewBox="0 0 480 480" width="480pt" xmlns="http://www.w3.org/2000/svg"><path d="m24 8h432c8.835938 0 16 7.164062 16 16v336c0 8.835938-7.164062 16-16 16h-432c-8.835938 0-16-7.164062-16-16v-336c0-8.835938 7.164062-16 16-16zm0 0" fill="#b2e8f9"/><path d="m280 184c0 61.855469-50.144531 112-112 112s-112-50.144531-112-112 50.144531-112 112-112 112 50.144531 112 112zm0 0" fill="#aabece"/><path d="m8 344h464v16c0 8.835938-7.164062 16-16 16h-432c-8.835938 0-16-7.164062-16-16zm0 0" fill="#7d8d9c"/><path d="m288 440h-96l16-64h64zm0 0" fill="#aabece"/><path d="m440 456c0 8.835938-7.164062 16-16 16h-368c-8.835938 0-16-7.164062-16-16s7.164062-16 16-16h368c8.835938 0 16 7.164062 16 16zm0 0" fill="#7d8d9c"/><path d="m218.910156 184h61.089844c.019531-19.664062-5.164062-38.984375-15.023438-56h-52.898437c4.648437 18.300781 6.941406 37.117188 6.832031 56zm0 0" fill="#aabece"/><path d="m123.921875 128h-52.898437c-9.859376 17.015625-15.042969 36.335938-15.023438 56h61.089844c-.109375-18.882812 2.183594-37.699219 6.832031-56zm0 0" fill="#aabece"/><path d="m218.910156 184c.109375-18.882812-2.183594-37.699219-6.832031-56h-88.15625c-4.648437 18.300781-6.941406 37.117188-6.832031 56zm0 0" fill="#7d8d9c"/><path d="m71.023438 128h52.898437c8.796875-33.464844 25.238281-56 44.078125-56-40.011719-.007812-76.984375 21.34375-96.976562 56zm0 0" fill="#7d8d9c"/><path d="m212.078125 128h52.898437c-19.992187-34.65625-56.964843-56.007812-96.976562-56 18.839844 0 35.28125 22.535156 44.078125 56zm0 0" fill="#7d8d9c"/><path d="m123.921875 128h88.15625c-8.796875-33.464844-25.238281-56-44.078125-56s-35.28125 22.535156-44.078125 56zm0 0" fill="#aabece"/><path d="m212.078125 240h52.898437c9.859376-17.015625 15.042969-36.335938 15.023438-56h-61.089844c.109375 18.882812-2.183594 37.699219-6.832031 56zm0 0" fill="#7d8d9c"/><path d="m56 184c-.019531 19.664062 5.164062 38.984375 15.023438 56h52.898437c-4.648437-18.300781-6.941406-37.117188-6.832031-56zm0 0" fill="#7d8d9c"/><path d="m117.089844 184c-.109375 18.882812 2.183594 37.699219 6.832031 56h88.15625c4.648437-18.300781 6.941406-37.117188 6.832031-56zm0 0" fill="#aabece"/><path d="m264.976562 240h-52.898437c-8.796875 33.464844-25.238281 56-44.078125 56 40.011719.007812 76.984375-21.34375 96.976562-56zm0 0" fill="#aabece"/><path d="m123.921875 240h-52.898437c19.992187 34.65625 56.964843 56.007812 96.976562 56-18.839844 0-35.28125-22.535156-44.078125-56zm0 0" fill="#aabece"/><path d="m212.078125 240h-88.15625c8.796875 33.464844 25.238281 56 44.078125 56s35.28125-22.535156 44.078125-56zm0 0" fill="#7d8d9c"/><path d="m387.3125 232h12.6875c4.417969 0 8-3.582031 8-8s-3.582031-8-8-8h-32c-4.417969 0-8 3.582031-8 8v32c0 4.417969 3.582031 8 8 8s8-3.582031 8-8v-12.6875l18.34375 18.34375c3.140625 3.03125 8.128906 2.988281 11.214844-.097656 3.085937-3.085938 3.128906-8.074219.097656-11.214844zm0 0" fill="#dd3e46"/><g fill="#2d75bb"><path d="m40 80c-4.417969 0-8-3.582031-8-8v-16c0-13.253906 10.746094-24 24-24h16c4.417969 0 8 3.582031 8 8s-3.582031 8-8 8h-16c-4.417969 0-8 3.582031-8 8v16c0 4.417969-3.582031 8-8 8zm0 0"/><path d="m128 48h-24c-4.417969 0-8-3.582031-8-8s3.582031-8 8-8h24c4.417969 0 8 3.582031 8 8s-3.582031 8-8 8zm0 0"/><path d="m424 320h-16c-4.417969 0-8-3.582031-8-8s3.582031-8 8-8h16c4.417969 0 8-3.582031 8-8v-16c0-4.417969 3.582031-8 8-8s8 3.582031 8 8v16c0 13.253906-10.746094 24-24 24zm0 0"/><path d="m376 320h-24c-4.417969 0-8-3.582031-8-8s3.582031-8 8-8h24c4.417969 0 8 3.582031 8 8s-3.582031 8-8 8zm0 0"/></g><path d="m264 128h144c8.835938 0 16 7.164062 16 16v32c0 8.835938-7.164062 16-16 16h-144c-8.835938 0-16-7.164062-16-16v-32c0-8.835938 7.164062-16 16-16zm0 0" fill="#fff"/><path d="m304 152h16v16h-16zm0 0" fill="#2d75bb"/><path d="m336 152h16v16h-16zm0 0" fill="#2d75bb"/><path d="m368 152h16v16h-16zm0 0" fill="#2d75bb"/><path d="m456 0h-432c-13.253906 0-24 10.746094-24 24v336c0 13.253906 10.746094 24 24 24h173.753906l-12 48h-129.753906c-13.253906 0-24 10.746094-24 24s10.746094 24 24 24h368c13.253906 0 24-10.746094 24-24s-10.746094-24-24-24h-129.753906l-12-48h173.753906c13.253906 0 24-10.746094 24-24v-336c0-13.253906-10.746094-24-24-24zm-432 16h432c4.417969 0 8 3.582031 8 8v312h-448v-312c0-4.417969 3.582031-8 8-8zm408 440c0 4.417969-3.582031 8-8 8h-368c-4.417969 0-8-3.582031-8-8s3.582031-8 8-8h368c4.417969 0 8 3.582031 8 8zm-154.246094-24h-75.507812l12-48h51.507812zm186.246094-72c0 4.417969-3.582031 8-8 8h-432c-4.417969 0-8-3.582031-8-8v-8h448zm0 0"/><path d="m83.046875 99.34375c-2.398437 2.398438-4.703125 4.976562-6.917969 7.609375l-1.296875 1.597656c-3.980469 4.859375-7.570312 10.023438-10.734375 15.449219-.386718.664062-.722656 1.359375-1.089844 2.03125-.367187.671875-.703124 1.304688-1.054687 1.960938-1.433594 2.71875-2.777344 5.472656-4 8.289062-.210937.480469-.441406.933594-.648437 1.421875-1.289063 3.074219-2.402344 6.207031-3.441407 9.386719-.328125 1.007812-.625 2.023437-.917969 3.039062-.796874 2.664063-1.492187 5.363282-2.089843 8.09375-.160157.714844-.351563 1.410156-.496094 2.121094-.671875 3.328125-1.160156 6.695312-1.542969 10.082031-.105468.933594-.191406 1.878907-.28125 2.820313-.3125 3.554687-.535156 7.152344-.535156 10.753906s.222656 7.199219.542969 10.761719c.089843.941406.175781 1.886719.28125 2.824219.382812 3.382812.871093 6.75 1.542969 10.078124.144531.710938.335937 1.40625.496093 2.121094.597657 2.71875 1.292969 5.417969 2.089844 8.09375.292969 1.015625.589844 2.03125.917969 3.042969 1.023437 3.199219 2.152344 6.308594 3.441406 9.382813.207031.488281.441406.941406.648438 1.421874 1.214843 2.816407 2.558593 5.601563 4 8.289063.351562.65625.695312 1.3125 1.054687 1.960937.359375.648438.703125 1.367188 1.089844 2.03125 3.164062 5.433594 6.753906 10.605469 10.734375 15.472657l1.296875 1.597656c2.214843 2.632813 4.503906 5.195313 6.917969 7.609375l.175781.191406c2.402343 2.402344 4.859375 4.585938 7.402343 6.730469.847657.710937 1.703126 1.398437 2.566407 2.09375 1.890625 1.503906 3.816406 2.949219 5.785156 4.328125 1.167969.800781 2.328125 1.601562 3.519531 2.402344 2.132813 1.394531 4.324219 2.730468 6.574219 4 1.394531.796875 2.800781 1.527344 4.234375 2.261718 1.597656.800782 3.199219 1.601563 4.800781 2.304688 2.0625.945312 4.144531 1.839844 6.269531 2.671875 1.984376.800781 4 1.527344 6 2.199219 1.480469.496094 2.96875.945312 4.472657 1.375 2.144531.617187 4.3125 1.167968 6.496093 1.675781 1.191407.269531 2.402344.574219 3.585938.796875 3.085938.609375 6.207031 1.066406 9.359375 1.433594 1.015625.113281 2.03125.214844 3.054687.304687 3.535157.320313 7.097657.542969 10.6875.542969 3.441407 0 6.847657-.199219 10.242188-.496094.878906-.078125 1.757812-.167968 2.628906-.265625 3.027344-.328125 6.035156-.757812 9-1.308593.335938-.066407.683594-.105469 1.011719-.175782 3.460937-.675781 6.878906-1.53125 10.253906-2.507812l.96875-.300782c29.402344-8.765624 54.351563-28.414062 69.757813-54.945312.921875-1.601562 1.601562-3.246094 2.472656-4.863281.5625-1.066407 1.113281-2.128907 1.640625-3.199219 1.105469-2.289062 2.144531-4.59375 3.097656-6.9375.628907-1.535156 1.191407-3.113281 1.757813-4.679688.753906-2.089843 1.503906-4.160156 2.128906-6.28125.625-2.117187 1.152344-4.351562 1.671875-6.550781.390625-1.664062.855469-3.296875 1.167969-4.96875.417968-2.144531.664062-4.335937.960937-6.519531h121.199219c13.253906 0 24-10.746094 24-24v-32c0-13.253906-10.746094-24-24-24h-138.550781c-22.023438-34.777344-60.285157-55.898438-101.449219-56-3.59375 0-7.152344.222656-10.6875.542969-1.023438.089843-2.039062.191406-3.054688.304687-3.152343.367188-6.273437.800782-9.363281 1.433594-1.207031.238281-2.398437.542969-3.582031.796875-2.183594.507813-4.351562 1.058594-6.496094 1.675781-1.503906.429688-2.992187.878906-4.472656 1.375-2.023438.671875-4 1.421875-6 2.199219-2.128906.800781-4.207031 1.726563-6.273438 2.671875-1.597656.742188-3.199218 1.496094-4.796874 2.304688-1.433594.734374-2.839844 1.480468-4.234376 2.261718-2.238281 1.265625-4.429687 2.597656-6.574218 4-1.191406.800782-2.351563 1.601563-3.519532 2.402344-1.96875 1.378906-3.898437 2.824219-5.785156 4.328125-.863281.695313-1.71875 1.382813-2.566406 2.09375-2.546875 2.144531-5.035156 4.371094-7.402344 6.730469zm5.679687 17.496094c1.5-1.769532 3.054688-3.480469 4.664063-5.128906.59375-.613282 1.167969-1.238282 1.777344-1.832032 2.0625-2.023437 4.191406-4 6.398437-5.824218.664063-.550782 1.371094-1.054688 2.050782-1.597657 1.597656-1.25 3.199218-2.457031 4.796874-3.609375 1.152344-.808594 2.320313-1.589844 3.507813-2.335937 1.238281-.800781 2.503906-1.550781 3.773437-2.296875 1.273438-.742188 2.632813-1.550782 4-2.261719 1.601563-.855469 3.289063-1.601563 4.960938-2.402344 2.039062-.933593 4.121094-1.808593 6.214844-2.613281.800781-.304688 1.601562-.601562 2.402344-.890625-.195313.273437-.363282.601563-.546876.882813-1.117187 1.667968-2.207031 3.417968-3.261718 5.253906-.28125.488281-.5625.945312-.800782 1.441406-1.25 2.253906-2.445312 4.625-3.59375 7.109375-.246093.523437-.476562 1.082031-.71875 1.601563-.945312 2.128906-1.855468 4.34375-2.734374 6.632812-.25.640625-.496094 1.269531-.738282 1.925781-1.023437 2.785157-2 5.671875-2.902344 8.679688 0 .128906-.097656.25-.136718.386719h-31.648438c.359375-.457032.679688-.9375 1.039063-1.394532.488281-.558594 1-1.140625 1.496093-1.726562zm115.394532-30.265625c1.597656.59375 3.199218 1.210937 4.800781 1.890625.664063.277344 1.308594.597656 1.964844.894531 1.519531.6875 3.035156 1.402344 4.511719 2.160156.648437.335938 1.289062.6875 1.929687 1.03125 1.472656.789063 2.925781 1.617188 4.359375 2.480469.601562.359375 1.199219.738281 1.792969 1.113281 1.457031.917969 2.878906 1.863281 4.289062 2.855469l1.597657 1.136719c1.449218 1.054687 2.871093 2.160156 4.265624 3.296875.445313.359375.902344.71875 1.34375 1.085937 1.472657 1.242188 2.902344 2.527344 4.3125 3.847657.328126.304687.664063.609374.984376.921874 1.597656 1.503907 3.078124 3.0625 4.550781 4.671876.144531.152343.289062.296874.421875.445312 1.601562 1.808594 3.203125 3.664062 4.714844 5.601562h-31.816407c0-.136718-.097656-.253906-.136719-.382812-.902343-3.007812-1.878906-5.898438-2.902343-8.679688-.242188-.65625-.488281-1.289062-.738281-1.929687-.878907-2.289063-1.792969-4.503906-2.734376-6.632813-.242187-.535156-.472656-1.09375-.722656-1.597656-1.144531-2.488281-2.34375-4.855468-3.589844-7.113281-.273437-.496094-.550781-.953125-.800781-1.441406-1.066406-1.828125-2.152343-3.578125-3.261719-5.253907-.203124-.304687-.378906-.648437-.578124-.9375.464843.152344.945312.359376 1.441406.535157zm1.6875 194.226562c-1 .398438-2.046875.695313-3.066406 1.0625.167968-.238281.320312-.527343.480468-.800781 1.121094-1.671875 2.210938-3.429688 3.265625-5.261719.28125-.480469.558594-.9375.800781-1.433593 1.246094-2.246094 2.445313-4.613282 3.589844-7.109376.25-.523437.480469-1.082031.722656-1.601562.941407-2.136719 1.863282-4.34375 2.734376-6.640625.25-.640625.496093-1.261719.734374-1.917969 1.027344-2.785156 2-5.671875 2.90625-8.683594 0-.125.09375-.246093.136719-.382812h31.519531c-11.347656 14.402344-26.246093 25.601562-43.234374 32.496094zm-81.136719-2.402343c-1.671875-.796876-3.335937-1.535157-4.960937-2.398438-1.34375-.710938-2.65625-1.496094-4-2.265625-1.34375-.765625-2.535157-1.496094-3.773438-2.292969-1.242188-.800781-2.351562-1.53125-3.503906-2.335937-1.648438-1.152344-3.25-2.402344-4.800782-3.609375-.679687-.527344-1.386718-1.03125-2.046874-1.601563-2.226563-1.847656-4.355469-3.796875-6.402344-5.824219-.609375-.589843-1.183594-1.214843-1.777344-1.832031-1.597656-1.65625-3.152344-3.367187-4.664062-5.125-.496094-.585937-1.007813-1.167969-1.496094-1.769531-.359375-.457031-.679688-.9375-1.039063-1.390625h31.664063c0 .136719.097656.253906.136718.382813.902344 3.007812 1.878907 5.894531 2.902344 8.679687.242188.65625.488282 1.28125.738282 1.921875.871093 2.292969 1.792968 4.503906 2.734374 6.636719.242188.539062.472657 1.097656.722657 1.601562 1.144531 2.484375 2.34375 4.855469 3.589843 7.113281.273438.496094.550782.949219.800782 1.429688 1.066406 1.839844 2.15625 3.597656 3.265625 5.265625.183593.28125.351562.609375.542969.878906-.800782-.289062-1.601563-.582031-2.402344-.886719-2.101563-.746093-4.191406-1.617187-6.230469-2.578124zm-50.464844-49.796876c-.839843-1.746093-1.6875-3.488281-2.398437-5.273437-.535156-1.3125-.984375-2.671875-1.472656-4-.695313-1.921875-1.398438-3.847656-1.976563-5.808594-.398437-1.34375-.710937-2.71875-1.054687-4.085937-.496094-1.976563-1-4-1.382813-5.960938-.289063-1.511718-.480469-3.046875-.707031-4.585937-.269532-1.878907-.550782-3.757813-.71875-5.65625 0-.40625 0-.796875-.0625-1.246094h44.796875c0 .902344.160156 1.785156.195312 2.6875.222657 5.136719.59375 10.203125 1.109375 15.199219.113282 1.066406.167969 2.136718.296875 3.199218.695313 5.953126 1.648438 11.738282 2.769531 17.378907.101563.488281.140626 1.023437.246094 1.511719h-38c-.589844-1.066407-1.105468-2.207032-1.640625-3.335938zm56.113281 3.398438c-.351562-1.542969-.726562-3.0625-1.039062-4.640625-.21875-1.0625-.449219-2.121094-.640625-3.199219-.710937-3.902344-1.34375-7.878906-1.839844-11.9375-.058593-.453125-.089843-.925781-.144531-1.390625-.425781-3.640625-.753906-7.34375-1-11.070312-.082031-1.234375-.144531-2.472657-.207031-3.714844-.066407-1.238281-.074219-2.695313-.121094-4h85.34375c-.046875 1.34375-.054687 2.707031-.121094 4-.0625 1.296875-.125 2.472656-.207031 3.707031-.246094 3.703125-.574219 7.382813-.992188 11.007813-.0625.484375-.09375.980469-.152343 1.460937-.496094 4.058594-1.128907 8-1.839844 11.921875-.191406 1.085938-.421875 2.144531-.632813 3.199219-.320312 1.601562-.695312 3.105469-1.046874 4.648438zm75.359376-96c.351562 1.542969.726562 3.0625 1.046874 4.648438.210938 1.070312.441407 2.128906.632813 3.199218.710937 3.894532 1.34375 7.863282 1.839844 11.921875.058593.476563.089843.972657.152343 1.460938.417969 3.625.746094 7.304687.992188 11.007812.082031 1.234375.144531 2.464844.207031 3.707031.066407 1.238282.074219 2.695313.121094 4h-85.34375c.046875-1.34375.054687-2.707031.121094-4 .0625-1.296874.125-2.480468.207031-3.714843.246094-3.726563.574219-7.429688 1-11.070313.054688-.464844.085938-.9375.144531-1.390625.496094-4.058593 1.128907-8 1.839844-11.9375.191406-1.089843.421875-2.144531.640625-3.199219.3125-1.601562.6875-3.097656 1.039062-4.640624zm-92.078126 1.511719c-1.121093 5.601562-2.074218 11.425781-2.769531 17.375-.128906 1.058593-.183593 2.128906-.296875 3.203125-.53125 5.011718-.902344 10.078125-1.109375 15.199218 0 .902344-.167969 1.78125-.195312 2.6875h-44.796875c0-.417968 0-.839843.0625-1.25.167968-1.894531.449218-3.773437.71875-5.65625.226562-1.535156.417968-3.070312.707031-4.582031.382813-2 .886719-4 1.382813-5.960937.34375-1.367188.65625-2.742188 1.054687-4.085938.578125-1.960937 1.28125-3.890625 1.976563-5.808594.488281-1.335937.9375-2.695312 1.472656-4 .734375-1.785156 1.597656-3.527343 2.398437-5.273437.535157-1.128906 1.050781-2.269531 1.601563-3.375h38c-.082032.503906-.121094 1.039063-.207032 1.527344zm50.117188 149.839843c-.191406-.054687-.382812-.085937-.582031-.152343-1.394531-.460938-2.738281-1.066407-4-1.816407-.25-.144531-.496094-.277343-.738281-.429687-1.386719-.867187-2.707032-1.847656-3.933594-2.929687l-.648438-.597657c-1.398437-1.285156-2.710937-2.65625-3.929687-4.113281-.09375-.113281-.191407-.25-.277344-.359375-1.324219-1.621094-2.558594-3.3125-3.699219-5.066406-.140625-.214844-.285156-.40625-.429687-.628907-1.183594-1.851562-2.335938-3.875-3.464844-5.992187-.199219-.394531-.40625-.800781-.617187-1.175781-1.066407-2.136719-2.109376-4.378906-3.125-6.730469-.195313-.457031-.386719-.917969-.570313-1.375-1.007813-2.449219-1.976563-4.992187-2.878906-7.671875l-.160157-.3125h66.671876l-.105469.3125c-.902344 2.679688-1.871094 5.222656-2.878907 7.671875-.183593.457031-.375.917969-.566406 1.375-1 2.363281-2.042968 4.605469-3.128906 6.730469-.207031.398437-.417969.796875-.617188 1.175781-1.128906 2.117187-2.277343 4.140625-3.464843 5.992187-.140625.222657-.285157.414063-.429688.628907-1.140625 1.753906-2.375 3.445312-3.695312 5.066406-.089844.109375-.183594.246094-.28125.359375-1.21875 1.457031-2.53125 2.828125-3.929688 4.113281l-.644531.597657c-1.230469 1.082031-2.546875 2.0625-3.9375 2.929687-.242188.152344-.488281.285156-.734375.429687-1.265625.75-2.605469 1.355469-4 1.816407-.203125.066406-.394531.097656-.585937.152343-2.796876.863282-5.792969.863282-8.59375 0zm106.554688-84.457031c-.5625 3.035157-1.273438 6-2.097657 8.929688-.046875.191406-.078125.390625-.136719.582031-1.984374 6.789062-4.664062 13.355469-8 19.59375h-37.871093c.097656-.480469.144531-1 .238281-1.480469 1.128906-5.65625 2.074219-11.457031 2.777344-17.40625.128906-1.066406.183594-2.144531.296875-3.203125.53125-5.015625.902343-10.082031 1.113281-15.199218 0-.902344.167969-1.78125.191406-2.6875h19.453125c4.519531 5.0625 10.976563 7.960937 17.761719 7.976562h6.671875c-.152344.960938-.222656 1.945312-.398437 2.894531zm-30.273438-58.894531v32h-13.214844c0-.902344-.160156-1.785156-.191406-2.6875-.226562-5.132812-.597656-10.199219-1.113281-15.199219-.113281-1.066406-.167969-2.144531-.296875-3.203125-.703125-5.949218-1.648438-11.75-2.777344-17.40625-.09375-.480468-.140625-1-.238281-1.480468h19.304687c-.945312 2.554687-1.445312 5.253906-1.472656 7.976562zm-67.703125-63.351562c.191406.054687.382813.085937.582031.152343 1.394532.460938 2.738282 1.066407 4 1.816407.25.144531.496094.277343.738282.429687 1.390624.867187 2.707031 1.847656 3.933593 2.929687l.648438.597657c1.398437 1.285156 2.710937 2.65625 3.929687 4.113281.09375.113281.191406.25.277344.359375 1.324219 1.621094 2.558594 3.3125 3.699219 5.066406.140625.214844.285156.40625.429687.628907 1.183594 1.851562 2.335938 3.875 3.464844 5.992187.199219.394531.40625.800781.617188 1.175781 1.066406 2.136719 2.109374 4.378906 3.125 6.730469.195312.457031.386718.917969.570312 1.375 1.007812 2.449219 1.976562 4.992187 2.878906 7.671875l.105469.3125h-66.632813l.105469-.3125c.902344-2.679688 1.871094-5.222656 2.878907-7.671875.183593-.457031.375-.917969.566406-1.375 1.003906-2.363281 2.046875-4.605469 3.128906-6.730469.207031-.398437.417969-.796875.617188-1.175781 1.128906-2.117187 2.277343-4.140625 3.464843-5.992187.140625-.222657.285157-.414063.429688-.628907 1.140625-1.753906 2.375-3.445312 3.695312-5.066406.089844-.109375.183594-.246094.28125-.359375 1.21875-1.457031 2.53125-2.828125 3.929688-4.113281l.644531-.597657c1.230469-1.082031 2.546875-2.0625 3.9375-2.929687.242188-.152344.488281-.285156.734375-.429687 1.265625-.75 2.605469-1.355469 4-1.816407.203125-.066406.394531-.097656.585937-.152343 2.796876-.863282 5.792969-.863282 8.59375 0zm243.703125 63.351562v32c0 4.417969-3.582031 8-8 8h-144c-4.417969 0-8-3.582031-8-8v-32c0-4.417969 3.582031-8 8-8h144c4.417969 0 8 3.582031 8 8zm0 0"/><path d="m405.65625 261.65625c3.121094-3.125 3.121094-8.1875 0-11.3125l-18.34375-18.34375h12.6875c4.417969 0 8-3.582031 8-8s-3.582031-8-8-8h-32c-4.417969 0-8 3.582031-8 8v32c0 4.417969 3.582031 8 8 8s8-3.582031 8-8v-12.6875l18.34375 18.34375c3.125 3.121094 8.1875 3.121094 11.3125 0zm0 0"/><path d="m304 152h16v16h-16zm0 0"/><path d="m336 152h16v16h-16zm0 0"/><path d="m368 152h16v16h-16zm0 0"/><path d="m40 80c4.417969 0 8-3.582031 8-8v-16c0-4.417969 3.582031-8 8-8h16c4.417969 0 8-3.582031 8-8s-3.582031-8-8-8h-16c-13.253906 0-24 10.746094-24 24v16c0 4.417969 3.582031 8 8 8zm0 0"/><path d="m104 48h24c4.417969 0 8-3.582031 8-8s-3.582031-8-8-8h-24c-4.417969 0-8 3.582031-8 8s3.582031 8 8 8zm0 0"/><path d="m432 296c0 4.417969-3.582031 8-8 8h-16c-4.417969 0-8 3.582031-8 8s3.582031 8 8 8h16c13.253906 0 24-10.746094 24-24v-16c0-4.417969-3.582031-8-8-8s-8 3.582031-8 8zm0 0"/><path d="m376 304h-24c-4.417969 0-8 3.582031-8 8s3.582031 8 8 8h24c4.417969 0 8-3.582031 8-8s-3.582031-8-8-8zm0 0"/></svg>