<svg height="385.02pt" viewBox="0 0 385.02 385.02" width="385.02pt" xmlns="http://www.w3.org/2000/svg"><path d="m75.15625 309.84375c-5.585938-5.589844-5.007812-24.8125 6.503906-52.238281-8.554687-2.464844-16.96875-5.386719-25.207031-8.753907-14.46875 34.855469-15.636719 64.199219-.070313 79.765626 15.5625 15.5625 44.90625 14.394531 79.761719-.070313-3.367187-8.242187-6.289062-16.65625-8.753906-25.207031-27.421875 11.511718-46.648437 12.089844-52.234375 6.503906zm0 0" fill="#d9176c"/><path d="m88.398438 192.5c-7.378907 10.382812-14.160157 21.183594-20.3125 32.339844 8.347656 3.363281 16.882812 6.238281 25.566406 8.605468 3.398437-6.011718 7.320312-12.289062 11.648437-18.753906-6.042969-7.40625-11.675781-14.804687-16.902343-22.191406zm0 0" fill="#d9176c"/><path d="m224.839844 316.914062c-11.257813 27.53125-24.4375 41.535157-32.339844 41.535157s-21.085938-14.003907-32.339844-41.535157c-3.363281-8.347656-6.238281-16.882812-8.605468-25.566406-1.84375-6.652344-3.511719-13.867187-5.019532-21.496094-9.511718-.964843-18.75-2.214843-27.644531-3.742187 2.125 12.5625 4.964844 24.992187 8.503906 37.230469 2.464844 8.554687 5.386719 16.96875 8.753907 25.207031 14.414062 34.875 34.339843 56.453125 56.351562 56.453125 22.007812 0 41.933594-21.578125 56.351562-56.453125-8.207031-3.445313-16.222656-7.332031-24.011718-11.632813zm0 0" fill="#2d75bb"/><path d="m266.109375 118.890625c-2.125-12.5625-4.964844-24.992187-8.503906-37.230469-8.28125 3.519532-16.347657 7.527344-24.160157 11.992188 1.84375 6.652344 3.511719 13.867187 5.019532 21.496094 9.511718.964843 18.746094 2.214843 27.644531 3.742187zm0 0" fill="#2d75bb"/><g fill="#36afad"><path d="m328.546875 248.851562c-8.242187 3.367188-16.65625 6.289063-25.207031 8.753907 11.511718 27.425781 12.089844 46.648437 6.503906 52.238281-5.589844 5.585938-24.8125 5.007812-52.238281-6.503906-8.28125-3.523438-16.347657-7.527344-24.160157-11.992188-6.011718-3.402344-12.289062-7.324218-18.753906-11.648437-7.40625 6.042969-14.804687 11.675781-22.191406 16.902343 10.382812 7.378907 21.179688 14.160157 32.339844 20.3125 7.789062 4.304688 15.804687 8.1875 24.011718 11.632813 34.855469 14.464844 64.203126 15.632813 79.765626.070313s14.394531-44.910157-.070313-79.765626zm0 0"/><path d="m192.5 88.398438c-10.386719-7.378907-21.183594-14.160157-32.339844-20.3125-3.363281 8.347656-6.238281 16.882812-8.605468 25.566406 6.007812 3.398437 12.289062 7.320312 18.75 11.648437 7.410156-6.042969 14.808593-11.675781 22.195312-16.902343zm0 0"/><path d="m279.699219 214.691406c4.324219 6.460938 8.246093 12.742188 11.648437 18.75 8.683594-2.367187 17.21875-5.238281 25.5625-8.601562-6.148437-11.160156-12.929687-21.957032-20.3125-32.34375-5.210937 7.371094-10.84375 14.769531-16.898437 22.195312zm0 0"/><path d="m225.015625 114c-3.433594-2.984375-6.878906-5.882812-10.324219-8.699219-3.59375 2.40625-7.25 4.980469-10.964844 7.6875 7.210938.171875 14.308594.511719 21.289063 1.011719zm0 0"/><path d="m159.984375 271c3.433594 2.984375 6.875 5.882812 10.320313 8.699219 3.59375-2.40625 7.25-4.980469 10.96875-7.691407-7.214844-.171874-14.308594-.507812-21.289063-1.007812zm0 0"/><path d="m127.394531 81.660156c2.464844-8.554687 5.386719-16.96875 8.753907-25.207031-34.855469-14.46875-64.203126-15.632813-79.765626-.070313s-14.398437 44.910157.070313 79.765626c3.445313 8.203124 7.328125 16.222656 11.632813 24.011718 6.152343 11.15625 12.933593 21.953125 20.3125 32.339844 5.214843 7.367188 10.847656 14.765625 16.902343 22.191406 2.8125 3.445313 5.710938 6.886719 8.699219 10.324219-.492188-6.980469-.828125-14.074219-1.007812-21.289063-.089844-3.71875-.144532-7.457031-.144532-11.226562s.054688-7.507812.144532-11.226562c-2.707032-3.714844-5.285157-7.375-7.691407-10.964844-4.324219-6.464844-8.246093-12.742188-11.648437-18.753906-4.464844-7.8125-8.46875-15.878907-11.992188-24.160157-11.511718-27.429687-12.089844-46.652343-6.503906-52.238281s24.8125-5.007812 52.238281 6.503906zm0 0"/><path d="m139.9375 214.269531c.476562 10.019531 1.308594 19.4375 2.363281 28.425781 8.992188 1.058594 18.410157 1.890626 28.425781 2.363282-5.199218-4.730469-10.453124-9.6875-15.777343-15.007813-5.320313-5.324219-10.277344-10.578125-15.011719-15.78125zm0 0"/><path d="m245.058594 170.726562c-.472656-10.015624-1.304688-19.433593-2.363282-28.425781-8.988281-1.054687-18.40625-1.886719-28.425781-2.363281 5.203125 4.734375 10.457031 9.691406 15.78125 15.011719 5.320313 5.324219 10.277344 10.578125 15.007813 15.777343zm0 0"/></g><path d="m238.464844 269.851562c-1.511719 7.628907-3.179688 14.839844-5.023438 21.496094 7.816406 4.464844 15.882813 8.46875 24.164063 11.992188 3.539062-12.238282 6.378906-24.667969 8.503906-37.230469-8.898437 1.523437-18.132813 2.777344-27.644531 3.742187zm0 0" fill="#2d75bb"/><path d="m118.890625 118.890625c-12.5625 2.125-24.992187 4.964844-37.230469 8.503906 3.519532 8.28125 7.527344 16.347657 11.992188 24.160157 6.652344-1.84375 13.867187-3.511719 21.496094-5.019532.964843-9.511718 2.214843-18.75 3.742187-27.644531zm0 0" fill="#fdbd40"/><path d="m269.851562 238.464844c.449219-4.425782.832032-8.90625 1.148438-13.449219-4.585938 5.28125-9.367188 10.539063-14.339844 15.765625 4.542969-.710938 8.9375-1.484375 13.191406-2.316406zm0 0" fill="#2d75bb"/><path d="m203.726562 272.007812c-3.71875.089844-7.457031.144532-11.226562.144532-3.773438 0-7.507812-.054688-11.226562-.144532-3.714844 2.707032-7.375 5.285157-10.96875 7.691407-6.460938 4.324219-12.742188 8.246093-18.75 11.648437 2.367187 8.683594 5.242187 17.21875 8.605468 25.566406 11.15625-6.152343 21.953125-12.933593 32.339844-20.3125 7.367188-5.214843 14.765625-10.847656 22.191406-16.902343 3.445313-2.8125 6.886719-5.710938 10.324219-8.699219-6.980469.492188-14.074219.828125-21.289063 1.007812zm0 0" fill="#d9176c"/><path d="m114 159.984375c-2.984375 3.433594-5.882812 6.875-8.699219 10.320313 2.40625 3.59375 4.980469 7.25 7.6875 10.96875.171875-7.214844.511719-14.308594 1.011719-21.289063zm0 0" fill="#d9176c"/><path d="m170.726562 139.9375c-10.015624.476562-19.433593 1.308594-28.425781 2.363281-1.054687 8.992188-1.886719 18.410157-2.363281 28.425781 4.734375-5.203124 9.691406-10.453124 15.011719-15.777343 5.324219-5.324219 10.578125-10.277344 15.777343-15.011719zm0 0" fill="#d9176c"/><path d="m328.617188 56.382812c-15.5625-15.566406-44.910157-14.398437-79.765626.070313-8.207031 3.445313-16.222656 7.328125-24.011718 11.632813-11.160156 6.152343-21.957032 12.933593-32.339844 20.3125-7.371094 5.210937-14.769531 10.847656-22.195312 16.902343-3.445313 2.808594-6.886719 5.710938-10.320313 8.699219 6.976563-.492188 14.074219-.828125 21.289063-1.011719 3.71875-.085937 7.453124-.144531 11.226562-.144531 3.769531 0 7.507812.058594 11.226562.144531 3.714844-2.707031 7.371094-5.28125 10.964844-7.6875 6.460938-4.328125 12.742188-8.25 18.75-11.648437 7.816406-4.46875 15.882813-8.472656 24.164063-11.992188 27.425781-11.511718 46.648437-12.089844 52.234375-6.503906 5.589844 5.585938 5.007812 24.808594-6.5 52.234375-3.523438 8.28125-7.527344 16.351563-11.992188 24.164063-3.402344 6.007812-7.324218 12.289062-11.652344 18.75-2.40625 3.59375-4.980468 7.25-7.6875 10.96875-2.691406 3.691406-5.53125 7.433593-8.523437 11.222656-5.605469 7.105468-11.679687 14.355468-18.425781 21.773437-4.730469 5.203125-9.6875 10.457031-15.011719 15.777344s-10.574219 10.28125-15.777344 15.011719c10.015625-.476563 19.433594-1.308594 28.425781-2.363282 4.808594-.566406 9.449219-1.207031 13.960938-1.914062 4.980469-5.222656 9.761719-10.480469 14.339844-15.769531 2.984375-3.433594 5.882812-6.875 8.699218-10.320313 6.042969-7.40625 11.675782-14.804687 16.902344-22.195312 7.378906-10.382813 14.160156-21.179688 20.3125-32.335938 4.304688-7.792968 8.1875-15.808594 11.632813-24.015625 14.46875-34.855469 15.636719-64.199219.074219-79.761719zm0 0" fill="#d9176c"/><path d="m328.546875 136.148438c-3.445313 8.203124-7.332031 16.222656-11.636719 24.011718 27.535156 11.257813 41.535156 24.4375 41.535156 32.339844s-14 21.085938-41.535156 32.339844c-8.34375 3.363281-16.882812 6.238281-25.5625 8.605468-6.65625 1.84375-13.867187 3.511719-21.496094 5.019532-4.242187.839844-8.640624 1.613281-13.191406 2.320312-4.511718.707032-9.15625 1.347656-13.964844 1.914063-8.988281 1.054687-18.410156 1.886719-28.425781 2.363281-7.023437.332031-14.242187.542969-21.769531.542969s-14.75-.210938-21.773438-.542969c-10.015624-.476562-19.433593-1.308594-28.425781-2.363281-4.808593-.566407-9.449219-1.207031-13.960937-1.914063-4.542969-.714844-8.949219-1.480468-13.191406-2.320312-7.628907-1.507813-14.84375-3.179688-21.496094-5.019532-8.683594-2.367187-17.21875-5.242187-25.566406-8.605468-27.53125-11.253906-41.535157-24.4375-41.535157-32.339844s14.003907-21.082031 41.535157-32.339844c-4.304688-7.789062-8.1875-15.804687-11.632813-24.011718-34.875 14.414062-56.453125 34.339843-56.453125 56.351562s21.578125 41.933594 56.453125 56.351562c8.238281 3.367188 16.652344 6.289063 25.207031 8.753907 12.238282 3.539062 24.667969 6.378906 37.230469 8.503906 8.898437 1.523437 18.132813 2.777344 27.644531 3.742187 4.421875.449219 8.90625.832032 13.449219 1.148438 6.976563.492188 14.074219.828125 21.289063 1.007812 3.71875.089844 7.457031.144532 11.226562.144532s7.507812-.054688 11.226562-.144532c7.214844-.171874 14.308594-.507812 21.289063-1.007812 4.539063-.320312 9.023437-.703125 13.449219-1.148438 9.511718-.964843 18.746094-2.21875 27.644531-3.742187 12.5625-2.125 24.992187-4.964844 37.230469-8.503906 8.554687-2.464844 16.96875-5.386719 25.207031-8.753907 34.875-14.417968 56.453125-34.34375 56.453125-56.351562 0-22.011719-21.578125-41.9375-56.453125-56.351562zm0 0" fill="#fdbd40"/><path d="m266.109375 118.890625c-8.898437-1.527344-18.132813-2.777344-27.644531-3.742187-4.421875-.449219-8.90625-.832032-13.449219-1.148438-6.976563-.492188-14.074219-.828125-21.289063-1.011719-3.71875-.085937-7.457031-.144531-11.226562-.144531s-7.507812.058594-11.226562.144531c-7.214844.175781-14.308594.511719-21.289063 1.011719-4.539063.320312-9.023437.703125-13.449219 1.148438-.839844 4.242187-1.613281 8.640624-2.320312 13.191406-.707032 4.511718-1.347656 9.15625-1.914063 13.960937 8.992188-1.054687 18.410157-1.886719 28.425781-2.363281 7.027344-.332031 14.246094-.542969 21.773438-.542969s14.746094.210938 21.769531.542969c10.015625.476562 19.4375 1.308594 28.425781 2.363281 4.808594.566407 9.449219 1.207031 13.964844 1.914063 4.542969.714844 8.945313 1.480468 13.191406 2.320312 7.625 1.507813 14.839844 3.175782 21.496094 5.019532 4.464844-7.8125 8.46875-15.878907 11.992188-24.160157-12.238282-3.539062-24.667969-6.378906-37.230469-8.503906zm0 0" fill="#fdbd40"/><path d="m271 159.984375c-.320312-4.539063-.703125-9.023437-1.148438-13.449219-4.242187-.839844-8.648437-1.605468-13.191406-2.320312-4.511718-.707032-9.15625-1.347656-13.964844-1.914063 1.058594 8.992188 1.890626 18.410157 2.363282 28.425781.335937 7.023438.542968 14.246094.542968 21.773438s-.207031 14.746094-.542968 21.769531c6.75-7.417969 12.820312-14.667969 18.429687-21.769531 3-3.800781 5.839844-7.542969 8.519531-11.226562-.171874-7.214844-.507812-14.308594-1.007812-21.289063zm0 0" fill="#2d75bb"/><path d="m192.5 0c-22.011719 0-41.9375 21.578125-56.351562 56.453125-3.367188 8.238281-6.289063 16.652344-8.753907 25.207031-3.539062 12.238282-6.378906 24.667969-8.503906 37.230469-1.527344 8.894531-2.777344 18.132813-3.742187 27.644531-.449219 4.421875-.832032 8.90625-1.148438 13.449219-.492188 6.976563-.828125 14.074219-1.011719 21.289063-.085937 3.71875-.144531 7.453124-.144531 11.226562 0 3.769531.058594 7.507812.144531 11.226562.175781 7.210938.511719 14.308594 1.011719 21.289063.320312 4.539063.703125 9.019531 1.148438 13.449219 4.242187.839844 8.648437 1.605468 13.191406 2.316406 4.511718.710938 9.15625 1.347656 13.960937 1.914062-1.054687-8.988281-1.886719-18.40625-2.363281-28.425781-.332031-7.023437-.542969-14.242187-.542969-21.769531s.210938-14.746094.542969-21.773438c.476562-10.015624 1.308594-19.433593 2.363281-28.421874.566407-4.808594 1.207031-9.453126 1.914063-13.964844.714844-4.542969 1.488281-8.9375 2.320312-13.191406 1.507813-7.628907 3.179688-14.839844 5.019532-21.496094 2.367187-8.683594 5.242187-17.21875 8.605468-25.5625 11.253906-27.535156 24.4375-41.535156 32.339844-41.535156s21.085938 14 32.339844 41.535156c7.789062-4.304688 15.804687-8.191406 24.011718-11.636719-14.417968-34.875-34.339843-56.453125-56.351562-56.453125zm0 0" fill="#2d75bb"/><path d="m219.050781 192.5c0 14.664062-11.886719 26.550781-26.550781 26.550781s-26.550781-11.886719-26.550781-26.550781 11.886719-26.550781 26.550781-26.550781 26.550781 11.886719 26.550781 26.550781zm0 0" fill="#d9176c"/><path d="m272.007812 181.273438c2.707032-3.714844 5.285157-7.375 7.691407-10.96875-2.8125-3.445313-5.710938-6.886719-8.699219-10.320313.492188 6.976563.828125 14.074219 1.007812 21.289063zm0 0" fill="#36afad"/></svg>