<svg height="480pt" viewBox="0 0 480 480.00375" width="480pt" xmlns="http://www.w3.org/2000/svg"><path d="m8 8h464v384h-464zm0 0" fill="#ffd782"/><path d="m400.066406 40h-320.066406c0 22.089844-17.90625 40-40 40v240.664062c21.8125.03125 39.574219 17.527344 39.9375 39.335938h320.0625c0-22.089844 17.910156-40 40-40v-240.664062c-21.808594-.03125-39.570312-17.527344-39.933594-39.335938zm0 0" fill="#f4f4e6"/><path d="m376 472-32-40-32 40v-160h64zm0 0" fill="#195c85"/><g fill="#e97424"><path d="m304 96h-128c-4.417969 0-8-3.582031-8-8s3.582031-8 8-8h128c4.421875 0 8 3.582031 8 8s-3.578125 8-8 8zm0 0"/><path d="m384 128h-280c-4.417969 0-8-3.582031-8-8s3.582031-8 8-8h280c4.421875 0 8 3.582031 8 8s-3.578125 8-8 8zm0 0"/><path d="m200 160h-112c-4.417969 0-8-3.582031-8-8s3.582031-8 8-8h112c4.421875 0 8 3.582031 8 8s-3.578125 8-8 8zm0 0"/><path d="m248 160h-16c-4.417969 0-8-3.582031-8-8s3.582031-8 8-8h16c4.421875 0 8 3.582031 8 8s-3.578125 8-8 8zm0 0"/><path d="m360 160h-80c-4.417969 0-8-3.582031-8-8s3.582031-8 8-8h80c4.421875 0 8 3.582031 8 8s-3.578125 8-8 8zm0 0"/><path d="m264 192h-176c-4.417969 0-8-3.582031-8-8s3.582031-8 8-8h176c4.421875 0 8 3.582031 8 8s-3.578125 8-8 8zm0 0"/><path d="m136 224h-48c-4.417969 0-8-3.582031-8-8s3.582031-8 8-8h48c4.421875 0 8 3.582031 8 8s-3.578125 8-8 8zm0 0"/><path d="m256 224h-88c-4.417969 0-8-3.582031-8-8s3.582031-8 8-8h88c4.421875 0 8 3.582031 8 8s-3.578125 8-8 8zm0 0"/><path d="m240 296h-72c-4.417969 0-8-3.582031-8-8s3.582031-8 8-8h72c4.421875 0 8 3.582031 8 8s-3.578125 8-8 8zm0 0"/></g><path d="m416 264c0 39.765625-32.234375 72-72 72-39.761719 0-72-32.234375-72-72s32.238281-72 72-72c39.765625 0 72 32.234375 72 72zm0 0" fill="#dd3e46"/><path d="m384 264c0 22.089844-17.90625 40-40 40-22.089844 0-40-17.910156-40-40s17.910156-40 40-40c22.09375 0 40 17.910156 40 40zm0 0" fill="#f98c96"/><path d="m392 264c0-26.507812-21.488281-48-48-48-26.507812 0-48 21.492188-48 48s21.492188 48 48 48c26.5-.027344 47.976562-21.5 48-48zm-80 0c0-17.671875 14.328125-32 32-32 17.675781 0 32 14.328125 32 32s-14.324219 32-32 32c-17.671875 0-32-14.328125-32-32zm0 0"/><path d="m176 96h128c4.421875 0 8-3.582031 8-8s-3.578125-8-8-8h-128c-4.417969 0-8 3.582031-8 8s3.582031 8 8 8zm0 0"/><path d="m384 112h-280c-4.417969 0-8 3.582031-8 8s3.582031 8 8 8h280c4.421875 0 8-3.582031 8-8s-3.578125-8-8-8zm0 0"/><path d="m88 160h112c4.421875 0 8-3.582031 8-8s-3.578125-8-8-8h-112c-4.417969 0-8 3.582031-8 8s3.582031 8 8 8zm0 0"/><path d="m248 160c4.421875 0 8-3.582031 8-8s-3.578125-8-8-8h-16c-4.417969 0-8 3.582031-8 8s3.582031 8 8 8zm0 0"/><path d="m360 144h-80c-4.417969 0-8 3.582031-8 8s3.582031 8 8 8h80c4.421875 0 8-3.582031 8-8s-3.578125-8-8-8zm0 0"/><path d="m264 176h-176c-4.417969 0-8 3.582031-8 8s3.582031 8 8 8h176c4.421875 0 8-3.582031 8-8s-3.578125-8-8-8zm0 0"/><path d="m136 208h-48c-4.417969 0-8 3.582031-8 8s3.582031 8 8 8h48c4.421875 0 8-3.582031 8-8s-3.578125-8-8-8zm0 0"/><path d="m256 208h-88c-4.417969 0-8 3.582031-8 8s3.582031 8 8 8h88c4.421875 0 8-3.582031 8-8s-3.578125-8-8-8zm0 0"/><path d="m240 280h-72c-4.417969 0-8 3.582031-8 8s3.582031 8 8 8h72c4.421875 0 8-3.582031 8-8s-3.578125-8-8-8zm0 0"/><path d="m472 0h-464c-4.417969 0-8 3.582031-8 8v384c0 4.417969 3.582031 8 8 8h296v72c0 3.398438 2.144531 6.425781 5.351562 7.550781 3.207032 1.128907 6.777344.101563 8.898438-2.550781l25.75-32.199219 25.753906 32.191407c2.121094 2.652343 5.6875 3.675781 8.894532 2.554687 3.203124-1.125 5.351562-4.148437 5.351562-7.546875v-72h88c4.421875 0 8-3.582031 8-8v-384c0-4.417969-3.578125-8-8-8zm-192 264c0-35.347656 28.65625-64 64-64 35.347656 0 64 28.652344 64 64s-28.652344 64-64 64c-35.328125-.039062-63.957031-28.671875-64-64zm104 69.175781c31.359375-18.105469 46.648438-55.011719 37.277344-89.988281-9.371094-34.972656-41.066406-59.292969-77.277344-59.292969-36.207031 0-67.902344 24.320313-77.273438 59.292969-9.371093 34.976562 5.917969 71.882812 37.273438 89.988281v18.824219h-216.855469c-3.722656-19.78125-19.316406-35.179688-39.144531-38.65625v-226.007812c20.128906-3.441407 35.898438-19.207032 39.335938-39.335938h305.523437c3.722656 19.78125 19.316406 35.179688 39.140625 38.65625v226.007812c-20.125 3.441407-35.894531 19.207032-39.335938 39.335938h-8.664062zm-33.75 93.824219c-1.570312-1.8125-3.851562-2.851562-6.25-2.851562-2.394531 0-4.675781 1.039062-6.246094 2.851562l-17.753906 22.191406v-108.878906c15.625 4.917969 32.378906 4.917969 48 0v108.878906zm113.75-43h-80v-16h16c4.421875 0 8-3.582031 8-8 0-17.671875 14.328125-32 32-32 4.421875 0 8-3.582031 8-8v-240.664062c0-4.417969-3.578125-8-8-8-17.414062-.097657-31.578125-14.058594-31.925781-31.472657-.074219-4.363281-3.632813-7.863281-8-7.863281h-320.074219c-4.417969 0-8 3.582031-8 8 0 17.671875-14.324219 32-32 32-4.417969 0-8 3.582031-8 8v240.664062c0 4.417969 3.582031 8 8 8 17.417969.097657 31.582031 14.058594 31.929688 31.472657.074218 4.363281 3.632812 7.863281 8 7.863281h224.070312v16h-288v-368h448zm0 0"/></svg>