<svg height="480pt" viewBox="0 0 480 480" width="480pt" xmlns="http://www.w3.org/2000/svg"><path d="m24 8h432c8.835938 0 16 7.164062 16 16v304c0 8.835938-7.164062 16-16 16h-432c-8.835938 0-16-7.164062-16-16v-304c0-8.835938 7.164062-16 16-16zm0 0" fill="#b2e8f9"/><path d="m8 280h464v48c0 8.835938-7.164062 16-16 16h-432c-8.835938 0-16-7.164062-16-16zm0 0" fill="#7d8d9c"/><path d="m56 440h368v16c0 8.835938-7.164062 16-16 16h-336c-8.835938 0-16-7.164062-16-16zm0 0" fill="#7d8d9c"/><path d="m40 80c-4.417969 0-8-3.582031-8-8v-16c0-13.253906 10.746094-24 24-24h16c4.417969 0 8 3.582031 8 8s-3.582031 8-8 8h-16c-4.417969 0-8 3.582031-8 8v16c0 4.417969-3.582031 8-8 8zm0 0" fill="#2d75bb"/><path d="m128 48h-24c-4.417969 0-8-3.582031-8-8s3.582031-8 8-8h24c4.417969 0 8 3.582031 8 8s-3.582031 8-8 8zm0 0" fill="#2d75bb"/><path d="m328 216h96c8.835938 0 16 7.164062 16 16v224c0 8.835938-7.164062 16-16 16h-96c-8.835938 0-16-7.164062-16-16v-224c0-8.835938 7.164062-16 16-16zm0 0" fill="#7fcac9"/><path d="m312 440h128v16c0 8.835938-7.164062 16-16 16h-96c-8.835938 0-16-7.164062-16-16zm0 0" fill="#394d5c"/><path d="m400 256h-48c-4.417969 0-8-3.582031-8-8s3.582031-8 8-8h48c4.417969 0 8 3.582031 8 8s-3.582031 8-8 8zm0 0" fill="#394d5c"/><path d="m336.617188 331.054688c1.234374 2.992187 4.148437 4.941406 7.382812 4.945312h64c4.417969 0 8-3.582031 8-8s-3.582031-8-8-8h-44.6875l10.34375-10.34375c3.03125-3.140625 2.988281-8.128906-.097656-11.214844-3.085938-3.085937-8.074219-3.128906-11.214844-.097656l-24 24c-2.28125 2.289062-2.964844 5.726562-1.726562 8.710938zm0 0" fill="#dd3e46"/><path d="m415.382812 356.945312c-1.234374-2.992187-4.148437-4.941406-7.382812-4.945312h-64c-4.417969 0-8 3.582031-8 8s3.582031 8 8 8h44.6875l-10.34375 10.34375c-2.078125 2.007812-2.914062 4.984375-2.179688 7.78125.730469 2.796875 2.914063 4.980469 5.710938 5.710938 2.796875.734374 5.773438-.101563 7.78125-2.179688l24-24c2.28125-2.289062 2.964844-5.726562 1.726562-8.710938zm0 0" fill="#dd3e46"/><path d="m256 320h-32c-4.417969 0-8-3.582031-8-8s3.582031-8 8-8h32c4.417969 0 8 3.582031 8 8s-3.582031 8-8 8zm0 0" fill="#aabece"/><path d="m304 440h-128l24-96h80zm0 0" fill="#aabece"/><path d="m224 96 24-32h-40l-56 64h176v-32zm0 0" fill="#dd3e46"/><path d="m256 192-24 32h40l56-64h-176v32zm0 0" fill="#dd3e46"/><path d="m40 80c4.417969 0 8-3.582031 8-8v-16c0-4.417969 3.582031-8 8-8h16c4.417969 0 8-3.582031 8-8s-3.582031-8-8-8h-16c-13.253906 0-24 10.746094-24 24v16c0 4.417969 3.582031 8 8 8zm0 0"/><path d="m104 48h24c4.417969 0 8-3.582031 8-8s-3.582031-8-8-8h-24c-4.417969 0-8 3.582031-8 8s3.582031 8 8 8zm0 0"/><path d="m352 256h48c4.417969 0 8-3.582031 8-8s-3.582031-8-8-8h-48c-4.417969 0-8 3.582031-8 8s3.582031 8 8 8zm0 0"/><path d="m408 320h-44.6875l10.34375-10.34375c3.03125-3.140625 2.988281-8.128906-.097656-11.214844-3.085938-3.085937-8.074219-3.128906-11.214844-.097656l-24 24c-1.886719 1.890625-2.703125 4.597656-2.179688 7.214844.519532 2.617187 2.3125 4.804687 4.78125 5.824218.96875.402344 2.003907.613282 3.054688.617188h64c4.417969 0 8-3.582031 8-8s-3.582031-8-8-8zm0 0"/><path d="m415.382812 356.945312c-1.234374-2.992187-4.148437-4.941406-7.382812-4.945312h-64c-4.417969 0-8 3.582031-8 8s3.582031 8 8 8h44.6875l-10.34375 10.34375c-2.078125 2.007812-2.914062 4.984375-2.179688 7.78125.730469 2.796875 2.914063 4.980469 5.710938 5.710938 2.796875.734374 5.773438-.101563 7.78125-2.179688l24-24c2.28125-2.289062 2.964844-5.726562 1.726562-8.710938zm0 0"/><path d="m152 136h176c4.417969 0 8-3.582031 8-8v-32c0-4.417969-3.582031-8-8-8h-88l14.398438-19.199219c1.820312-2.425781 2.113281-5.667969.757812-8.378906s-4.125-4.421875-7.15625-4.421875h-40c-2.304688 0-4.496094.996094-6.015625 2.726562l-56 64c-2.070313 2.363282-2.566406 5.714844-1.269531 8.578126 1.296875 2.859374 4.144531 4.695312 7.285156 4.695312zm59.632812-64h20.367188l-14.398438 19.199219c-1.820312 2.425781-2.113281 5.667969-.757812 8.378906s4.125 4.421875 7.15625 4.421875h96v16h-150.398438zm0 0"/><path d="m152 200h88l-14.398438 19.199219c-1.820312 2.425781-2.113281 5.667969-.757812 8.378906s4.125 4.421875 7.15625 4.421875h40c2.304688 0 4.496094-.996094 6.015625-2.726562l56-64c2.070313-2.363282 2.566406-5.714844 1.269531-8.578126-1.296875-2.859374-4.144531-4.695312-7.285156-4.695312h-176c-4.417969 0-8 3.582031-8 8v32c0 4.417969 3.582031 8 8 8zm8-32h150.398438l-42 48h-20.398438l14.398438-19.199219c1.820312-2.425781 2.113281-5.667969.757812-8.378906s-4.125-4.421875-7.15625-4.421875h-96zm0 0"/><path d="m224 320h32c4.417969 0 8-3.582031 8-8s-3.582031-8-8-8h-32c-4.417969 0-8 3.582031-8 8s3.582031 8 8 8zm0 0"/><path d="m456 0h-432c-13.253906 0-24 10.746094-24 24v304c0 13.253906 10.746094 24 24 24h165.753906l-20 80h-113.753906c-4.417969 0-8 3.582031-8 8v16c0 13.253906 10.746094 24 24 24h352c13.253906 0 24-10.746094 24-24v-104h8c13.253906 0 24-10.746094 24-24v-304c0-13.253906-10.746094-24-24-24zm-432 16h432c4.417969 0 8 3.582031 8 8v248h-16v-40c0-13.253906-10.746094-24-24-24h-96c-13.253906 0-24 10.746094-24 24v40h-288v-248c0-4.417969 3.582031-8 8-8zm408 416h-112v-200c0-4.417969 3.582031-8 8-8h96c4.417969 0 8 3.582031 8 8zm-128-24.992188-13.753906-55.007812h13.753906zm-288-79.007812v-40h288v48h-280c-4.417969 0-8-3.582031-8-8zm190.246094 24h67.507812l20 80h-107.507812zm-142.246094 104v-8h240v8c.027344 2.730469.523438 5.4375 1.472656 8h-233.472656c-4.417969 0-8-3.582031-8-8zm368 0c0 4.417969-3.582031 8-8 8h-96c-4.417969 0-8-3.582031-8-8v-8h112zm32-128c0 4.417969-3.582031 8-8 8h-8v-48h16zm0 0"/></svg>