<svg height="480pt" viewBox="0 -15 480 480" width="480pt" xmlns="http://www.w3.org/2000/svg" xmlns:xlink="http://www.w3.org/1999/xlink"><linearGradient id="a"><stop offset="0" stop-color="#159957"/><stop offset="1" stop-color="#00afc3"/></linearGradient><linearGradient id="b" gradientUnits="userSpaceOnUse" x1="0" x2="476.32" xlink:href="#a" y1="224.944662" y2="224.944662"/><linearGradient id="c" gradientUnits="userSpaceOnUse" x1="0" x2="476.32" xlink:href="#a" y1="229.752662" y2="229.752662"/><path d="m385.726562 151.160156c24.203126-75.800781 19.929688-129.457031-5.519531-145.207031-12.3125-6.539063-26.769531-7.746094-40-3.34375-30.574219 7.671875-67.582031 32.488281-102.933593 66.6875-34.464844-34.832031-69.96875-59.566406-99.136719-66.886719-12.714844-4.15625-26.578125-2.871094-38.3125 3.542969-30.609375 18.945313-29.296875 79.511719-9.34375 147.933594-55.496094 17.664062-90.480469 44.898437-90.480469 75.992187 0 31.335938 37.214844 58.664063 95.742188 75.839844-19.804688 64.539062-21.4375 119.585938 8.066406 137.84375 6.988281 4.152344 15.007812 6.242188 23.136718 6.03125 6.3125-.074219 12.59375-.921875 18.703126-2.519531 25.0625-6.296875 57.710937-25.523438 90.9375-55.304688 33.886718 29.289063 67.773437 48.480469 94.292968 55.136719 6.714844 1.765625 13.621094 2.703125 20.5625 2.789062 8.382813.242188 16.664063-1.882812 23.894532-6.132812 28.632812-17.722656 25.359374-71.203125 4.207031-135.042969 61.546875-16.765625 100.457031-45.144531 100.457031-78.640625 0-33.117187-36.320312-61.359375-94.273438-78.71875zm-41.65625-133.023437c4.550782-1.203125 9.230469-1.847657 13.9375-1.910157 4.816407-.191406 9.585938.964844 13.785157 3.335938 22.183593 13.734375 17.480469 65.972656-2.402344 127.148438-25.503906-6.160157-51.476563-10.214844-77.648437-12.125-13.304688-18.804688-27.804688-36.734376-43.414063-53.671876 35.144531-33.753906 70.320313-56.402343 95.742187-62.777343zm-30.292968 252.527343c-7.402344 12.800782-15.320313 24.886719-23.53125 36.417969-14.628906 1.085938-30.023438 1.679688-46.175782 1.679688-21.371093.023437-42.734374-1.046875-64-3.199219-7.429687-10.449219-14.550781-21.378906-21.167968-32.800781-6.902344-11.960938-13.238282-23.921875-19.0625-35.792969 8.257812-17.808594 17.359375-35.40625 27.082031-52.207031 6.695313-11.570313 13.863281-22.722657 21.335937-33.425781 17.644532-1.65625 36.285157-2.582032 55.8125-2.582032 13.027344 0 26.152344.496094 39.203126 1.445313 7.527343 10.96875 14.839843 22.488281 21.824218 34.5625 10.023438 17.304687 19.132813 34.488281 27.328125 51.277343-5.929687 11.785157-12.152343 23.394532-18.648437 34.625zm27.292968-16.175781c6.707032 14.753907 12.640626 29.105469 17.714844 42.824219-15.773437 3.453125-31.714844 6.066406-47.761718 7.832031 5.703124-8.535156 11.289062-17.296875 16.601562-26.464843 4.734375-8.175782 9.21875-16.238282 13.445312-24.191407zm-104.65625 115.457031c-15.621093-14.617187-30.117187-30.394531-43.359374-47.199218 16.410156 1.300781 33.464843 2 51.015624 2 11.472657 0 22.691407-.320313 33.601563-.898438-12.671875 16.300782-26.457031 31.703125-41.257813 46.097656zm-77.453124-66.953124c-15.257813-2.175782-29.503907-4.910157-42.65625-8.09375 4.449218-12.800782 9.535156-25.945313 15.160156-39.128907 4.359375 8.488281 8.894531 16.847657 13.597656 25 4.441406 7.648438 9.113281 15.007813 13.898438 22.222657zm-28-84.878907c-7.773438-17.339843-14.625-35.074219-20.527344-53.136719 18.726562-4.996093 37.761718-8.757812 56.980468-11.265624-4.988281 7.585937-9.847656 15.25-14.351562 23.042968-7.816406 13.527344-15.214844 27.390625-22.085938 41.359375zm106.078124-125.921875c12.113282 13.105469 23.515626 26.84375 34.160157 41.160156-8.886719-.375-17.925781-.589843-27.128907-.589843-14.804687 0-29.246093.527343-43.261718 1.488281 11.257812-14.707031 23.355468-28.75 36.230468-42.058594zm81.890626 84.570313c-4.859376-8.386719-10.007813-16.59375-15.289063-24.679688 20.320313 2.203125 40.480469 5.695313 60.359375 10.453125-6.496094 18.136719-14.207031 36.800782-22.816406 55.304688-6.976563-13.800782-14.429688-27.566406-22.253906-41.078125zm-210.722657-157.199219c4.0625-2.355469 8.703125-3.519531 13.394531-3.363281 4.253907.0625 8.488282.644531 12.605469 1.730469 23.570313 5.917968 57.160157 28 91.730469 62.6875-16.738281 17.367187-32.222656 35.898437-46.335938 55.457031-24.953124 2.503906-49.667968 6.964843-73.921874 13.34375-18.886719-65.664063-17.679688-117.328125 2.527343-129.855469zm-92.207031 210.316406c0-21.542968 29.550781-44.476562 79.265625-60.4375 7.558594 22.996094 16.535156 45.507813 26.871094 67.398438-8.25 18.152344-15.519531 36.289062-21.542969 53.898437-53.25-15.425781-84.59375-38.59375-84.59375-60.859375zm125.753906 201.671875c-9.671875 3.371094-20.28125 2.796875-29.53125-1.597656-22.238281-13.769531-18.847656-62.496094-.878906-120.046875 19.726562 4.816406 39.738281 8.394531 59.914062 10.710938 15.878907 21.695312 33.714844 41.886718 53.285157 60.320312-30.734375 27.34375-60.542969 45.03125-82.789063 50.613281zm225.167969-1.597656c-10.125 4.636719-21.652344 5.148437-32.144531 1.421875-23.6875-5.941406-54.816406-23.6875-86.328125-50.6875 18.441406-18 35.34375-37.507812 50.535156-58.328125 21.898437-1.867187 43.644531-5.207031 65.09375-9.992187 20.058594 59.746093 22.632813 105.34375 2.84375 117.59375zm7.414063-136.390625c-6.75-18.503906-14.855469-37.675781-24-56.96875 11.417968-22.589844 21.453124-45.851562 30.054687-69.65625 48.929687 14.246094 83.609375 36.160156 83.609375 62.941406 0 23.578125-32.488281 48.296875-89.664062 63.683594zm0 0" fill="url(#b)"/><path d="m240 191.488281c-21.113281 0-38.238281 17.105469-38.265625 38.21875-.023437 21.117188 17.058594 38.257813 38.175781 38.308594 21.113282.050781 38.277344-17.011719 38.355469-38.128906.371094-10.269531-3.535156-20.234375-10.789063-27.511719-7.253906-7.28125-17.203124-11.222656-27.476562-10.886719zm0 60.519531c-9.015625 0-17.144531-5.4375-20.582031-13.773437s-1.507813-17.925781 4.886719-24.28125c6.398437-6.355469 15.996093-8.226563 24.308593-4.738281 8.316407 3.488281 13.707031 11.648437 13.652344 20.664062.328125 5.988282-1.917969 11.832032-6.171875 16.058594s-10.109375 6.4375-16.09375 6.070312zm0 0" fill="url(#c)"/></svg>