<svg height="360pt" viewBox="0 0 360.289 360" width="360pt" xmlns="http://www.w3.org/2000/svg"><path d="m73.933594 286.210938c-5.050782-5.050782-4.527344-22.425782 5.878906-47.21875-7.730469-2.226563-15.339844-4.867188-22.785156-7.910157-13.078125 31.503907-14.132813 58.03125-.0625 72.097657 14.066406 14.070312 40.59375 13.015624 72.097656-.0625-3.042969-7.449219-5.683594-15.054688-7.914062-22.785157-24.789063 10.40625-42.164063 10.929688-47.214844 5.878907zm0 0" fill="#d9176c"/><path d="m85.902344 180.144531c-6.671875 9.386719-12.800782 19.144531-18.359375 29.230469 7.542969 3.042969 15.261719 5.640625 23.109375 7.777344 3.074218-5.429688 6.617187-11.105469 10.527344-16.949219-5.460938-6.695313-10.554688-13.382813-15.277344-20.058594zm0 0" fill="#d9176c"/><path d="m209.230469 292.601562c-10.171875 24.886719-22.089844 37.542969-29.230469 37.542969-7.144531 0-19.058594-12.65625-29.230469-37.542969-3.042969-7.542968-5.640625-15.261718-7.78125-23.109374-1.664062-6.011719-3.171875-12.535157-4.539062-19.429688-8.59375-.871094-16.945313-2.003906-24.984375-3.382812 1.917968 11.355468 4.484375 22.589843 7.683594 33.652343 2.230468 7.730469 4.871093 15.335938 7.914062 22.785157 13.03125 31.523437 31.039062 51.027343 50.9375 51.027343 19.894531 0 37.90625-19.503906 50.9375-51.027343-7.417969-3.113282-14.664062-6.625-21.707031-10.515626zm0 0" fill="#2d75bb"/><path d="m246.535156 113.609375c-1.917968-11.355469-4.488281-22.589844-7.6875-33.652344-7.484375 3.183594-14.777344 6.804688-21.839844 10.839844 1.667969 6.015625 3.175782 12.535156 4.539063 19.429687 8.597656.871094 16.945313 2.003907 24.988281 3.382813zm0 0" fill="#2d75bb"/><g fill="#36afad"><path d="m302.972656 231.082031c-7.449218 3.042969-15.054687 5.683594-22.785156 7.910157 10.40625 24.792968 10.929688 42.167968 5.878906 47.21875-5.050781 5.050781-22.425781 4.523437-47.21875-5.878907-7.484375-3.183593-14.777344-6.804687-21.839844-10.839843-5.429687-3.074219-11.105468-6.621094-16.949218-10.53125-6.695313 5.464843-13.382813 10.558593-20.058594 15.28125 9.386719 6.667968 19.144531 12.800781 29.230469 18.359374 7.042969 3.890626 14.289062 7.398438 21.707031 10.515626 31.503906 13.074218 58.03125 14.128906 72.097656.0625 14.070313-14.066407 13.015625-40.59375-.0625-72.097657zm0 0"/><path d="m180 86.046875c-9.386719-6.667969-19.148438-12.800781-29.230469-18.359375-3.042969 7.546875-5.640625 15.261719-7.78125 23.109375 5.433594 3.074219 11.109375 6.621094 16.949219 10.53125 6.699219-5.464844 13.382812-10.558594 20.0625-15.28125zm0 0"/><path d="m258.820312 200.203125c3.910157 5.84375 7.453126 11.519531 10.527344 16.949219 7.847656-2.136719 15.566406-4.734375 23.109375-7.777344-5.558593-10.082031-11.6875-19.84375-18.359375-29.230469-4.714844 6.660157-9.804687 13.347657-15.277344 20.058594zm0 0"/><path d="m209.390625 109.1875c-3.105469-2.695312-6.214844-5.316406-9.332031-7.863281-3.246094 2.175781-6.550782 4.503906-9.910156 6.953125 6.519531.152344 12.933593.457031 19.242187.910156zm0 0"/><path d="m150.609375 251.101562c3.105469 2.695313 6.214844 5.316407 9.332031 7.859376 3.246094-2.171876 6.550782-4.5 9.910156-6.949219-6.519531-.152344-12.933593-.457031-19.242187-.910157zm0 0"/><path d="m121.152344 79.957031c2.226562-7.730469 4.867187-15.335937 7.910156-22.785156-31.503906-13.078125-58.03125-14.132813-72.097656-.0625-14.070313 14.066406-13.015625 40.59375.0625 72.097656 3.113281 7.417969 6.625 14.664063 10.515625 21.707031 5.558593 10.082032 11.6875 19.84375 18.359375 29.230469 4.714844 6.660157 9.804687 13.347657 15.277344 20.058594 2.542968 3.117187 5.164062 6.226563 7.863281 9.332031-.445313-6.308594-.75-12.722656-.914063-19.246094-.078125-3.359374-.128906-6.738281-.128906-10.144531 0-3.410156.050781-6.789062.132812-10.148437-2.449218-3.359375-4.777343-6.664063-6.953124-9.914063-3.910157-5.839843-7.453126-11.519531-10.527344-16.949219-4.035156-7.0625-7.65625-14.355468-10.839844-21.839843-10.40625-24.789063-10.929688-42.164063-5.878906-47.21875 5.050781-5.046875 22.425781-4.523438 47.21875 5.882812zm0 0"/><path d="m132.492188 199.824219c.429687 9.050781 1.179687 17.566406 2.136718 25.691406 8.125.957031 16.640625 1.707031 25.691406 2.136719-4.703124-4.273438-9.449218-8.757813-14.261718-13.566406-4.808594-4.808594-9.292969-9.558594-13.566406-14.261719zm0 0"/><path d="m227.507812 160.464844c-.429687-9.054688-1.179687-17.566406-2.136718-25.695313-8.125-.953125-16.640625-1.707031-25.691406-2.136719 4.703124 4.277344 9.449218 8.757813 14.261718 13.570313s9.292969 9.558594 13.566406 14.261719zm0 0"/></g><path d="m221.546875 250.0625c-1.363281 6.894531-2.871094 13.417969-4.539063 19.429688 7.0625 4.035156 14.355469 7.65625 21.839844 10.839843 3.199219-11.0625 5.769532-22.296875 7.6875-33.652343-8.042968 1.378906-16.390625 2.511718-24.988281 3.382812zm0 0" fill="#2d75bb"/><path d="m113.464844 113.609375c-11.355469 1.917969-22.589844 4.488281-33.652344 7.6875 3.183594 7.484375 6.804688 14.777344 10.839844 21.839844 6.015625-1.667969 12.535156-3.175781 19.429687-4.539063.871094-8.597656 2.003907-16.945312 3.382813-24.988281zm0 0" fill="#fdbd40"/><path d="m249.917969 221.691406c.40625-3.996094.75-8.050781 1.039062-12.15625-4.148437 4.773438-8.46875 9.527344-12.960937 14.253906 4.105468-.644531 8.078125-1.34375 11.921875-2.097656zm0 0" fill="#2d75bb"/><path d="m190.148438 252.011719c-3.363282.082031-6.738282.132812-10.148438.132812s-6.789062-.050781-10.148438-.132812c-3.359374 2.449219-6.664062 4.777343-9.914062 6.953125-5.839844 3.910156-11.515625 7.453125-16.949219 10.527344 2.140625 7.847656 4.738281 15.566406 7.78125 23.109374 10.082031-5.558593 19.84375-11.691406 29.230469-18.359374 6.660156-4.714844 13.347656-9.804688 20.058594-15.277344 3.117187-2.542969 6.226562-5.164063 9.332031-7.863282-6.308594.445313-12.722656.746094-19.242187.910157zm0 0" fill="#d9176c"/><path d="m109.042969 150.753906c-2.695313 3.105469-5.316407 6.214844-7.859375 9.332032 2.171875 3.246093 4.5 6.550781 6.949218 9.910156.152344-6.519532.457032-12.933594.910157-19.242188zm0 0" fill="#d9176c"/><path d="m160.320312 132.636719c-9.054687.429687-17.566406 1.179687-25.691406 2.136719-.957031 8.125-1.707031 16.636718-2.136718 25.691406 4.273437-4.703125 8.757812-9.449219 13.566406-14.261719 4.8125-4.8125 9.558594-9.292969 14.261718-13.566406zm0 0" fill="#d9176c"/><path d="m303.035156 57.109375c-14.066406-14.070313-40.59375-13.015625-72.097656.0625-7.417969 3.113281-14.664062 6.625-21.707031 10.515625-10.082031 5.558594-19.84375 11.6875-29.230469 18.359375-6.660156 4.710937-13.347656 9.804687-20.058594 15.277344-3.117187 2.542969-6.226562 5.160156-9.332031 7.863281 6.308594-.445312 12.722656-.75 19.242187-.914062 3.363282-.078126 6.738282-.128907 10.148438-.128907s6.789062.050781 10.148438.132813c3.359374-2.449219 6.664062-4.777344 9.914062-6.953125 5.839844-3.910157 11.515625-7.453125 16.949219-10.527344 7.058593-4.035156 14.351562-7.65625 21.839843-10.839844 24.789063-10.40625 42.164063-10.929687 47.214844-5.878906 5.050782 5.050781 4.527344 22.425781-5.875 47.21875-3.1875 7.484375-6.804687 14.777344-10.839844 21.839844-3.078124 5.429687-6.621093 11.105469-10.53125 16.949219-2.175781 3.246093-4.503906 6.550781-6.949218 9.910156-2.433594 3.339844-5 6.71875-7.703125 10.148437-5.070313 6.421875-10.558594 12.976563-16.65625 19.679688-4.277344 4.703125-8.757813 9.453125-13.570313 14.261719-4.808594 4.8125-9.558594 9.292968-14.257812 13.566406 9.050781-.429688 17.566406-1.179688 25.691406-2.136719 4.347656-.507813 8.542969-1.089844 12.621094-1.730469 4.5-4.71875 8.820312-9.46875 12.960937-14.25 2.699219-3.105468 5.316407-6.214844 7.863281-9.332031 5.460938-6.695313 10.554688-13.382813 15.277344-20.058594 6.671875-9.386719 12.800782-19.148437 18.359375-29.230469 3.890625-7.042968 7.402344-14.289062 10.515625-21.707031 13.078125-31.503906 14.132813-58.03125.0625-72.097656zm0 0" fill="#d9176c"/><path d="m302.972656 129.207031c-3.113281 7.417969-6.625 14.664063-10.515625 21.707031 24.886719 10.171876 37.542969 22.085938 37.542969 29.230469s-12.65625 19.058594-37.542969 29.230469c-7.542969 3.042969-15.261719 5.640625-23.109375 7.777344-6.011718 1.667968-12.535156 3.175781-19.429687 4.542968-3.835938.757813-7.808594 1.457032-11.921875 2.09375-4.078125.636719-8.277344 1.21875-12.621094 1.726563-8.128906.957031-16.640625 1.710937-25.695312 2.140625-6.347657.300781-12.875.488281-19.679688.488281s-13.328125-.1875-19.679688-.488281c-9.054687-.429688-17.566406-1.183594-25.691406-2.140625-4.347656-.507813-8.542968-1.089844-12.621094-1.726563-4.109374-.644531-8.089843-1.335937-11.925781-2.09375-6.894531-1.367187-13.414062-2.875-19.429687-4.542968-7.847656-2.136719-15.5625-4.734375-23.109375-7.777344-24.886719-10.171875-37.542969-22.085938-37.542969-29.230469 0-7.140625 12.65625-19.058593 37.542969-29.230469-3.890625-7.042968-7.398438-14.289062-10.515625-21.707031-31.523438 13.03125-51.027344 31.042969-51.027344 50.9375 0 19.898438 19.503906 37.90625 51.027344 50.9375 7.449218 3.042969 15.054687 5.683594 22.785156 7.910157 11.0625 3.199218 22.296875 5.769531 33.652344 7.6875 8.042968 1.378906 16.390625 2.511718 24.988281 3.382812 3.996094.40625 8.050781.75 12.15625 1.039062 6.308594.445313 12.722656.746094 19.242187.910157 3.363282.082031 6.738282.132812 10.148438.132812s6.789062-.050781 10.148438-.132812c6.519531-.152344 12.933593-.460938 19.242187-.910157 4.105469-.289062 8.15625-.636718 12.160156-1.039062 8.59375-.871094 16.945313-2.003906 24.984375-3.382812 11.355469-1.921876 22.589844-4.488282 33.652344-7.6875 7.730469-2.226563 15.339844-4.867188 22.785156-7.910157 31.523438-13.03125 51.027344-31.042969 51.027344-50.9375s-19.503906-37.90625-51.027344-50.9375zm0 0" fill="#fdbd40"/><path d="m246.535156 113.609375c-8.042968-1.378906-16.390625-2.511719-24.988281-3.382813-3.996094-.40625-8.050781-.75-12.15625-1.039062-6.308594-.441406-12.722656-.746094-19.242187-.910156-3.363282-.082032-6.738282-.132813-10.148438-.132813s-6.789062.054688-10.148438.132813c-6.519531.15625-12.933593.460937-19.242187.914062-4.105469.289063-8.15625.632813-12.160156 1.035156-.757813 3.835938-1.457031 7.8125-2.09375 11.925782-.636719 4.078125-1.21875 8.273437-1.730469 12.621094 8.128906-.957032 16.640625-1.707032 25.695312-2.136719 6.347657-.300781 12.875-.492188 19.679688-.492188s13.328125.191407 19.679688.492188c9.054687.429687 17.566406 1.179687 25.691406 2.136719 4.347656.511718 8.542968 1.089843 12.621094 1.730468 4.109374.644532 8.089843 1.335938 11.925781 2.09375 6.894531 1.367188 13.414062 2.875 19.429687 4.539063 4.035156-7.0625 7.65625-14.351563 10.839844-21.839844-11.0625-3.203125-22.296875-5.769531-33.652344-7.6875zm0 0" fill="#fdbd40"/><path d="m250.957031 150.753906c-.289062-4.101562-.636719-8.15625-1.039062-12.15625-3.835938-.761718-7.816407-1.453125-11.921875-2.097656-4.078125-.636719-8.277344-1.21875-12.621094-1.730469.953125 8.128907 1.707031 16.640625 2.136719 25.695313.300781 6.347656.488281 12.875.488281 19.679687 0 6.804688-.1875 13.328125-.488281 19.679688 6.097656-6.707031 11.585937-13.257813 16.65625-19.679688 2.710937-3.433593 5.277343-6.816406 7.703125-10.148437-.15625-6.519532-.460938-12.933594-.914063-19.242188zm0 0" fill="#2d75bb"/><path d="m180 6.144531c-19.894531 0-37.90625 19.503907-50.9375 51.027344-3.042969 7.449219-5.683594 15.054687-7.914062 22.785156-3.199219 11.058594-5.765626 22.296875-7.683594 33.648438-1.378906 8.042969-2.511719 16.394531-3.382813 24.988281-.40625 4-.75 8.054688-1.039062 12.160156-.445313 6.304688-.746094 12.722656-.910157 19.242188-.082031 3.359375-.132812 6.738281-.132812 10.148437 0 3.40625.050781 6.785157.132812 10.148438.152344 6.519531.460938 12.933593.910157 19.242187.289062 4.101563.636719 8.15625 1.039062 12.15625 3.835938.761719 7.816407 1.453125 11.925781 2.09375 4.078126.640625 8.273438 1.222656 12.621094 1.730469-.957031-8.125-1.707031-16.640625-2.136718-25.691406-.300782-6.351563-.492188-12.875-.492188-19.679688 0-6.804687.191406-13.332031.492188-19.679687.429687-9.054688 1.179687-17.566406 2.136718-25.695313.507813-4.34375 1.089844-8.542969 1.730469-12.621093.644531-4.105469 1.339844-8.078126 2.09375-11.921876 1.363281-6.894531 2.871094-13.417968 4.539063-19.429687 2.140624-7.847656 4.734374-15.566406 7.777343-23.109375 10.171875-24.886719 22.089844-37.542969 29.230469-37.542969 7.144531 0 19.058594 12.65625 29.230469 37.542969 7.042969-3.890625 14.289062-7.402344 21.707031-10.515625-13.03125-31.523437-31.042969-51.027344-50.9375-51.027344zm0 0" fill="#2d75bb"/><path d="m204 180.144531c0 13.253907-10.746094 24-24 24s-24-10.746093-24-24c0-13.253906 10.746094-24 24-24s24 10.746094 24 24zm0 0" fill="#d9176c"/><path d="m251.867188 169.996094c2.449218-3.359375 4.777343-6.664063 6.953124-9.910156-2.542968-3.117188-5.164062-6.226563-7.863281-9.332032.445313 6.308594.746094 12.722656.910157 19.242188zm0 0" fill="#36afad"/><path d="m360 180.144531c0-20.683593-17.472656-39.765625-49.324219-54.125 12.367188-32.679687 11.230469-58.53125-3.398437-73.152343-14.621094-14.625-40.46875-15.765626-73.148438-3.398438-14.363281-31.851562-33.445312-49.324219-54.128906-49.324219s-39.765625 17.472657-54.125 49.324219c-32.675781-12.367188-58.523438-11.226562-73.152344 3.398438-14.628906 14.621093-15.769531 40.472656-3.398437 73.152343-31.851563 14.359375-49.324219 33.441407-49.324219 54.125 0 20.683594 17.472656 39.765625 49.324219 54.125-12.367188 32.675781-11.230469 58.527344 3.398437 73.152344 8.933594 8.273437 20.839844 12.570313 33 11.90625 13.773438-.476563 27.351563-3.390625 40.109375-8.605469 14.363281 31.910156 33.464844 49.421875 54.167969 49.421875s39.804688-17.511719 54.167969-49.421875c12.753906 5.21875 26.335937 8.132813 40.109375 8.605469 12.15625.660156 24.066406-3.636719 33-11.910156 14.628906-14.625 15.765625-40.472657 3.398437-73.148438 31.851563-14.359375 49.324219-33.441406 49.324219-54.125zm-60.136719-19.328125c.984375.484375 1.957031.972656 2.871094 1.449219.464844.246094.890625.484375 1.335937.726563.6875.375 1.382813.746093 2.03125 1.117187.472657.269531.910157.535156 1.363282.800781.566406.335938 1.144531.671875 1.679687 1.003906.4375.269532.84375.535157 1.257813.800782.492187.320312.988281.636718 1.449218.945312.402344.269532.773438.53125 1.148438.796875.429688.296875.855469.597657 1.253906.886719.351563.261719.683594.515625 1.015625.765625.375.289063.742188.570313 1.089844.847656.308594.25.601563.488281.890625.730469.316406.269531.628906.535156.921875.792969.265625.234375.523437.464843.765625.691406.273438.25.53125.496094.78125.738281.21875.21875.4375.429688.640625.640625.230469.238281.445313.46875.652344.695313.175781.191406.347656.382812.507812.566406.191407.226562.367188.441406.535157.652344.132812.167968.273437.339844.390624.496094.152344.207031.28125.398437.410157.589843.097656.144531.203125.292969.289062.429688.117188.1875.207031.359375.296875.53125.0625.113281.132813.234375.183594.34375.074219.160156.140625.324219.195312.488281.027344.078125.066407.164062.085938.234375.125.367187.125.761719 0 1.128906-.019531.070313-.058594.160157-.085938.234375-.054687.167969-.121093.332032-.195312.492188-.046875.101562-.121094.222656-.179688.335937-.09375.175781-.183593.347657-.304687.542969-.078125.128906-.179687.269531-.269531.40625-.136719.199219-.269532.398438-.429688.613281-.113281.152344-.246094.316407-.371094.476563-.175781.21875-.355468.441406-.554687.671875-.152344.175781-.320313.363281-.488281.542969-.214844.238281-.4375.480468-.679688.726562-.191406.199219-.398437.402344-.605468.605469-.261719.253906-.535157.515625-.820313.78125-.234375.210937-.472656.429687-.722656.652343-.308594.273438-.636719.550782-.972657.832032-.273437.226562-.550781.457031-.84375.691406-.363281.289062-.746093.589844-1.140624.886719-.316407.242187-.632813.484375-.96875.730469-.417969.304687-.863282.621093-1.316407.933593-.351562.25-.703125.496094-1.078125.746094-.492187.332031-1.019531.667969-1.546875 1.007813-.386719.246093-.761719.492187-1.167969.742187-.566406.351563-1.175781.710937-1.785156 1.066406-.417968.25-.824218.496094-1.261718.746094-.683594.386719-1.414063.78125-2.144532 1.175781-.414062.222656-.800781.441406-1.226562.667969-.976563.511719-2.015625 1.03125-3.070313 1.546875-.226562.113281-.433593.222656-.664062.335938-1.257813.609374-2.585938 1.222656-3.960938 1.839843-1.703125-2.964843-3.527343-5.941406-5.375-8.917969-.308593-.496093-.582031-.988281-.894531-1.484374-2.347656-3.730469-4.804688-7.464844-7.367188-11.195313 2.566407-3.726563 5.023438-7.457031 7.367188-11.191406.320312-.511719.601562-1.019531.921875-1.53125 1.839844-2.960938 3.65625-5.925781 5.347656-8.871094 1.371094.617187 2.695313 1.226563 3.953125 1.835937.300782.148438.566406.289063.859375.433594zm-24.164062 48.125c-1.167969.371094-2.355469.730469-3.550781 1.085938-.375-.625-.832032-1.3125-1.21875-1.949219-1.03125-1.703125-2.113282-3.433594-3.242188-5.199219-.5-.789062-.925781-1.519531-1.445312-2.320312.894531-1.121094 1.71875-2.246094 2.59375-3.367188 1.3125-1.683594 2.617187-3.355468 3.882812-5.035156.382812-.507812.792969-1.015625 1.171875-1.519531 1.546875 2.316406 3.175781 4.628906 4.636719 6.941406.109375.175781.230468.351563.339844.527344 1.707031 2.726562 3.210937 5.425781 4.785156 8.136719-.691406.25-1.339844.511718-2.046875.761718-1.910157.664063-3.898438 1.304688-5.90625 1.9375zm-17.386719 4.8125c-.539062.125-1.136719.238282-1.683594.359375.058594-.714843.113282-1.4375.167969-2.15625.472656-.550781.941406-1.097656 1.40625-1.648437.328125.519531.703125 1.066406 1.019531 1.578125l.253906.40625c.21875.355469.394532.671875.609376 1.023437-.363282.089844-.679688.183594-1.050782.269532zm40.480469-152.402344c11.609375 11.609376 11.113281 35.5-1.359375 65.554688-3.03125 7.21875-6.453125 14.269531-10.238282 21.121094-5.449218 9.886718-11.457031 19.449218-17.996093 28.652344l-.003907.007812c-4.621093 6.53125-9.675781 13.167969-15.023437 19.722656l-.007813.011719c-2.5 3.0625-5.078124 6.121094-7.738281 9.179687v.003907c-3.476562 3.996093-7.011719 7.882812-10.535156 11.640625-.277344.292968-.550781.597656-.828125.886718-3.386719.511719-6.808594 1.003907-10.394531 1.421876-2.910157.34375-5.746094.597656-8.597657.867187.710938-.699219 1.414063-1.394531 2.113282-2.09375 4.515625-4.515625 9.019531-9.246094 13.765625-14.46875 5.835937-6.414063 11.367187-12.953125 16.925781-19.996094 2.761719-3.496093 5.375-6.941406 7.84375-10.332031 2.496094-3.421875 4.855469-6.789062 7.085938-10.105469l.003906-.003906c4.09375-6.125 7.714844-11.953125 10.761718-17.328125l.003907-.003906c4.148437-7.269532 7.871093-14.769532 11.148437-22.472656v-.003907c10.644532-25.359375 12.402344-45.964843 4.589844-53.777343-.960938-.925782-2.058594-1.699219-3.25-2.296876-.398438-.210937-.863281-.359374-1.292969-.542968-.945312-.410156-1.917969-.746094-2.914062-1.003906-.574219-.148438-1.179688-.265626-1.796875-.375-1.105469-.199219-2.222656-.34375-3.347656-.425782-.679688-.050781-1.355469-.105468-2.078126-.125-.363281-.007812-.679687-.0625-1.050781-.0625-.5625 0-1.230469.113282-1.8125.132813-1.558593.054687-3.160156.164062-4.855469.359375-.996093.117187-2.011718.257812-3.050781.425781-1.765625.28125-3.59375.640625-5.476562 1.0625-1.082031.242187-2.144531.472656-3.261719.761719-2.089844.535156-4.257812 1.191406-6.460938 1.894531-1.015624.320313-1.988281.589844-3.023437.941406-3.214844 1.105469-6.519531 2.34375-9.929687 3.769531l-.183594.070313c-7.703125 3.277344-15.210938 7-22.476563 11.152344-5.375 3.046875-11.203125 6.667969-17.332031 10.765625-2.78125 1.863281-5.597656 3.828125-8.457031 5.890625-6.15625-.121094-12.414063-.101563-18.554688.046875-.441406.007812-.886719.023437-1.332031.03125 1.160156-.914063 2.316406-1.84375 3.476562-2.738282.898438-.691406 1.792969-1.390624 2.691407-2.070312 2.871093-2.175781 5.742187-4.292969 8.59375-6.316406.109375-.074219.21875-.160156.328125-.238282 9.199218-6.539062 18.765625-12.546874 28.648437-17.996093 6.851563-3.789063 13.902344-7.203125 21.121094-10.238281 30.050781-12.472657 53.949219-12.96875 65.558594-1.359376zm-138.550781-.210937c.144531-.300781.285156-.566406.429687-.859375.484375-.984375.972656-1.960938 1.449219-2.875.246094-.464844.484375-.886719.726562-1.332031.375-.691407.746094-1.386719 1.117188-2.03125.269531-.476563.535156-.910157.800781-1.363281.335937-.570313.671875-1.144532 1.003906-1.679688.269531-.4375.535157-.84375.804688-1.257812.316406-.492188.632812-.988282.941406-1.453126.269531-.398437.53125-.769531.796875-1.148437.296875-.425781.597656-.851563.886719-1.25.261719-.355469.515625-.6875.765625-1.019531.289062-.371094.570312-.742188.847656-1.085938.25-.308594.488281-.601562.730469-.890625.269531-.320312.535156-.628906.792969-.921875.234374-.265625.464843-.523437.691406-.769531.25-.269531.496094-.53125.738281-.777344.21875-.222656.429687-.4375.640625-.640625.238281-.230468.46875-.445312.695312-.652344.191407-.175781.382813-.351562.566407-.507812.226562-.195312.441406-.367188.652343-.535156.167969-.132813.339844-.273438.496094-.390625.207032-.152344.398438-.285157.589844-.414063.144531-.09375.292969-.203125.429688-.285156.1875-.117188.359374-.207031.53125-.300781.113281-.058594.234374-.132813.34375-.183594.160156-.074219.324218-.136719.488281-.191406.078125-.027344.164062-.070313.234375-.089844.367187-.121094.761718-.121094 1.128906 0 .070312.019531.160156.0625.234375.089844.167969.054687.332031.121093.492187.191406.105469.050781.226563.125.339844.183594.171875.09375.34375.183593.535156.300781.132813.082031.285157.191406.425782.285156.195312.128906.382812.257813.589844.414063.160156.117187.328124.257812.496093.390625.210938.167968.429688.339844.652344.535156.183594.15625.375.332031.566406.507812.226563.207032.460938.421876.699219.652344.207031.203125.421875.417969.636719.640625.242187.246094.488281.507813.742187.777344.226563.246094.457032.503906.691406.769531.257813.292969.523438.601563.789063.921875.242187.289063.484375.582031.730469.890625.277344.34375.5625.710938.847656 1.085938.253906.332031.507812.664062.765625 1.019531.292969.398437.589844.824219.890625 1.25.261719.378906.523438.75.792969 1.148437.3125.464844.628906.960938.945312 1.453126.265625.414062.53125.820312.800781 1.257812.332032.535156.667969 1.113281 1.003907 1.679688.269531.453124.53125.886718.804687 1.363281.367188.644531.742188 1.34375 1.113282 2.03125.242187.445312.480468.867187.726562 1.332031.480469.914062.964844 1.890625 1.449219 2.875.144531.292969.289062.558594.433593.859375.609376 1.257813 1.222657 2.582031 1.835938 3.953125-2.953125 1.695312-5.917969 3.511719-8.882812 5.355469-.507813.3125-1.007813.59375-1.515626.910156-3.730468 2.351563-7.464843 4.808594-11.195312 7.371094-3.730469-2.566407-7.460938-5.023438-11.195312-7.367188-.511719-.324219-1.019532-.605469-1.53125-.921875-2.960938-1.84375-5.921876-3.65625-8.867188-5.347656.613281-1.371094 1.226562-2.695312 1.835938-3.953125zm91.753906 20.316406c1.496094-.496093 2.933594-.941406 4.3125-1.339843 1.054687-.304688 2.105468-.605469 3.09375-.859376 1.324218-.339843 2.570312-.625 3.773437-.878906.875-.183594 1.757813-.375 2.570313-.519531 1.140625-.199219 2.1875-.34375 3.207031-.472656.699219-.089844 1.433594-.195313 2.074219-.25.960937-.085938 1.8125-.117188 2.644531-.140625.527344-.015625 1.109375-.050782 1.589844-.042969.777343.011719 1.421875.070313 2.066406.128906.371094.035157.808594.046875 1.132813.097657.515624.078124 1.027343.191406 1.527343.339843.203125.054688.480469.097657.652344.15625.917969.199219 1.632813.910157 1.828125 1.828125.0625.175782.105469.460938.164062.667969.144532.496094.257813.996094.335938 1.507813.050781.339843.066406.792968.101562 1.183593.054688.625.113282 1.25.125 2.003907.007813.507812-.03125 1.121093-.046874 1.6875-.023438.800781-.050782 1.613281-.132813 2.53125-.058594.679687-.171875 1.449218-.265625 2.195312-.121094.976562-.261719 1.980469-.453125 3.070312-.148437.855469-.355469 1.789063-.550781 2.710938-.242188 1.160156-.515625 2.355469-.839844 3.625-.265625 1.027344-.578125 2.117188-.898438 3.21875-.386718 1.34375-.824218 2.742188-1.300781 4.195312-.398437 1.203126-.839843 2.457032-1.304687 3.734376-.253906.710937-.570313 1.476562-.847656 2.210937-3.246094-.878906-6.585938-1.679687-9.945313-2.46875-.605469-.140625-1.179687-.304687-1.789063-.441406-4.292968-.976563-8.664062-1.875-13.109374-2.699219-.816407-4.449219-1.71875-8.820312-2.703126-13.117188-.136718-.597656-.296874-1.164062-.4375-1.761718-.785156-3.367188-1.589843-6.714844-2.46875-9.96875.742188-.28125 1.523438-.601563 2.242188-.859375 1.25-.453125 2.472656-.882813 3.652344-1.273438zm-32.101563 58.792969c.136719 1.289062.269531 2.585938.390625 3.867188-.699218-.710938-1.40625-1.457032-2.101562-2.15625-.699219-.699219-1.449219-1.402344-2.15625-2.101563 1.28125.121094 2.574218.253906 3.867187.390625zm14.09375 42.871094c.007813-.996094.011719-1.988282.011719-2.976563 0-6.34375-.160156-12.875-.496094-19.964843-.292968-6.144532-.738281-12.226563-1.34375-18.425782 1.625.230469 3.320313.425782 4.902344.671875 2.503906.394531 4.867188.847657 7.269531 1.277344.222657 2.484375.460938 4.949219.636719 7.472656.402344 5.652344.640625 11.324219.804688 16.925781-2.03125 2.75-4.09375 5.507813-6.320313 8.324219-1.816406 2.304688-3.640625 4.488281-5.464844 6.695313zm25.046875-36.417969c.371094.085937.6875.179687 1.050782.269531-.214844.351563-.390626.671875-.609376 1.027344l-.25.398438c-.320312.511718-.695312 1.0625-1.023437 1.582031-.464844-.546875-.933594-1.097657-1.40625-1.644531-.054687-.722657-.109375-1.441407-.167969-2.160157.546875.125 1.144532.234375 1.683594.359375zm-28.128906-41.410156c-1.460938-.179688-2.886719-.398438-4.359375-.5625-.195313-.929688-.414063-1.742188-.613281-2.648438-.457032-2.066406-.925782-4.074219-1.398438-6.023437-.175781-.710938-.335937-1.507813-.511718-2.203125 1.105468-.59375 2.203124-1.183594 3.292968-1.75 1.875-.972657 3.738282-1.929688 5.5625-2.808594.664063-.320313 1.304688-.59375 1.960938-.902344.363281 1.367188.722656 2.730469 1.070312 4.121094.808594 3.269531 1.574219 6.59375 2.292969 9.96875.269531 1.269531.511719 2.566406.769531 3.851563-.636718-.09375-1.296875-.160157-1.933594-.25-2.03125-.285157-4.074218-.539063-6.132812-.792969zm-19.175781-4.363281.425781-.265626c.351562-.21875.667969-.390624 1.015625-.605468.089844.363281.183594.679687.269531 1.050781l.167969.722656c.125.539063.238281 1.136719.359375 1.683594-.714844-.058594-1.4375-.113281-2.15625-.167969-.550781-.472656-1.097656-.941406-1.648438-1.40625.515626-.328125 1.058594-.699218 1.566407-1.011718zm-21.726563 13.34375c6.253906.148437 12.632813.453124 18.964844.898437 4.039062.285156 8.03125.625 11.976562 1.027344 8.410157.847656 16.679688 1.96875 24.578126 3.324219 5.25.898437 10.378906 1.945312 15.421874 3.070312 1.574219.351562 3.101563.742188 4.652344 1.117188 2.089844.5 4.109375 1.054687 6.152344 1.59375-.3125.664062-.585938 1.304687-.90625 1.972656-.875 1.8125-1.824219 3.664062-2.789062 5.523437-.574219 1.097657-1.164063 2.207031-1.765626 3.320313-1.023437-.261719-2.125-.507813-3.179687-.761719-.894531-.214844-1.769531-.429687-2.683594-.640625-3.007812-.691406-6.101562-1.363281-9.34375-2.007812-3.910156-.773438-7.964843-1.488282-12.160156-2.136719-4.152344-.652344-8.433594-1.238281-12.847656-1.761719-8.90625-1.046875-17.445313-1.761719-26.113281-2.171875-7.085938-.335937-13.617188-.496094-19.960938-.496094s-12.871094.160157-19.960938.496094c-5.480468.261719-10.9375.6875-16.4375 1.199219-.667968.0625-1.320312.078125-1.988281.144531.226563-1.625.421875-3.320313.671875-4.902344.390625-2.503906.84375-4.867187 1.277344-7.269531 2.480469-.222656 4.949219-.460938 7.46875-.636719 6.332031-.449219 12.710938-.753906 18.960938-.902343 6.625-.152344 13.386718-.152344 20.011718 0zm-41.816406-10.925782c-.71875.054688-1.441406.109375-2.15625.167969.121094-.542969.234375-1.140625.359375-1.675781l.171875-.738282c.085938-.363281.175781-.679687.265625-1.042968.351563.214844.667969.390625 1.023437.609375l.40625.253906c.511719.316406 1.0625.691406 1.578126 1.019531-.550782.464844-1.097657.933594-1.648438 1.40625zm-8.289062 38.941406c.066406-.679687.136718-1.359374.207031-2.039062.683593-.070312 1.363281-.140625 2.046875-.207031.59375-.058594 1.175781-.078125 1.773437-.132813-.695312.679688-1.425781 1.371094-2.109375 2.050782-.683594.683593-1.371094 1.414062-2.054687 2.109374.058593-.597656.078125-1.183593.136719-1.78125zm23.175781-51.078124c-1.164063.90625-2.328125 1.765624-3.488281 2.691406-.800782-.519532-1.535157-.945313-2.320313-1.445313-1.765625-1.128906-3.5-2.207031-5.199219-3.242187-.636718-.386719-1.324218-.84375-1.949218-1.21875.355468-1.191406.714843-2.375 1.082031-3.535156.636719-2.011719 1.273437-4.007813 1.945312-5.925782.246094-.703125.507813-1.351562.757813-2.046875 2.699218 1.574219 5.390625 3.070313 8.109375 4.773438.199219.125.402343.261719.601562.390625 2.296875 1.449218 4.59375 3.066406 6.894531 4.601562-.53125.398438-1.0625.828125-1.59375 1.230469-1.617187 1.214844-3.222656 2.46875-4.839843 3.726563zm-22.96875 128.828124c-.136719-1.292968-.269531-2.585937-.390625-3.867187.699218.710937 1.40625 1.457031 2.101562 2.15625.699219.699219 1.449219 1.402344 2.15625 2.101563-1.28125-.121094-2.574218-.253907-3.867187-.390626zm22.664062 1.703126c-4.433593-4.074219-8.566406-7.996094-12.46875-11.898438-3.902343-3.90625-7.824219-8.035156-11.898437-12.46875-.257813-6.046875-.402344-11.746094-.402344-17.230469s.144531-11.183593.402344-17.230469c4.074218-4.4375 7.996094-8.566406 11.898437-12.46875 3.902344-3.902343 8.03125-7.828124 12.46875-11.898437 12.058594-.515625 22.40625-.515625 34.460938 0 4.433593 4.070313 8.566406 7.996094 12.46875 11.898437 3.902343 3.902344 7.824219 8.03125 11.898437 12.46875.257813 6.046876.402344 11.746094.402344 17.230469s-.144531 11.183594-.402344 17.230469c-4.074218 4.433594-7.996094 8.5625-11.898437 12.46875-3.902344 3.902344-8.03125 7.824219-12.46875 11.898438-12.058594.515624-22.40625.515624-34.460938 0zm17.230469-209.597657c15.402344 0 30.921875 15.1875 43.046875 41.910157-.902344.410156-1.859375.914062-2.773437 1.34375-1.742188.820312-3.492188 1.667968-5.269532 2.554687-.957031.480469-1.878906.882813-2.84375 1.378906-.089844-.195312-.183594-.363281-.273437-.554687-1.132813-2.453125-2.28125-4.8125-3.457031-7.039063-.105469-.199219-.21875-.390625-.324219-.589843-1.21875-2.28125-2.457031-4.453126-3.710938-6.472657l-.046875-.082031c-1.25-2.007812-2.515625-3.855469-3.789062-5.59375-.140625-.1875-.277344-.390625-.414063-.578125-1.214843-1.621094-2.433593-3.097656-3.65625-4.464844-.195312-.21875-.390625-.441406-.585937-.652343-1.128906-1.230469-2.328125-2.394532-3.585938-3.488282-.207031-.179687-.414062-.351562-.621094-.523437-1.125-.941407-2.316406-1.796875-3.5625-2.558594-.1875-.113281-.371093-.207031-.554687-.3125-1.132813-.65625-2.332031-1.195313-3.574219-1.605469-.125-.039062-.246094-.058594-.371094-.09375-1.179687-.363281-2.402343-.554687-3.636718-.578125-11.046875 0-24.378906 15.816407-34.785156 41.277344-3.128907 7.761719-5.800782 15.699219-8.003907 23.773437-1.648437 5.957032-3.214843 12.644532-4.644531 19.867188-.773438 3.910156-1.484375 7.964844-2.136719 12.160156-.648437 4.15625-1.242187 8.425782-1.757812 12.847656-1.050781 8.90625-1.761719 17.449219-2.175781 26.113282v.003906c-.332032 7.085938-.496094 13.617188-.496094 19.957031 0 6.34375.164062 12.875.496094 19.964844.292968 6.148437.738281 12.230469 1.34375 18.425781-1.621094-.230468-3.320313-.425781-4.902344-.671875-2.503906-.394531-4.867188-.84375-7.269532-1.277343-.222656-2.484376-.460937-4.953126-.636718-7.472657-.449219-6.328125-.75-12.710937-.898438-18.960937-.078125-3.3125-.128906-6.644532-.128906-10.007813s.050781-6.691406.128906-10.003906c.148438-6.25.449219-12.632813.898438-18.964844.28125-4.039062.625-8.03125 1.023437-11.976562.851563-8.410157 1.96875-16.679688 3.328125-24.574219 1.878906-11.128906 4.394532-22.144531 7.53125-32.988281 2.167969-7.523438 4.738282-14.925781 7.699219-22.175781 12.429687-30.070313 28.976563-47.316407 45.390625-47.316407zm-78.304688 201.609375-.738281-.171875c-.363281-.085937-.679687-.175781-1.042969-.265625.214844-.351562.390626-.667968.609376-1.023437l.253906-.40625c.316406-.511719.691406-1.0625 1.019531-1.578125.464844.550781.933594 1.097656 1.40625 1.648437.054687.71875.109375 1.441407.167969 2.15625-.542969-.121093-1.140625-.234375-1.675782-.359375zm-41.371093-14.1875c-1.058594-.519531-2.09375-1.039062-3.070313-1.550781-.429687-.222656-.816406-.445313-1.230468-.667969-.726563-.390625-1.460938-.785156-2.144532-1.175781-.441406-.253906-.847656-.5-1.273437-.75-.601563-.355469-1.207031-.707031-1.769531-1.058594-.410157-.253906-.789063-.5-1.179688-.75-.523438-.335937-1.046875-.671875-1.535156-1-.375-.253906-.726563-.5-1.082032-.746093-.449218-.316407-.898437-.628907-1.316406-.9375-.335937-.246094-.652344-.484376-.964844-.726563-.394531-.300781-.78125-.597656-1.144531-.886719-.289062-.234375-.566406-.464844-.839843-.691406-.335938-.285156-.664063-.5625-.972657-.835938-.25-.21875-.492187-.4375-.722656-.652343-.289063-.265625-.5625-.523438-.820313-.78125-.210937-.203125-.414062-.40625-.609374-.601563-.238282-.25-.464844-.488281-.675782-.726562-.167968-.183594-.335937-.367188-.488281-.542969-.199219-.234375-.378906-.453125-.550781-.671875-.128906-.160156-.261719-.328125-.378906-.480469-.15625-.210937-.289063-.410156-.421876-.605469-.09375-.140624-.195312-.285156-.277343-.414062-.117188-.191406-.207031-.367188-.304688-.542969-.058593-.109375-.128906-.230469-.179687-.335937-.070313-.160156-.136719-.324219-.191406-.492188-.027344-.074218-.070313-.160156-.089844-.230468-.121094-.367188-.121094-.765626 0-1.128907.019531-.070312.0625-.160156.089844-.234375.054687-.167968.121093-.332031.191406-.492187.050781-.105469.125-.226563.1875-.34375.089844-.171875.179687-.339844.296875-.53125.082031-.132813.191406-.285157.285156-.429688.128906-.191406.257813-.382812.414063-.585937.117187-.160156.257812-.328125.390624-.496094.167969-.214844.339844-.429688.535157-.65625.15625-.179688.332031-.371094.507812-.5625.207031-.226562.421875-.460938.652344-.699219.203125-.207031.417969-.421875.640625-.636719.246094-.242187.507812-.488281.777344-.742187.246094-.226563.503906-.457031.769531-.691406.292969-.257813.601563-.523438.921875-.789063.289062-.242187.582031-.484375.890625-.730468.34375-.277344.710937-.5625 1.085937-.847657.332032-.253906.664063-.507812 1.019532-.765625.398437-.292968.824218-.589844 1.25-.890625.378906-.261719.75-.523437 1.148437-.792969.464844-.3125.960938-.628906 1.453125-.945312.414063-.265625.820313-.53125 1.257813-.800781.535156-.332031 1.113281-.667969 1.679687-1.003907.453125-.269531.886719-.53125 1.363282-.804687.644531-.367187 1.34375-.742187 2.03125-1.113281.445312-.242188.867187-.480469 1.332031-.726563.914062-.480469 1.890625-.964843 2.875-1.449219.292969-.144531.558593-.289062.859375-.433593 1.257812-.609375 2.582031-1.222657 3.953125-1.835938 1.695312 2.953125 3.511719 5.917969 5.355469 8.882813.3125.507812.59375 1.007812.914062 1.515625 2.347656 3.730469 4.804688 7.464843 7.367188 11.195312-2.566407 3.726563-5.023438 7.460938-7.367188 11.195313-.3125.496094-.585938.988281-.894531 1.484375-1.851563 2.976562-3.671875 5.953125-5.375 8.917969-1.375-.617188-2.703125-1.230469-3.964844-1.839844-.230469-.113282-.433594-.222656-.660156-.335938zm16.707031-117.886718c.078125-.511719.191406-1.011719.335938-1.507813.058593-.207031.101562-.496094.164062-.667969.132812-.433594.351562-.835937.644531-1.183594.324219-.265624.699219-.46875 1.097657-.597656.140624-.050781.320312-.097656.480468-.148437.507813-.148438 1.027344-.265625 1.550782-.34375.226562-.039063.449218-.078125.703124-.109375.984376-.121094 1.972657-.179688 2.964844-.1875l.128906-.003906c1.210938-.003907 2.609376.074218 4.132813.21875.175781.015624.339844.023437.523437.042968 1.496094.15625 3.164063.40625 4.953126.734375.285156.050781.574218.105469.867187.164063 1.816406.355468 3.785156.804687 5.894531 1.367187.335938.089844.683594.191407 1.023438.285157 2.199218.613281 4.53125 1.324218 7.039062 2.1875.261719.089843.539063.199218.800782.289062 1.121093.394531 2.382812.921875 3.5625 1.371094-.882813 3.261718-1.691407 6.621094-2.476563 10-.136719.582031-.296875 1.136718-.429687 1.722656-.976563 4.296875-1.878907 8.671875-2.703126 13.121094-4.445312.816406-8.816406 1.71875-13.113281 2.703125-.601562.136719-1.167969.296875-1.761719.4375-3.367187.785156-6.714843 1.589843-9.96875 2.46875-.277343-.722657-.585937-1.480469-.839843-2.183594-.472657-1.292969-.917969-2.558594-1.320313-3.777344-.472656-1.441406-.90625-2.828125-1.292968-4.164062-.320313-1.105469-.636719-2.203125-.898438-3.238281-.324219-1.265626-.597656-2.457032-.839844-3.613282-.199218-.925781-.402344-1.859375-.550781-2.714844-.191406-1.09375-.332031-2.09375-.457031-3.070312-.09375-.746094-.203125-1.515625-.261719-2.195312-.082031-.921876-.109375-1.730469-.132813-2.53125-.019531-.566407-.054687-1.179688-.046874-1.6875.011718-.753907.066406-1.378907.125-2.003907.035156-.390625.050781-.84375.101562-1.183593zm1.359375 125.320312c-.703125-.246094-1.355469-.507812-2.042969-.757812 1.578125-2.710938 3.078125-5.410157 4.785156-8.136719.109376-.175781.230469-.351563.339844-.527344 1.460938-2.3125 3.089844-4.625 4.636719-6.941406.382813.511719.804687 1.027343 1.191406 1.542969 1.238281 1.644531 2.519531 3.285156 3.800781 4.933593.898438 1.148438 1.742188 2.296875 2.65625 3.445313-.519531.800781-.941406 1.53125-1.445312 2.320312-1.125 1.765625-2.207031 3.5-3.242188 5.195313-.386718.636719-.84375 1.324219-1.214843 1.953125-1.191407-.355469-2.375-.714844-3.539063-1.082032-2.011718-.632812-4.007812-1.277343-5.925781-1.945312zm23.945313-85.058594c1.273437-.269531 2.570312-.511718 3.855468-.769531-.09375.648437-.164062 1.320313-.253906 1.96875-.285156 2.007813-.535156 4.035156-.785156 6.074219-.183594 1.46875-.402344 2.902344-.566406 4.382812-.929688.195313-1.742188.414063-2.648438.613282-2.066406.457031-4.074219.921874-6.027344 1.398437-.710937.171875-1.503906.332031-2.199218.507813-.59375-1.101563-1.183594-2.199219-1.75-3.289063-.972657-1.875-1.929688-3.738281-2.808594-5.566406-.320313-.664063-.59375-1.300781-.902344-1.957031 1.367188-.363282 2.730469-.726563 4.121094-1.070313 3.269531-.808594 6.589844-1.574219 9.964844-2.292969zm-1.550782 26.472656-.265625-.425781c-.21875-.351562-.390625-.667969-.605469-1.015625.363282-.089844.679688-.183594 1.050782-.269531l.722656-.167969c.539062-.125 1.136719-.238281 1.683594-.359375-.058594.714844-.113282 1.4375-.167969 2.15625-.472656.550781-.941406 1.097657-1.40625 1.648438-.328125-.515625-.699219-1.058594-1.011719-1.566407zm-39.578125-87.0625c6.746094-5.960937 15.597657-8.972656 24.578125-8.363281 12.183594.414063 24.199219 2.96875 35.5 7.554688-.347656.917969-.660156 1.941406-1 2.882812-.660156 1.820313-1.300781 3.671875-1.933594 5.570313-.339843 1.011718-.707031 1.945312-1.039062 2.980468-.5625-.210937-1.085938-.359374-1.644531-.5625-1.273438-.457031-2.511719-.867187-3.75-1.277343-1.605469-.53125-3.1875-1.035157-4.734375-1.480469-1.214844-.355469-2.402344-.671875-3.582032-.972656-1.480468-.378906-2.921874-.714844-4.335937-1.007813-1.136719-.238281-2.25-.460937-3.339844-.644531-1.359375-.230469-2.660156-.402344-3.949219-.550781-1.019531-.117188-2.039062-.234375-3.011718-.300781-1.246094-.082032-2.410156-.089844-3.570313-.085938-.882812 0-1.78125-.015625-2.613281.035156-1.136719.074219-2.167969.238282-3.199219.40625-.714843.113282-1.464843.1875-2.125.347656-.996093.261719-1.96875.597657-2.914062 1.007813-.484375.195313-1.035157.332031-1.480469.558594-1.238281.613281-2.378906 1.421875-3.371094 2.386719-3.238281 3.839843-4.945312 8.742187-4.789062 13.761718.304687 13.847656 3.5 27.480469 9.378906 40.019532 3.273438 7.703124 6.996094 15.207031 11.148438 22.476562 3.046874 5.375 6.667968 11.203125 10.765624 17.332031 1.863282 2.78125 3.828126 5.597657 5.890626 8.457031-.050782 2.738282-.085938 5.488282-.085938 8.261719 0 3.457031.050781 6.882813.132812 10.292969.007813.441406.023438.886719.035157 1.328125-.917969-1.15625-1.847657-2.3125-2.742188-3.472656-.691406-.898438-1.390625-1.792969-2.070312-2.691407-2.175781-2.875-4.292969-5.746093-6.3125-8.59375-.078125-.109374-.164063-.21875-.242188-.328124-6.535156-9.203126-12.546875-18.765626-17.996093-28.648438-3.785157-6.851562-7.203126-13.902344-10.238282-21.121094-12.472656-30.054687-12.96875-53.949218-1.359375-65.558594zm0 237.585938c-10.890625-10.890625-11.128906-32.605469-.808593-60.074219.917968.34375 1.941406.660157 2.882812 1 1.820312.660157 3.671875 1.300781 5.570312 1.933594 1.011719.335937 1.945313.703125 2.980469 1.035156-.210937.566407-.363281 1.089844-.5625 1.652344-.457031 1.261719-.863281 2.484375-1.269531 3.714844-.539062 1.625-1.046875 3.226562-1.5 4.792969-.34375 1.1875-.65625 2.347656-.949219 3.503906-.386719 1.515625-.730469 2.988281-1.03125 4.4375-.230469 1.097656-.445312 2.175781-.625 3.234375-.238281 1.402343-.414062 2.746093-.566406 4.070312-.113281.984375-.226563 1.964844-.289063 2.902344-.085937 1.285156-.09375 2.488281-.089843 3.679687.003906.851563-.015625 1.71875.035156 2.519532.082031 1.105468.222656 2.207031.417969 3.296875.109375.679687.183594 1.402343.332031 2.039062.265625 1.019531.613281 2.019531 1.03125 2.988281.191406.460938.320313.988282.535156 1.410157.617188 1.246093 1.421875 2.386719 2.390625 3.382812.902344.875 1.925782 1.621094 3.039063 2.207031.371093.203126.828125.335938 1.230469.515626.863281.402343 1.753906.738281 2.664062 1.007812.550781.15625 1.171875.25 1.765625.371094.964844.207031 1.9375.367187 2.921875.480468.695312.070313 1.4375.09375 2.171875.128907.65625.03125 1.25.117187 1.933594.117187.3125 0 .6875-.066406 1.003906-.074218 1.839844-.035157 3.792969-.1875 5.832031-.429688.535156-.0625 1.019532-.078125 1.566406-.15625 2.625-.375 5.398438-.917969 8.296876-1.613281.726562-.175781 1.496093-.414063 2.238281-.609375 2.238281-.585938 4.53125-1.25 6.90625-2.023438 1.050781-.339844 2.109375-.710937 3.183593-1.085937.964844-.339844 1.886719-.613281 2.867188-.980469.328125 1.035156.695312 1.96875 1.035156 2.984375.632813 1.898437 1.273438 3.746094 1.933594 5.570313.339844.9375.652344 1.960937 1 2.878906-27.472656 10.316406-49.183594 10.082031-60.074219-.808594zm33.960938-49.789062c4.296875.980468 8.671875 1.878906 13.121093 2.707031.816407 4.445312 1.71875 8.816406 2.703126 13.113281.136718.597656.296874 1.164062.4375 1.761719.785156 3.367187 1.589843 6.714843 2.46875 9.96875-.726563.277343-1.488282.585937-2.1875.84375-1.289063.464843-2.550782.910156-3.761719 1.308593-1.453125.480469-2.847657.914063-4.191407 1.304688-1.09375.316406-2.183593.628906-3.207031.890625-1.28125.328125-2.488281.601563-3.65625.847656-.910156.195313-1.828125.394531-2.667969.542969-1.113281.195312-2.132812.335938-3.128906.460938-.722656.09375-1.476562.199218-2.136718.257812-.949219.085938-1.785157.113281-2.605469.136719-.539063.015625-1.128907.054687-1.617188.046875-.78125-.011719-1.4375-.070313-2.082031-.128906-.363281-.035157-.789062-.050782-1.109375-.097657-.53125-.078125-1.054687-.195312-1.570313-.347656-.1875-.054687-.453124-.09375-.613281-.152344-.917969-.195312-1.632812-.910156-1.832031-1.828125-.0625-.175781-.105469-.460937-.164062-.667968-.144532-.496094-.257813-.996094-.335938-1.507813-.050781-.339844-.066406-.792969-.101562-1.183594-.054688-.625-.113282-1.25-.125-2.003906-.007813-.507813.03125-1.121094.046874-1.6875.023438-.800781.050782-1.609375.132813-2.53125.058594-.679687.171875-1.453125.265625-2.195313.121094-.976562.261719-1.980468.453125-3.070312.148437-.855469.355469-1.789062.550781-2.714844.242188-1.15625.515625-2.347656.839844-3.613281.265625-1.035156.578125-2.132813.898438-3.238281.386718-1.335938.820312-2.722656 1.296874-4.164063.398438-1.21875.84375-2.484375 1.316407-3.777343.253906-.703126.5625-1.460938.839843-2.183594 3.261719.882812 6.621094 1.6875 10 2.476562.582032.136719 1.136719.292969 1.722657.425782zm84.832031 8.996093c3.457031 0 6.882812-.054687 10.292969-.136719.441406-.007812.886719-.019531 1.328125-.03125-1.15625.914063-2.3125 1.84375-3.472656 2.738282-.898438.691406-1.792969 1.394531-2.691407 2.074218-2.875 2.171876-5.746093 4.292969-8.59375 6.3125-.109375.078126-.21875.160157-.328125.238282-4.355468 3.082031-8.726562 5.972656-13.089844 8.742187-1.347656.855469-2.695312 1.652344-4.042968 2.480469-1.839844 1.128906-3.667969 2.167969-5.5 3.234375-.25-.691406-.511719-1.339844-.757813-2.046875-.667969-1.910156-1.304687-3.898438-1.941406-5.90625-.367187-1.167969-.726563-2.355469-1.082031-3.554688.925781-.550781 1.902344-1.171874 2.851562-1.75.742188-.457031 1.476563-.902343 2.234375-1.375 2.574219-1.613281 5.199219-3.296874 7.90625-5.105468l.164063-.109375h.003906c2.78125-1.863281 5.601562-3.824219 8.457031-5.894531.433594.007812.871094-.007813 1.300781 0 2.3125.039062 4.621094.089843 6.960938.089843zm102.96875 20.464844c-.078125.511719-.191406 1.011719-.335938 1.507813-.058593.207031-.101562.496093-.164062.667968-.199219.917969-.914062 1.632813-1.832031 1.828125-.15625.058594-.417969.097657-.601563.148438-.515625.152343-1.046875.273437-1.582031.351562-.316406.046875-.742187.0625-1.101563.09375-.648437.0625-1.304687.121094-2.089843.132813-.488281.007812-1.078125-.03125-1.617188-.046875-.820312-.023438-1.65625-.050781-2.601562-.132813-.664063-.058594-1.417969-.167968-2.144531-.261718-.992188-.125-2.007813-.265626-3.117188-.460938-.84375-.148438-1.769531-.351562-2.679688-.542969-1.167968-.246093-2.371093-.523437-3.644531-.847656-1.027343-.261719-2.117187-.574219-3.214843-.894531-1.34375-.386719-2.742188-.824219-4.195313-1.300782-1.207031-.398437-2.457031-.839843-3.734375-1.304687-.710938-.257813-1.480469-.570313-2.210938-.847656.878907-3.253907 1.683594-6.601563 2.46875-9.96875.140626-.597657.300782-1.164063.4375-1.761719.976563-4.296875 1.878907-8.667969 2.703126-13.117188 4.445312-.816406 8.816406-1.71875 13.113281-2.699218.601562-.136719 1.167969-.300782 1.761719-.4375 3.367187-.789063 6.714843-1.589844 9.96875-2.472656.277343.722656.585937 1.484374.839843 2.183593.472657 1.296875.917969 2.558594 1.320313 3.777344.472656 1.441406.90625 2.832031 1.292968 4.164063.320313 1.109374.636719 2.207031.898438 3.242187.324219 1.265625.597656 2.457031.839844 3.609375.199218.929688.402344 1.863281.550781 2.71875.191406 1.089844.332031 2.089844.457031 3.066406.09375.746094.203125 1.519532.261719 2.199219.082031.917969.109375 1.726563.132813 2.53125.019531.566406.054687 1.179687.046874 1.6875-.011718.753906-.066406 1.378906-.125 2.003906-.035156.390625-.050781.84375-.101562 1.183594zm-55.625-10.410156c-1.097656-.574219-2.207031-1.164063-3.320312-1.765625.179687-.695313.335937-1.488282.511718-2.199219.476563-1.953125.941406-3.960937 1.398438-6.027344.199218-.90625.417968-1.71875.613281-2.648437 1.4375-.160156 2.835937-.371094 4.265625-.550782 2.089844-.257812 4.175781-.515624 6.234375-.804687.636719-.089844 1.292969-.15625 1.925781-.25-.257812 1.285156-.5 2.582031-.769531 3.855469-.714844 3.378906-1.480469 6.699218-2.292969 9.964844-.347656 1.390624-.707031 2.753906-1.070312 4.121093-.660156-.3125-1.304688-.585937-1.972656-.90625-1.8125-.875-3.664063-1.824219-5.523438-2.789062zm-34.621094 21.648437c2.964844 1.839844 5.925782 3.65625 8.871094 5.347656-.613281 1.371094-1.226562 2.695313-1.835938 3.953126-.144531.296874-.285156.566406-.429687.859374-.488281.984376-.972656 1.957032-1.453125 2.871094-.242188.464844-.484375.890625-.726562 1.335938-.371094.6875-.746094 1.382812-1.113282 2.03125-.269531.472656-.535156.910156-.804687 1.363281-.332031.566406-.671875 1.144531-1 1.679687-.273438.4375-.535157.84375-.804688 1.257813-.316406.492187-.632812.988281-.945312 1.449219-.269531.402344-.53125.773437-.792969 1.148437-.300781.429688-.597656.855469-.890625 1.253907-.257813.351562-.511719.683593-.765625 1.015624-.285156.375-.566406.742188-.847656 1.089844-.246094.308594-.488282.601563-.726563.890625-.269531.316407-.535156.628907-.792969.921875-.234374.265625-.464843.523438-.691406.765625-.25.273438-.5.53125-.742187.78125-.214844.21875-.429688.4375-.636719.640625-.238281.230469-.46875.445313-.699219.652344-.191406.175781-.378906.347656-.5625.507812-.226562.191407-.441406.367188-.65625.535157-.167969.132812-.335937.273437-.496093.390625-.203126.152344-.394532.28125-.585938.410156-.144531.097656-.296875.203125-.429688.289062-.191406.117188-.359374.207032-.53125.296876-.117187.0625-.238281.132812-.34375.183593-.160156.074219-.324218.140625-.492187.195313-.074219.027344-.164063.066406-.234375.085937-.363281.125-.761719.125-1.128906 0-.070313-.019531-.15625-.058593-.230469-.085937-.167969-.054688-.332031-.121094-.492187-.195313-.105469-.046875-.230469-.121093-.34375-.183593-.171876-.089844-.34375-.179688-.53125-.296876-.136719-.085937-.285157-.191406-.429688-.289062-.191406-.128906-.382812-.257812-.589844-.410156-.15625-.117188-.328125-.257813-.492187-.390625-.214844-.167969-.429688-.34375-.65625-.535157-.183594-.160156-.375-.332031-.5625-.507812-.230469-.207031-.460938-.421875-.699219-.652344-.207031-.203125-.421875-.421875-.636719-.640625-.242187-.25-.488281-.507812-.742187-.78125-.226563-.242187-.457032-.5-.691406-.765625-.257813-.292968-.523438-.601562-.792969-.921875-.238281-.289062-.480469-.582031-.726563-.890625-.28125-.347656-.5625-.714844-.847656-1.089844-.253906-.332031-.507812-.664062-.765625-1.015624-.292969-.398438-.589844-.824219-.890625-1.253907-.261719-.375-.527344-.746093-.792969-1.148437-.3125-.460938-.628906-.957032-.945312-1.449219-.269531-.417969-.535157-.820313-.804688-1.257813-.328125-.535156-.667969-1.113281-1-1.679687-.269531-.453125-.535156-.890625-.804687-1.363281-.367188-.648438-.742188-1.34375-1.113282-2.03125-.242187-.445313-.484374-.871094-.726562-1.335938-.480469-.914062-.964844-1.886718-1.453125-2.871094-.144531-.292968-.285156-.5625-.429687-.859374-.609376-1.257813-1.222657-2.582032-1.835938-3.953126 2.949219-1.695312 5.917969-3.511718 8.882812-5.355468.507813-.316406 1.007813-.59375 1.511719-.914063 3.734375-2.347656 7.464844-4.804687 11.199219-7.367187 3.726562 2.566406 7.460938 5.023437 11.195312 7.367187.511719.320313 1.015626.605469 1.527344.921875zm-44.464844-30.480468-.40625.253906c-.355468.21875-.671874.394531-1.023437.609375-.089844-.363281-.183594-.679688-.269531-1.050781l-.167969-.722657c-.125-.539062-.238281-1.136719-.359375-1.683593.714844.058593 1.4375.113281 2.15625.167968.550781.472656 1.097656.941406 1.648438 1.40625-.515626.328125-1.066407.703125-1.578126 1.019532zm63.554688-2.425782c.71875-.054687 1.441406-.109375 2.15625-.167968-.121094.546874-.234375 1.144531-.359375 1.683593l-.167969.722657c-.085937.371093-.179687.6875-.269531 1.050781-.351563-.214844-.667969-.390625-1.023437-.609375l-.40625-.253906c-.511719-.316407-1.0625-.691407-1.578126-1.019532.550782-.464844 1.097657-.933594 1.648438-1.40625zm-31.8125 91.203125c-16.414062 0-32.960938-17.246093-45.390625-47.316406-2.960937-7.25-5.53125-14.652344-7.699219-22.175781-1.363281-4.667969-2.59375-9.53125-3.75-14.476563-.347656-1.480469-.664062-2.996093-.992187-4.496093-.410157-1.882813-.757813-3.816407-1.140625-5.726563.648437.09375 1.320312.164063 1.96875.253906 2.007812.28125 4.035156.53125 6.074218.785157 1.46875.183593 2.902344.402343 4.382813.566406.292969 1.390625.605469 2.679687.910156 4.019531.214844.960937.425781 1.9375.648438 2.871094.699219 2.953125 1.414062 5.804687 2.15625 8.480469l.042969.167968v.003906c2.203124 8.070313 4.875 16.007813 8.003906 23.769532 10.40625 25.460937 23.738281 41.273437 34.785156 41.273437 1.234375-.019531 2.457031-.214843 3.636719-.574219.125-.035156.246093-.054687.371093-.097656 1.242188-.410156 2.441407-.949218 3.570313-1.605468.1875-.105469.371094-.199219.554687-.308594 1.25-.765625 2.441407-1.621094 3.5625-2.558594.207032-.171875.414063-.347656.625-.527344 1.257813-1.09375 2.457032-2.257812 3.585938-3.484375.195312-.210937.390625-.4375.585938-.65625 1.222656-1.363281 2.441406-2.839843 3.652343-4.464843.140625-.1875.277344-.386719.417969-.578126 1.269531-1.738281 2.535156-3.582031 3.785156-5.589843l.050782-.082031c1.253906-2.019532 2.492187-4.195313 3.710937-6.472657.105469-.203125.214844-.390625.324219-.59375 1.175781-2.226562 2.324218-4.585937 3.453125-7.035156.089843-.195313.1875-.363281.273437-.558594.96875.5 1.886719.898438 2.84375 1.378907 1.78125.890624 3.539063 1.742187 5.289063 2.5625.910156.425781 1.859375.933593 2.757812 1.339843-12.128906 26.71875-27.648437 41.90625-43.050781 41.90625zm118.792969-49.207031c-11.609375 11.609375-35.503907 11.113281-65.554688-1.359375-7.21875-3.03125-14.269531-6.453125-21.121093-10.238281-4.265626-2.339844-8.578126-4.90625-12.894532-7.585938-1.28125-.796875-2.5625-1.636718-3.84375-2.457031-1.628906-1.046875-3.257812-2.171875-4.886718-3.261719.53125-.394531 1.0625-.828125 1.59375-1.226562 1.617187-1.21875 3.222656-2.472656 4.839843-3.730469 1.164063-.90625 2.328125-1.765625 3.488281-2.691406 1.1875.773437 2.320313 1.464843 3.480469 2.199219.835938.523437 1.679688 1.066406 2.496094 1.574218 2.527344 1.558594 4.996094 3.035156 7.359375 4.378906.097656.054688.203125.125.296875.175782l.011719.007812c5.484375 3.101563 10.785156 5.746094 15.972656 8.164063 2.175781 1.011719 4.386719 2.097656 6.492188 2.980469h.007812c3.457031 1.449218 6.804688 2.703124 10.066406 3.820312 1.113282.382812 2.160156.671875 3.246094 1.015625 2.113281.667969 4.199219 1.300781 6.203125 1.820313 1.1875.304687 2.316406.550781 3.460937.804687 1.808594.402344 3.566407.753906 5.265626 1.023437 1.097656.175782 2.160156.328126 3.203124.445313 1.644532.191406 3.199219.292969 4.710938.347656.605469.023438 1.304688.140625 1.890625.140625.386719 0 .714844-.054687 1.09375-.066406.6875-.015625 1.332031-.070312 1.988281-.117188 1.148438-.085937 2.289063-.230468 3.421875-.433593.601563-.113281 1.195313-.226563 1.757813-.367188 1-.261719 1.984375-.601562 2.933594-1.011719.425781-.183593.886718-.332031 1.28125-.539062 2.476562-1.1875 4.46875-3.191406 5.640624-5.675781.21875-.421875.347657-.949219.535157-1.410157.421875-.96875.765625-1.96875 1.03125-2.992187.152343-.632813.222656-1.355469.335937-2.035156.195313-1.09375.332032-2.195313.414063-3.300781.050781-.800782.035156-1.664063.039062-2.515626.003907-1.191406-.003906-2.394531-.09375-3.679687-.0625-.9375-.175781-1.917969-.289062-2.902344-.152344-1.324219-.328125-2.667969-.566407-4.074219-.179687-1.054687-.394531-2.132812-.621093-3.230468-.304688-1.449219-.644531-2.921875-1.035157-4.441406-.292968-1.152344-.605468-2.3125-.949218-3.5-.453125-1.570313-.960938-3.167969-1.5-4.792969-.40625-1.230469-.8125-2.457031-1.269532-3.714844-.199218-.5625-.351562-1.085937-.5625-1.652344 1.035157-.332031 1.96875-.699219 2.984376-1.039062 1.898437-.632813 3.746093-1.273438 5.570312-1.933594.9375-.339844 1.960938-.652344 2.878906-1 10.324219 27.472656 10.085938 49.183594-.804687 60.078125zm1.890625-73.402344c-7.25 2.960938-14.652344 5.53125-22.175782 7.699219-10.84375 3.136719-21.855468 5.652344-32.984374 7.53125-7.898438 1.355469-16.167969 2.476563-24.578126 3.324219l-.015624.003906c-3.9375.398438-7.921876.738281-11.960938 1.023438-6.332031.449218-12.710938.75-18.960938.898437-6.628906.152344-13.386718.152344-20.015624 0-6.25-.148437-12.632813-.453125-18.960938-.898437-4.039062-.285157-8.03125-.625-11.976562-1.027344-8.414063-.847656-16.683594-1.96875-24.578126-3.324219-11.128906-1.882813-22.144531-4.398437-32.984374-7.53125-7.527344-2.167969-14.925782-4.738281-22.175782-7.699219-30.070312-12.429687-47.316406-28.976562-47.316406-45.390625 0-15.40625 15.1875-30.921875 41.910156-43.050781.410156.90625.914063 1.859375 1.34375 2.777344.820313 1.742187 1.667969 3.492187 2.554688 5.265625.480468.960937.882812 1.882812 1.382812 2.847656-.199218.089844-.367187.183594-.558594.273437-2.453124 1.128907-4.8125 2.28125-7.039062 3.457032-.199219.105468-.390625.214844-.589844.324218-2.28125 1.21875-4.453125 2.453126-6.472656 3.710938l-.082031.046875c-2.007813 1.25-3.855469 2.515625-5.59375 3.789063-.1875.136718-.390625.273437-.578125.414062-1.621094 1.214844-3.097656 2.433594-4.464844 3.65625-.21875.195312-.441406.390625-.652344.582031-1.230468 1.132813-2.394531 2.328125-3.488281 3.589844-.179687.207031-.351563.414063-.523437.621094-.941407 1.125-1.796876 2.3125-2.558594 3.5625-.113282.1875-.207032.371093-.3125.554687-.65625 1.132813-1.195313 2.328125-1.605469 3.570313-.039063.125-.058594.25-.09375.375-.363281 1.175781-.554687 2.402343-.578125 3.632812 0 11.050781 15.816406 24.378907 41.277344 34.789063 7.761718 3.128906 15.699218 5.800781 23.773437 8.003906 5.957031 1.648438 12.644531 3.210938 19.867188 4.640625 3.910156.773437 7.964843 1.488281 12.160156 2.136719 4.15625.652344 8.425781 1.242187 12.847656 1.761718 8.90625 1.050782 17.445313 1.761719 26.117188 2.175782 13.296875.667968 26.621093.667968 39.921875 0 8.664062-.414063 17.207031-1.125 26.105468-2.175782 4.425782-.519531 8.699219-1.109374 12.859376-1.761718 4.183593-.65625 8.242187-1.359375 12.15625-2.136719 7.222656-1.429687 13.910156-2.992187 19.867187-4.640625l.003906-.003906c8.074219-2.203125 16.011719-4.871094 23.769531-8 25.460938-10.410156 41.277344-23.738282 41.277344-34.789063-.023437-1.230469-.214844-2.457031-.578125-3.632812-.035156-.125-.054687-.25-.09375-.375-.410156-1.242188-.949219-2.4375-1.605469-3.570313-.105468-.183594-.199218-.367187-.3125-.554687-.761718-1.25-1.617187-2.441407-2.558593-3.5625-.171875-.207031-.34375-.414063-.523438-.621094-1.09375-1.261719-2.257812-2.457031-3.488281-3.589844-.210938-.191406-.433594-.386719-.652344-.582031-1.367187-1.222656-2.84375-2.441406-4.464844-3.65625-.1875-.140625-.390624-.277344-.578124-.414062-1.738282-1.273438-3.585938-2.539063-5.59375-3.789063l-.082032-.046875c-2.019531-1.257812-4.191406-2.492188-6.472656-3.710938-.199219-.109374-.390625-.21875-.589844-.324218-2.226562-1.175782-4.585937-2.328125-7.039062-3.457032-.191406-.089843-.359375-.183593-.554688-.273437.496094-.964844.898438-1.886719 1.375-2.84375.890625-1.78125 1.746094-3.539063 2.566406-5.285156.425782-.914063.929688-1.859375 1.335938-2.761719 26.722656 12.128906 41.910156 27.644531 41.910156 43.050781-.003906 16.414063-17.25 32.960938-47.320312 45.390625zm0 0"/><path d="m210 180.144531c0-16.570312-13.429688-30-30-30-16.566406 0-30 13.429688-30 30 0 16.566407 13.433594 30 30 30 16.558594-.019531 29.980469-13.441406 30-30zm-48 0c0-9.941406 8.058594-18 18-18s18 8.058594 18 18c0 9.941407-8.058594 18-18 18-9.9375-.011719-17.988281-8.0625-18-18zm0 0"/></svg>