<svg height="464pt" viewBox="-80 0 464 464" width="464pt" xmlns="http://www.w3.org/2000/svg"><path d="m0 0h304v464h-304zm0 0" fill="#fcf05a"/><path d="m32 32h240v176h-240zm0 0" fill="#5a6470"/><path d="m112 264h-24v-24h-32v24h-24v32h24v24h32v-24h24zm0 0" fill="#5a6470"/><path d="m216 336c0 13.253906-10.746094 24-24 24s-24-10.746094-24-24 10.746094-24 24-24 24 10.746094 24 24zm0 0" fill="#dd3e46"/><path d="m272 288c0 13.253906-10.746094 24-24 24s-24-10.746094-24-24 10.746094-24 24-24 24 10.746094 24 24zm0 0" fill="#dd3e46"/><path d="m104 432c-3.527344.003906-6.640625-2.300781-7.664062-5.675781-1.023438-3.375.28125-7.023438 3.214843-8.980469l24-16c3.675781-2.453125 8.644531-1.460938 11.097657 2.214844 2.453124 3.675781 1.460937 8.644531-2.214844 11.097656l-24 16c-1.3125.875-2.855469 1.34375-4.433594 1.34375zm0 0" fill="#5a6470"/><path d="m152 432c-3.527344.003906-6.640625-2.300781-7.664062-5.675781-1.023438-3.375.28125-7.023438 3.214843-8.980469l24-16c3.675781-2.453125 8.644531-1.460938 11.097657 2.214844 2.453124 3.675781 1.460937 8.644531-2.214844 11.097656l-24 16c-1.3125.875-2.855469 1.34375-4.433594 1.34375zm0 0" fill="#5a6470"/><g fill="#aabece"><path d="m88 64h128v112h-128zm0 0"/><path d="m32 56h32v16h-32zm0 0"/><path d="m240 56h32v16h-32zm0 0"/><path d="m32 168h32v16h-32zm0 0"/><path d="m240 168h32v16h-32zm0 0"/></g><path d="m253.761719 464-28-35.039062 12.476562-9.921876 36 44.960938zm0 0" fill="#5a6470"/><path d="m304 451.28125v12.71875h-10.238281l-60-75.039062 12.476562-9.921876zm0 0" fill="#5a6470"/><path d="m304 429.359375-30.398438-40.558594 12.796876-9.601562 17.601562 23.519531zm0 0" fill="#5a6470"/></svg>