<svg height="472pt" viewBox="-4 0 472 472.00005" width="472pt" xmlns="http://www.w3.org/2000/svg"><path d="m96.144531 336c-43.625-.011719-81.753906-29.457031-92.796875-71.664062l14.398438 144.238281c3.589844 36.035156 33.925781 63.46875 70.136718 63.425781 36.410157.015625 66.824219-27.738281 70.136719-64l9.535157-104c-18.148438 20.363281-44.132813 32.003906-71.410157 32zm0 0" fill="#aabece"/><path d="m368.144531 336c-27.277343.003906-53.257812-11.636719-71.40625-32l14.894531 106.902344c4.882813 35.027344 34.835938 61.097656 70.203126 61.097656 37.3125 0 68.238281-28.933594 70.71875-66.167969l9.863281-147.960937c-8.582031 45.304687-48.164063 78.105468-94.273438 78.128906zm0 0" fill="#aabece"/><path d="m78.816406 447.886719c-53.070312-8.949219-47.023437-116.246094-46.160156-128.445313l15.960938 1.117188c-2.039063 29.144531-.109376 105.984375 32.855468 111.554687zm0 0" fill="#fff"/><path d="m96.226562 448c-4.417968.023438-8.019531-3.542969-8.039062-7.960938-.023438-4.417968 3.539062-8.015624 7.957031-8.039062h.082031c4.417969 0 8 3.582031 8 8s-3.582031 8-8 8zm0 0" fill="#fff"/><path d="m393.042969 447.871094-2.792969-15.742188c33.40625-5.945312 35.367188-90.457031 33.40625-119.601562l16-1.054688c.84375 12.960938 6.890625 126.925782-46.613281 136.398438zm0 0" fill="#fff"/><path d="m375.640625 448h-.070313c-4.410156-.019531-7.972656-3.605469-7.964843-8.019531.011719-4.410157 3.589843-7.980469 8-7.980469 4.410156 0 7.992187 3.570312 8 7.980469.011719 4.414062-3.550781 8-7.964844 8.019531zm0 0" fill="#fff"/><path d="m72.144531 112h32c13.257813 0 24 10.746094 24 24v56h-80v-56c0-13.253906 10.746094-24 24-24zm0 0" fill="#5a6470"/><path d="m360.144531 112h32c13.257813 0 24 10.746094 24 24v56h-80v-56c0-13.253906 10.746094-24 24-24zm0 0" fill="#5a6470"/><path d="m368.144531 144c-27.277343-.003906-53.257812 11.636719-71.40625 32h-129.183593c-26.535157-29.667969-68.625-39.882812-105.808594-25.679688-37.183594 14.203126-61.746094 49.875-61.746094 89.679688s24.5625 75.476562 61.746094 89.679688c37.183594 14.203124 79.273437 3.988281 105.808594-25.679688h129.183593c29.425781 32.824219 77.429688 41.375 116.382813 20.730469 38.949218-20.640625 58.820312-65.171875 48.175781-107.949219s-49.066406-72.800781-93.152344-72.78125zm0 0" fill="#cfdfe8"/><g fill="#5a6470"><path d="m224.144531 256c0 13.253906-10.742187 24-24 24-13.253906 0-24-10.746094-24-24s10.746094-24 24-24c13.257813 0 24 10.746094 24 24zm0 0"/><path d="m288.144531 256c0 13.253906-10.742187 24-24 24-13.253906 0-24-10.746094-24-24s10.746094-24 24-24c13.257813 0 24 10.746094 24 24zm0 0"/><path d="m200.144531 144h64v32h-64zm0 0"/><path d="m94.765625 178.746094 22.628906 22.625-22.628906 22.628906-22.628906-22.628906zm0 0"/><path d="m94.765625 258.746094 22.628906 22.625-22.628906 22.628906-22.628906-22.628906zm0 0"/><path d="m54.765625 218.746094 22.628906 22.625-22.628906 22.628906-22.628906-22.628906zm0 0"/><path d="m134.765625 218.746094 22.628906 22.625-22.628906 22.628906-22.628906-22.628906zm0 0"/></g><path d="m386.085938 190.054688c6.25 6.25 6.25 16.378906 0 22.628906s-16.378907 6.25-22.628907 0c-6.246093-6.25-6.246093-16.378906 0-22.628906 6.25-6.246094 16.378907-6.246094 22.628907 0zm0 0" fill="#dd3e46"/><path d="m386.085938 270.054688c6.246093 6.25 6.246093 16.382812 0 22.628906-6.25 6.25-16.378907 6.25-22.628907 0-6.246093-6.246094-6.246093-16.378906 0-22.628906 6.25-6.246094 16.378907-6.246094 22.628907 0zm0 0" fill="#dd3e46"/><path d="m346.085938 230.054688c6.246093 6.25 6.246093 16.378906 0 22.628906-6.25 6.25-16.378907 6.25-22.628907 0-6.246093-6.25-6.246093-16.378906 0-22.628906 6.25-6.246094 16.378907-6.246094 22.628907 0zm0 0" fill="#dd3e46"/><path d="m426.085938 230.054688c6.25 6.25 6.25 16.382812 0 22.628906-6.25 6.25-16.378907 6.25-22.628907 0-6.246093-6.246094-6.246093-16.378906 0-22.628906 6.25-6.246094 16.378907-6.246094 22.628907 0zm0 0" fill="#dd3e46"/><path d="m224.144531 0h16v144h-16zm0 0" fill="#2d343a"/><path d="m216.144531 200h32v16h-32zm0 0" fill="#5a6470"/><path d="m264.144531 200h16v16h-16zm0 0" fill="#5a6470"/><path d="m184.144531 200h16v16h-16zm0 0" fill="#5a6470"/></svg>