<svg height="464pt" viewBox="0 -31 464 463" width="464pt" xmlns="http://www.w3.org/2000/svg"><path d="m360 176.5h-256c-57.441406 0-104 50.144531-104 112s46.558594 112 104 112c43.257812 0 80.328125-31.527344 96-72h64c15.671875 40.472656 52.742188 72 96 72 57.441406 0 104-50.144531 104-112s-46.558594-112-104-112zm0 0" fill="#cfdfe8"/><path d="m464 .5h-232c-8.835938 0-16 7.164062-16 16v128h32v-112h216zm0 0" fill="#5a6470"/><path d="m144 272.5h-32v-32h-32v32h-32v32h32v32h32v-32h32zm0 0" fill="#5a6470"/><path d="m384 240.5c0 8.835938-7.164062 16-16 16s-16-7.164062-16-16 7.164062-16 16-16 16 7.164062 16 16zm0 0" fill="#fca710"/><path d="m384 336.5c0 8.835938-7.164062 16-16 16s-16-7.164062-16-16 7.164062-16 16-16 16 7.164062 16 16zm0 0" fill="#238892"/><path d="m336 288.5c0 8.835938-7.164062 16-16 16s-16-7.164062-16-16 7.164062-16 16-16 16 7.164062 16 16zm0 0" fill="#e9686a"/><path d="m432 288.5c0 8.835938-7.164062 16-16 16s-16-7.164062-16-16 7.164062-16 16-16 16 7.164062 16 16zm0 0" fill="#2d75bb"/><g fill="#5a6470"><path d="m192 200.5h80v16h-80zm0 0"/><path d="m208 280.5h16v16h-16zm0 0"/><path d="m240 280.5h16v16h-16zm0 0"/><path d="m288 200.5h16v16h-16zm0 0"/><path d="m160 200.5h16v16h-16zm0 0"/></g><path d="m192 144.5h80v32h-80zm0 0" fill="#a4acb2"/></svg>