<svg height="464pt" viewBox="0 0 464.00021 464" width="464pt" xmlns="http://www.w3.org/2000/svg"><path d="m360 184h72v-80h-24zm0 0" fill="#aabece"/><path d="m408 192c-4.417969 0-8-3.582031-8-8v-24c0-4.421875 3.582031-8 8-8s8 3.578125 8 8v24c0 4.417969-3.582031 8-8 8zm0 0" fill="#fff"/><path d="m464 184c0 61.855469-50.144531 112-112 112h-352c-.03125-16.609375 3.660156-33.011719 10.800781-48 5.527344-11.5625 12.964844-22.109375 22-31.203125.273438-.285156.566407-.554687.878907-.796875 20.90625-20.519531 49.03125-32.011719 78.320312-32zm0 0" fill="#195c85"/><path d="m462.953125 64c.660156-2.316406 1.015625-4.707031 1.046875-7.113281-.347656-16.046875-13.632812-28.777344-29.679688-28.441407-3.199218.035157-6.375.578126-9.40625 1.601563-6.546874-18.546875-24.367187-30.699219-44.023437-30.0195312-19.652344.6796872-36.59375 14.0351562-41.84375 32.9882812-4.804687-2.976563-10.34375-4.554687-16-4.5625-16.046875-.335937-29.328125 12.394531-29.679687 28.441406.03125 2.402344.375 4.792969 1.03125 7.105469zm0 0" fill="#32b1cc"/><path d="m159.015625 448c.621094-2.019531.953125-4.117188.984375-6.226562-.855469-14.535157-13.285156-25.652344-27.824219-24.886719-2.984375.03125-5.949219.503906-8.800781 1.398437-6.410156-16.308594-22.378906-26.828125-39.894531-26.285156-18.507813-.652344-35.15625 11.183594-40.625 28.878906-4.570313-2.632812-9.757813-4.011718-15.03125-4-14.542969-.765625-26.972657 10.359375-27.824219 24.894532.0351562 2.109374.363281 4.207031.984375 6.226562zm0 0" fill="#32b1cc"/><path d="m230.578125 144c.898437-3.144531 1.378906-6.394531 1.421875-9.664062-.472656-21.816407-18.527344-39.125-40.34375-38.675782-4.355469.050782-8.675781.785156-12.800781 2.179688-8.410157-24.691406-31.742188-41.167969-57.824219-40.839844-27.621094-.390625-51.941406 18.136719-58.902344 44.871094-6.542968-4.058594-14.09375-6.210938-21.792968-6.210938-21.8125-.445312-39.863282 16.863282-40.335938 38.675782.0429688 3.269531.523438 6.519531 1.425781 9.664062zm0 0" fill="#7fcac9"/><path d="m462.578125 464c.898437-3.144531 1.378906-6.394531 1.421875-9.664062-.472656-21.816407-18.527344-39.125-40.34375-38.675782-4.355469.050782-8.675781.785156-12.800781 2.179688-8.894531-25.207032-33.117188-41.730469-59.832031-40.816406-26.714844.917968-49.746094 19.058593-56.894532 44.816406-6.542968-4.0625-14.09375-6.210938-21.792968-6.210938-21.824219-.445312-39.882813 16.878906-40.335938 38.707032.042969 3.269531.523438 6.519531 1.425781 9.664062zm0 0" fill="#7fcac9"/><g fill="#aabece"><path d="m256 272 88 80h-48l-136-80zm0 0"/><path d="m168 216c8.835938 0 16 7.160156 16 16 0 8.835938-7.164062 16-16 16s-16-7.164062-16-16c0-8.839844 7.164062-16 16-16zm0 0"/><path d="m232 216c8.835938 0 16 7.160156 16 16 0 8.835938-7.164062 16-16 16s-16-7.164062-16-16c0-8.839844 7.164062-16 16-16zm0 0"/><path d="m296 216c8.835938 0 16 7.160156 16 16 0 8.835938-7.164062 16-16 16s-16-7.164062-16-16c0-8.839844 7.164062-16 16-16zm0 0"/><path d="m360 216c8.835938 0 16 7.160156 16 16 0 8.835938-7.164062 16-16 16s-16-7.164062-16-16c0-8.839844 7.164062-16 16-16zm0 0"/><path d="m104 232c-.027344 8.824219-7.175781 15.972656-16 16h-77.199219c5.527344-11.5625 12.964844-22.109375 22-31.203125.273438-.285156.566407-.554687.878907-.796875h54.320312c8.824219.023438 15.972656 7.171875 16 16zm0 0"/></g></svg>