<svg height="464pt" viewBox="-112 0 464 464" width="464pt" xmlns="http://www.w3.org/2000/svg"><path d="m192 456h-144c-26.511719 0-48-21.488281-48-56v-352c0-18.511719 21.488281-40 48-40h144c26.511719 0 48 21.488281 48 40v352c0 34.511719-21.488281 56-48 56zm0 0" fill="#cfdfe8"/><path d="m0 48v16h240v-16c0-26.507812-21.492188-48-48-48h-144c-26.507812 0-48 21.492188-48 48zm0 0" fill="#5a6470"/><path d="m240 416v-48h-240v48c0 26.507812 21.492188 48 48 48h144c26.507812 0 48-21.492188 48-48zm0 0" fill="#5a6470"/><path d="m136 416c0 8.835938-7.164062 16-16 16s-16-7.164062-16-16 7.164062-16 16-16 16 7.164062 16 16zm0 0" fill="#cfdfe8"/><g fill="#fff"><path d="m144 40h-48c-4.417969 0-8-3.582031-8-8s3.582031-8 8-8h48c4.417969 0 8 3.582031 8 8s-3.582031 8-8 8zm0 0"/><path d="m64 40c-3.25.019531-6.1875-1.929688-7.433594-4.933594-1.246094-3-.554687-6.457031 1.753906-8.746094 2.289063-2.308593 5.746094-3 8.746094-1.753906 3.003906 1.246094 4.953125 4.183594 4.933594 7.433594.023438 2.128906-.8125 4.175781-2.320312 5.679688-1.503907 1.507812-3.550782 2.34375-5.679688 2.320312zm0 0"/><path d="m40 192c-3.234375 0-6.152344-1.949219-7.390625-4.9375s-.550781-6.429688 1.734375-8.71875l64-64c3.140625-3.03125 8.128906-2.988281 11.214844.097656 3.085937 3.085938 3.128906 8.074219.097656 11.214844l-64 64c-1.5 1.5-3.535156 2.34375-5.65625 2.34375zm0 0"/><path d="m48 248c-3.28125 0-6.226562-2.007812-7.433594-5.058594-1.207031-3.050781-.429687-6.527344 1.960938-8.773437l128-120c3.238281-2.882813 8.183594-2.660157 11.152344.503906 2.964843 3.160156 2.875 8.109375-.207032 11.160156l-128 120c-1.480468 1.398438-3.4375 2.171875-5.472656 2.167969zm0 0"/><path d="m120 256c-3.234375 0-6.152344-1.949219-7.390625-4.9375s-.550781-6.429688 1.734375-8.71875l40-40c3.140625-3.03125 8.128906-2.988281 11.214844.097656 3.085937 3.085938 3.128906 8.074219.097656 11.214844l-40 40c-1.5 1.5-3.535156 2.34375-5.65625 2.34375zm0 0"/><path d="m136 312c-3.234375 0-6.152344-1.949219-7.390625-4.9375s-.550781-6.429688 1.734375-8.71875l72-72c3.140625-3.03125 8.128906-2.988281 11.214844.097656 3.085937 3.085938 3.128906 8.074219.097656 11.214844l-72 72c-1.5 1.5-3.535156 2.34375-5.65625 2.34375zm0 0"/></g></svg>