<?xml version="1.0" encoding="UTF-8"?>
<svg width="52px" height="52px" viewBox="0 0 52 52" version="1.1" xmlns="http://www.w3.org/2000/svg" xmlns:xlink="http://www.w3.org/1999/xlink">
    <!-- Generator: Sketch 61.2 (89653) - https://sketch.com -->
    <title>003-behance-logo</title>
    <desc>Created with Sketch.</desc>
    <g id="Page-1" stroke="none" stroke-width="1" fill="none" fill-rule="evenodd">
        <g id="Desktop" transform="translate(-46.000000, -440.000000)" fill="#000000" fill-rule="nonzero">
            <g id="003-behance-logo" transform="translate(46.000000, 440.000000)">
                <path d="M21,21.3302001 C21,19 19.435704,19 19.435704,19 L18.60743,19 L13,19 L13,24 L19.0367762,24 C20.0799726,23.9994946 21,23.661411 21,21.3302001 Z" id="Path"></path>
                <path d="M18.8731585,28 L13,28 L13,35 L18.6019567,35 C19.4446846,34.968692 21,34.6260763 21,31.5974719 C21,27.9633828 18.8731585,28 18.8731585,28 Z" id="Path"></path>
                <path d="M35.286401,23 C31.5245404,23 31,28 31,28 L39,28 C39.0004763,28 39.0482617,23 35.286401,23 Z" id="Path"></path>
                <path d="M26,0 C11.6405524,0 0,11.6410844 0,26 C0,40.3589156 11.6405524,52 26,52 C40.3594476,52 52,40.3589156 52,26 C52,11.6410844 40.3594476,0 26,0 Z M31.668665,15.3462506 L41.4005115,15.3462506 L41.4005115,18.2508031 L31.668665,18.2508031 L31.668665,15.3462506 Z M26.7500767,30.5807877 C26.7500767,37.7799284 19.257821,37.543202 19.257821,37.543202 L12.3916931,37.543202 L12.1900767,37.543202 L6.98369309,37.543202 L6.98369309,13.9567468 L12.1900767,13.9567468 L12.3916931,13.9567468 L19.257289,13.9567468 C22.9874578,13.9567468 25.9319079,16.016 25.9319079,20.2366445 C25.9319079,24.457821 22.3326036,24.7254015 22.3326036,24.7254015 C27.0772379,24.7254015 26.7500767,30.5807877 26.7500767,30.5807877 Z M36.8814322,34.3008491 C40.802046,34.3008491 40.663202,31.7633555 40.663202,31.7633555 L44.8141586,31.7633555 C44.8141586,38.497555 36.7431202,38.0363376 36.7431202,38.0363376 C27.057555,38.0363376 27.680491,29.0194578 27.680491,29.0194578 C27.680491,29.0194578 27.6730435,19.9578926 36.7420563,19.9578926 C46.2893095,19.9578926 44.9524706,30.1956419 44.9524706,30.1956419 L32.7304757,30.1956419 C32.7304757,34.5785371 36.8814322,34.3008491 36.8814322,34.3008491 Z" id="Shape"></path>
            </g>
        </g>
    </g>
</svg>