<?xml version="1.0" encoding="utf-8"?>
<!-- Generator: Adobe Illustrator 23.0.1, SVG Export Plug-In . SVG Version: 6.00 Build 0)  -->
<svg version="1.1" id="Bold" xmlns="http://www.w3.org/2000/svg" xmlns:xlink="http://www.w3.org/1999/xlink" x="0px" y="0px"
	 viewBox="0 0 512 512" style="enable-background:new 0 0 512 512;" xml:space="preserve">
<style type="text/css">
	.st0{fill:#333333;}
	.st1{fill:#FFFFFF;}
</style>
<circle class="st0" cx="256" cy="256" r="256"/>
<path class="st1" d="M82.3,323.9l165,110c5.6,3.5,11.6,3.5,17.3,0l165-110c4.2-2.8,6.8-7.9,6.8-12.9V201c0-5-2.6-10.1-6.8-12.9
	l-165-110c-5.6-3.5-11.6-3.5-17.3,0l-165,110c-4.2,2.8-6.8,7.9-6.8,12.9v110C75.5,316,78.1,321.1,82.3,323.9L82.3,323.9z M240.5,392
	L119,311l54.2-36.3l67.3,44.9V392z M271.5,392v-72.3l67.3-44.9L393,311L271.5,392z M405.5,282l-38.9-26l38.9-26V282z M271.5,120
	L393,201l-54.2,36.3l-67.3-44.9V120z M256,219.3l54.8,36.7L256,292.7L201.2,256L256,219.3z M240.5,120v72.3l-67.3,44.9L119,201
	L240.5,120z M106.5,230L106.5,230l38.9,26l-38.9,26V230z"/>
</svg>
