<svg width="28" height="29" viewBox="0 0 28 29" fill="none" xmlns="http://www.w3.org/2000/svg">
<path d="M14 0.571655C6.28032 0.571655 0 6.80185 0 14.4598C0 22.1177 6.28032 28.3479 14 28.3479C21.7197 28.3479 28 22.1177 28 14.4598C28 6.80185 21.7197 0.571655 14 0.571655ZM23.1232 7.12162C24.6949 9.04082 25.6625 11.4632 25.743 14.1039C22.8316 13.506 20.1953 13.5761 17.8681 14.0288C17.4467 13.0512 17.0105 12.1199 16.5702 11.2397C19.1047 10.1565 21.3112 8.77308 23.1232 7.12162ZM21.5462 5.53155C19.7474 7.16027 17.6629 8.3662 15.5285 9.25653C13.9619 6.41459 12.4631 4.27448 11.55 3.05829C12.3406 2.8912 13.1599 2.80156 14 2.80156C16.8708 2.80156 19.503 3.82939 21.5462 5.53155ZM9.27969 3.78658C9.96917 4.67289 11.6114 6.89209 13.3755 10.0495C8.94191 11.4824 4.63984 11.7238 2.57258 11.7463C3.43425 8.17547 5.95498 5.23928 9.27969 3.78658ZM2.26013 13.9818C2.28231 13.9818 2.30374 13.982 2.32636 13.982C3.75479 13.982 6.37188 13.8867 9.45292 13.3294C11.2107 13.0114 12.8776 12.5834 14.4416 12.053C14.8488 12.858 15.2535 13.7071 15.646 14.5971C13.456 15.2966 11.6092 16.303 10.1463 17.3023C7.69316 18.9782 5.97461 20.8374 5.03621 21.987C3.29878 19.9544 2.24784 17.3273 2.24784 14.4598C2.24784 14.2995 2.25354 14.1406 2.26013 13.9818ZM6.65601 23.5517C7.46388 22.5426 9.10825 20.7059 11.4869 19.0943C13.1034 17.9989 14.7758 17.1852 16.4975 16.651C17.4964 19.2196 18.3493 22.0576 18.8577 25.0711C17.376 25.7413 15.732 26.118 14 26.118C11.2229 26.118 8.66947 25.1554 6.65601 23.5517ZM20.9257 23.8704C20.4017 21.1028 19.6202 18.5005 18.7167 16.1222C20.9391 15.7503 23.2359 15.827 25.595 16.3527C25.0862 19.4284 23.3609 22.1019 20.9257 23.8704Z" fill="#515151"/>
</svg>
