<?xml version="1.0" encoding="UTF-8"?>
<svg width="30px" height="30px" viewBox="0 0 30 30" version="1.1" xmlns="http://www.w3.org/2000/svg" xmlns:xlink="http://www.w3.org/1999/xlink">
    <!-- Generator: Sketch 61.2 (89653) - https://sketch.com -->
    <title>005-github</title>
    <desc>Created with Sketch.</desc>
    <g id="Page-2" stroke="none" stroke-width="1" fill="none" fill-rule="evenodd">
        <g id="iPhone-8-Plus" transform="translate(-29.000000, -94.000000)" fill="#000000" fill-rule="nonzero">
            <g id="005-github" transform="translate(29.000000, 94.000000)">
                <path d="M15.0001144,0 C6.76122101,0 0,6.76116943 0,15 C0,22.0305633 4.9333567,28.4170532 11.4844626,30 L11.4844626,25.0373841 C10.8353488,25.1795197 10.2379626,25.1836395 9.57717574,24.9888611 C8.69070958,24.7272492 7.97041299,24.136734 7.43574095,23.2363129 C7.09493331,22.6613617 6.49090952,22.0378876 5.86079303,22.0836639 L5.7062966,20.3327179 C7.06884055,20.2159881 8.24759097,21.1628723 8.94728812,22.3384095 C9.258112,22.8611755 9.61585705,23.1676483 10.0749975,23.3031463 C10.5188028,23.4338379 10.9953384,23.3711243 11.55061,23.1749725 C11.69,22.0632935 12.1992661,21.6471863 12.5840193,21.0612488 L12.5840193,21.0603333 C8.67697663,20.4776001 7.1198816,18.4048462 6.50189593,16.7687988 C5.68295044,14.5964813 6.12240692,11.8826294 7.57055336,10.1676178 C7.59870606,10.134201 7.64951818,10.0467682 7.62983422,9.98565674 C6.96584291,7.9799652 7.77494638,6.32080078 7.80470128,6.14479066 C8.57100351,6.37138365 8.69551618,5.91682436 11.1333552,7.39791867 L11.5547299,7.65106201 C11.7309702,7.75611879 11.6755804,7.69615172 11.8518207,7.6828766 C12.8696661,7.40638734 13.9426723,7.25372314 14.9998856,7.23999023 C16.0651097,7.25372314 17.1312495,7.40638734 18.1912094,7.6940918 L18.3276239,7.70782471 C18.315722,7.70599365 18.3647031,7.69912723 18.4468723,7.65014648 C21.4921684,5.80558775 21.382762,6.40846254 22.1994187,6.14295961 C22.2289446,6.31919859 23.0272906,8.00537109 22.3703946,9.98565674 C22.2818167,10.2584839 25.0105668,12.7571869 23.4981041,16.7681122 C22.8801184,18.4048462 21.3232522,20.4776001 17.4162095,21.0603333 L17.4162095,21.0612488 C17.9170068,21.8245697 18.5187417,22.2306061 18.5155374,23.8053131 L18.5155374,30 C25.0668722,28.4170532 30,22.0305633 30,15 C30,6.76116943 23.2390079,0 15.0001144,0 Z" id="Path"></path>
            </g>
        </g>
    </g>
</svg>