<?xml version="1.0" encoding="UTF-8"?>
<svg width="52px" height="52px" viewBox="0 0 52 52" version="1.1" xmlns="http://www.w3.org/2000/svg" xmlns:xlink="http://www.w3.org/1999/xlink">
    <!-- Generator: Sketch 61.2 (89653) - https://sketch.com -->
    <title>005-github</title>
    <desc>Created with Sketch.</desc>
    <g id="Page-1" stroke="none" stroke-width="1" fill="none" fill-rule="evenodd">
        <g id="Desktop" transform="translate(-46.000000, -266.000000)" fill="#000000" fill-rule="nonzero">
            <g id="005-github" transform="translate(46.000000, 266.000000)">
                <path d="M26.0001984,0 C11.7194498,0 0,11.7193604 0,26 C0,38.1863098 8.55115161,49.2562256 19.9064019,52 L19.9064019,43.3981324 C18.7812712,43.6445008 17.7458018,43.6516418 16.6004379,43.3140258 C15.0638966,42.8605652 13.8153825,41.8370056 12.8886176,40.2762756 C12.2978844,39.2796936 11.2509098,38.1990051 10.1587079,38.2783508 L9.89091411,35.2433777 C12.252657,35.0410461 14.2958243,36.6823121 15.5086327,38.7199097 C16.0473941,39.6260375 16.6674856,40.1572571 17.463329,40.3921203 C18.2325915,40.6186523 19.0585866,40.5099488 20.0210573,40.1699524 C20.2626667,38.243042 21.1453945,37.5217895 21.8123002,36.5061645 L21.8123002,36.5045777 C15.0400928,35.4945068 12.3411281,31.9017334 11.2699529,29.065918 C9.85044744,25.3005676 10.612172,20.5965576 13.1222925,17.6238709 C13.1710905,17.5659485 13.2591648,17.4143982 13.225046,17.3084717 C12.0741277,13.8319397 13.4765737,10.9560547 13.5281489,10.6509705 C14.8564061,11.0437317 15.072228,10.2558289 19.2978156,12.823059 L20.0281985,13.2618408 C20.3336817,13.4439392 20.2376727,13.3399963 20.543156,13.3169861 C22.3074212,12.8377381 24.1672986,12.5731201 25.9998016,12.5493164 C27.8461902,12.5731201 29.6941658,12.8377381 31.5314296,13.3364258 L31.7678815,13.3602295 C31.7472515,13.3570557 31.832152,13.3451539 31.9745787,13.2602539 C37.2530918,10.0630188 37.0634542,11.1080017 38.4789923,10.6477967 C38.5301707,10.9532776 39.9139703,13.8759766 38.7753507,17.3084717 C38.6218157,17.7813721 43.3516491,22.1124572 40.7300471,29.0647278 C39.6588719,31.9017334 36.9603039,35.4945068 30.1880965,36.5045777 L30.1880965,36.5061645 C31.0561451,37.8292541 32.0991523,38.5330506 32.0935981,41.2625427 L32.0935981,52 C43.4492451,49.2562256 52,38.1863098 52,26 C52,11.7193604 40.2809469,0 26.0001984,0 Z" id="Path"></path>
            </g>
        </g>
    </g>
</svg>