<svg width="29" height="29" viewBox="0 0 29 29" fill="none" xmlns="http://www.w3.org/2000/svg">
<path d="M25.6154 0.571655H2.84615C1.28077 0.571655 0 1.8422 0 3.39508V25.9825C0 27.5354 1.28077 28.8059 2.84615 28.8059H25.6154C27.1808 28.8059 28.4615 27.5354 28.4615 25.9825V3.39508C28.4615 1.8422 27.1808 0.571655 25.6154 0.571655ZM8.53846 24.5708H4.26923V11.8654H8.53846V24.5708ZM6.40385 9.46544C4.98077 9.46544 3.84231 8.33608 3.84231 6.92436C3.84231 5.51265 4.98077 4.38328 6.40385 4.38328C7.82693 4.38328 8.96539 5.51265 8.96539 6.92436C8.96539 8.33608 7.82693 9.46544 6.40385 9.46544ZM24.1923 24.5708H19.9231V17.0887C19.9231 15.9594 18.9269 14.9711 17.7885 14.9711C16.65 14.9711 15.6539 15.9594 15.6539 17.0887V24.5708H11.3846V11.8654H15.6539V13.5594C16.3654 12.43 17.9308 11.583 19.2115 11.583C21.9154 11.583 24.1923 13.8418 24.1923 16.524V24.5708Z" fill="#515151"/>
</svg>
